SplineFontDB: 3.0
FontName: Trykker-Regular
FullName: Trykker
FamilyName: Trykker
Weight: Book
Copyright: Copyright (c) 2011, Sorkin Type Co (www.sorkintype.com) with Reserved Font Name "Trykker".
Version: 1.001
ItalicAngle: 0
UnderlinePosition: -126
UnderlineWidth: 94
Ascent: 1638
Descent: 410
LayerCount: 2
Layer: 0 1 "Back"  1
Layer: 1 1 "Fore"  0
XUID: [1021 631 1661839179 16009555]
FSType: 0
OS2Version: 3
OS2_WeightWidthSlopeOnly: 0
OS2_UseTypoMetrics: 1
CreationTime: 1323867900
ModificationTime: 1323852445
PfmFamily: 17
TTFWeight: 400
TTFWidth: 5
LineGap: 0
VLineGap: 0
Panose: 2 3 5 2 7 8 0 3 3 3
OS2TypoAscent: 384
OS2TypoAOffset: 1
OS2TypoDescent: -128
OS2TypoDOffset: 1
OS2TypoLinegap: 0
OS2WinAscent: 0
OS2WinAOffset: 1
OS2WinDescent: 0
OS2WinDOffset: 1
HheadAscent: 0
HheadAOffset: 1
HheadDescent: 0
HheadDOffset: 1
OS2SubXSize: 1434
OS2SubYSize: 1331
OS2SubXOff: 0
OS2SubYOff: 287
OS2SupXSize: 1434
OS2SupYSize: 1331
OS2SupXOff: 0
OS2SupYOff: 977
OS2StrikeYSize: 94
OS2StrikeYPos: 512
OS2Vendor: 'STC '
OS2CodePages: 20000093.00000000
OS2UnicodeRanges: a00000af.4000204a.00000000.00000000
Lookup: 258 0 0 "'kern' Horizontal Kerning in Latin lookup 0"  {"'kern' Horizontal Kerning in Latin lookup 0 per glyph data 0"  "'kern' Horizontal Kerning in Latin lookup 0 per glyph data 1"  } ['kern' ('latn' <'dflt' > ) ]
DEI: 91125
TtTable: prep
PUSHW_1
 511
SCANCTRL
PUSHB_1
 4
SVTCA[y-axis]
EndTTInstrs
ShortTable: maxp 16
  1
  0
  425
  135
  7
  169
  4
  1
  0
  0
  0
  0
  0
  0
  3
  1
EndShort

StartChar: i
Encoding: 105 105 4
Width: 682
Flags: HW
LayerCount: 2
Fore
SplineSet
392 1220 m 128,-1,1
 369 1209 369 1209 346.5 1209 c 128,-1,2
 324 1209 324 1209 302.5 1218.5 c 128,-1,3
 281 1228 281 1228 264 1243.5 c 0,4,5
 225 1279.06 225 1279.06 225 1312.03 c 128,-1,6
 225 1345 225 1345 234.5 1366.5 c 128,-1,7
 244 1388 244 1388 260 1406 c 0,8,9
 295.556 1446 295.556 1446 344 1446 c 0,10,11
 388.031 1446 388.031 1446 417.516 1420.5 c 0,12,13
 470 1375.11 470 1375.11 470 1333 c 256,14,15
 470 1287.57 470 1287.57 442.5 1259.29 c 128,-1,0
 415 1231 415 1231 392 1220 c 128,-1,1
140 85 m 1,16,-1
 272 128 l 1,17,-1
 272 789 l 1,18,-1
 133 848 l 1,19,-1
 122 860 l 1,20,-1
 133 914 l 1,21,-1
 415 1029 l 1,22,-1
 432 1020 l 1,23,-1
 432 128 l 1,24,-1
 592 94 l 1,25,-1
 596 80 l 1,26,-1
 585 0 l 1,27,-1
 137 0 l 1,28,-1
 130 9 l 1,29,-1
 140 85 l 1,16,-1
EndSplineSet
EndChar

StartChar: l
Encoding: 108 108 5
Width: 684
Flags: HW
LayerCount: 2
Fore
SplineSet
135 85 m 1,0,-1
 265 128 l 1,1,-1
 265 1416 l 1,2,-1
 108 1456 l 1,3,-1
 97 1470 l 1,4,-1
 108 1524 l 1,5,-1
 409 1636 l 1,6,-1
 425 1627 l 1,7,-1
 425 128 l 1,8,-1
 585 94 l 1,9,-1
 593 80 l 1,10,-1
 578 0 l 1,11,-1
 131 0 l 1,12,-1
 126 9 l 1,13,-1
 135 85 l 1,0,-1
EndSplineSet
EndChar

StartChar: j
Encoding: 106 106 6
Width: 684
Flags: HW
LayerCount: 2
Fore
SplineSet
413.5 1220 m 128,-1,1
 391 1209 391 1209 368 1209 c 128,-1,2
 345 1209 345 1209 323.5 1218.5 c 128,-1,3
 302 1228 302 1228 284.5 1243.5 c 0,4,5
 245 1278.49 245 1278.49 245 1311.74 c 128,-1,6
 245 1345 245 1345 254 1366.5 c 128,-1,7
 263 1388 263 1388 279 1406 c 0,8,9
 314.556 1446 314.556 1446 363 1446 c 0,10,11
 407.625 1446 407.625 1446 436.312 1420.5 c 0,12,13
 488 1374.56 488 1374.56 488 1333 c 256,14,15
 488 1287.73 488 1287.73 462 1259.36 c 128,-1,0
 436 1231 436 1231 413.5 1220 c 128,-1,1
290 789 m 1,16,-1
 153 848 l 1,17,-1
 144 860 l 1,18,-1
 153 914 l 1,19,-1
 434 1029 l 1,20,-1
 450 1020 l 1,21,-1
 450 -14 l 2,22,23
 450 -226.59 450 -226.59 333 -370.5 c 0,24,25
 256.288 -464.856 256.288 -464.856 116 -535 c 1,26,27
 86.4667 -505.467 86.4667 -505.467 83 -450 c 1,28,29
 161.937 -417.11 161.937 -417.11 222 -313 c 0,30,31
 290 -195.133 290 -195.133 290 -45 c 2,32,-1
 290 789 l 1,16,-1
EndSplineSet
EndChar

StartChar: r
Encoding: 114 114 7
Width: 853
Flags: HW
LayerCount: 2
Fore
SplineSet
770 813 m 1,0,1
 712.737 881 712.737 881 636 881 c 0,2,3
 569.792 881 569.792 881 477 750 c 0,4,5
 437 693 437 693 400 620 c 1,6,-1
 400 128 l 1,7,-1
 651 94 l 1,8,-1
 655 80 l 1,9,-1
 644 0 l 1,10,-1
 106 0 l 1,11,-1
 99 9 l 1,12,-1
 108 85 l 1,13,-1
 241 128 l 1,14,-1
 241 796 l 1,15,-1
 101 857 l 1,16,-1
 92 869 l 1,17,-1
 101 923 l 1,18,-1
 365 1029 l 1,19,-1
 381 1020 l 1,20,-1
 400 761 l 1,21,22
 484.852 979.974 484.852 979.974 627 1035.5 c 0,23,24
 659 1048 659 1048 717.833 1048 c 128,-1,25
 776.667 1048 776.667 1048 839 1015 c 1,26,27
 835.473 880.991 835.473 880.991 770 813 c 1,0,1
EndSplineSet
EndChar

StartChar: h
Encoding: 104 104 8
Width: 1365
Flags: HW
LayerCount: 2
Fore
SplineSet
743 897 m 0,0,1
 600.667 897 600.667 897 432 820 c 1,2,-1
 432 128 l 1,3,-1
 593 94 l 1,4,-1
 600 80 l 1,5,-1
 585 0 l 1,6,-1
 137 0 l 1,7,-1
 133 9 l 1,8,-1
 142 85 l 1,9,-1
 272 128 l 1,10,-1
 272 1418 l 1,11,-1
 114 1458 l 1,12,-1
 105 1470 l 1,13,-1
 114 1524 l 1,14,-1
 416 1636 l 1,15,-1
 432 1627 l 1,16,-1
 432 910 l 1,17,18
 642.632 1048 642.632 1048 791 1048 c 0,19,20
 940.269 1048 940.269 1048 1025 949.5 c 0,21,22
 1106 855.338 1106 855.338 1106 695 c 2,23,-1
 1106 128 l 1,24,-1
 1280 94 l 1,25,-1
 1287 80 l 1,26,-1
 1275 0 l 1,27,-1
 800 0 l 1,28,-1
 793 9 l 1,29,-1
 802 85 l 1,30,-1
 946 128 l 1,31,-1
 946 647 l 2,32,33
 946 897 946 897 743 897 c 0,0,1
EndSplineSet
EndChar

StartChar: c
Encoding: 99 99 9
Width: 1024
Flags: HW
LayerCount: 2
Fore
SplineSet
829 820 m 1,0,1
 691.742 935 691.742 935 547 935 c 0,2,3
 434.037 935 434.037 935 351 817 c 0,4,5
 269 700.474 269 700.474 269 537 c 0,6,7
 269 345.358 269 345.358 390 225.5 c 0,8,9
 496.505 120 496.505 120 635 120 c 256,10,11
 789.567 120 789.567 120 893 227 c 1,12,13
 949 202.5 949 202.5 949 153 c 1,14,15
 793.55 8.27108 793.55 8.27108 653 -28 c 0,16,17
 622 -36 622 -36 592 -36 c 0,18,19
 366.13 -36 366.13 -36 231 112 c 0,20,21
 102 253.286 102 253.286 102 474 c 0,22,23
 102 711.52 102 711.52 264 880 c 0,24,25
 425.538 1048 425.538 1048 653 1048 c 0,26,27
 822.947 1048 822.947 1048 916 980 c 1,28,29
 910.52 928.857 910.52 928.857 884.76 886.428 c 128,-1,30
 859 844 859 844 829 820 c 1,0,1
EndSplineSet
EndChar

StartChar: d
Encoding: 100 100 10
Width: 1195
Flags: HW
LayerCount: 2
Fore
SplineSet
634.382 1048 m 0,0,1
 754.765 1048 754.765 1048 861 1005 c 1,2,-1
 861 1416 l 1,3,-1
 694 1456 l 1,4,-1
 683 1470 l 1,5,-1
 694 1524 l 1,6,-1
 1004 1636 l 1,7,-1
 1020 1627 l 1,8,-1
 1020 200 l 2,9,10
 1020 179 1020 179 1027.5 167 c 128,-1,11
 1035 155 1035 155 1051 155 c 128,-1,12
 1067 155 1067 155 1088 157 c 128,-1,13
 1109 159 1109 159 1132 161.5 c 2,14,-1
 1184 167 l 1,15,-1
 1196 153 l 1,16,-1
 1172 70 l 1,17,-1
 904 -23 l 1,18,-1
 889 -9 l 1,19,-1
 873 103 l 1,20,21
 764.003 12.7956 764.003 12.7956 663.5 -23 c 0,22,23
 627 -36 627 -36 595 -36 c 0,24,25
 369.13 -36 369.13 -36 234 112 c 0,26,27
 105 253.286 105 253.286 105 474 c 0,28,29
 105 716.705 105 716.705 250.5 880 c 0,30,31
 400.192 1048 400.192 1048 634.382 1048 c 0,0,1
861 191 m 1,32,-1
 861 815 l 1,33,34
 799.694 885.063 799.694 885.063 697.5 921 c 0,35,36
 652 937 652 937 588.5 937 c 128,-1,37
 525 937 525 937 465.5 908.5 c 128,-1,38
 406 880 406 880 363 828 c 0,39,40
 273 719.163 273 719.163 273 537 c 0,41,42
 273 345.358 273 345.358 394 225.5 c 0,43,44
 500.505 120 500.505 120 627.502 120 c 128,-1,45
 754.5 120 754.5 120 861 191 c 1,32,-1
EndSplineSet
EndChar

StartChar: e
Encoding: 101 101 11
Width: 1025
Flags: HW
LayerCount: 2
Fore
SplineSet
871 227 m 1,0,1
 922.667 206.333 922.667 206.333 928 153 c 1,2,3
 774.683 7.75264 774.683 7.75264 620.5 -28 c 0,4,5
 586 -36 586 -36 551 -36 c 0,6,7
 341.413 -36 341.413 -36 209.5 112 c 0,8,9
 80 257.293 80 257.293 80 474 c 0,10,11
 80 709.718 80 709.718 235 880 c 0,12,13
 306 958 306 958 399 1003 c 128,-1,14
 492 1048 492 1048 587.5 1048 c 128,-1,15
 683 1048 683 1048 749.5 1014.5 c 128,-1,16
 816 981 816 981 860.5 924 c 0,17,18
 948 811.921 948 811.921 948 638 c 0,19,20
 948 589 948 589 939 553 c 1,21,22
 927.636 528 927.636 528 528 528 c 0,23,24
 395 528 395 528 247 532 c 1,25,26
 248.876 340.615 248.876 340.615 369.5 224.5 c 0,27,28
 478.058 120 478.058 120 613.896 120 c 128,-1,29
 749.733 120 749.733 120 871 227 c 1,0,1
330 624 m 2,30,31
 629.571 624 629.571 624 768 643 c 1,32,33
 768 749.623 768 749.623 703.5 839.5 c 0,34,35
 633.529 937 633.529 937 537 937 c 256,36,37
 431.487 937 431.487 937 353.5 858 c 0,38,39
 271.328 774.761 271.328 774.761 252 624 c 1,40,-1
 330 624 l 2,30,31
EndSplineSet
EndChar

StartChar: b
Encoding: 98 98 12
Width: 1194
Flags: HW
LayerCount: 2
Fore
SplineSet
554 -36 m 0,0,1
 368.556 -36 368.556 -36 168 59 c 1,2,-1
 168 1416 l 1,3,-1
 8 1456 l 1,4,-1
 1 1470 l 1,5,-1
 8 1524 l 1,6,-1
 311 1636 l 1,7,-1
 327 1627 l 1,8,-1
 327 923 l 1,9,10
 497.455 1048 497.455 1048 614.227 1048 c 128,-1,11
 731 1048 731 1048 813.5 1010.5 c 128,-1,12
 896 973 896 973 954.5 906 c 0,13,14
 1076 766.846 1076 766.846 1076 549 c 0,15,16
 1076 305.759 1076 305.759 931.5 137 c 0,17,18
 783.369 -36 783.369 -36 554 -36 c 0,0,1
327 834 m 1,19,-1
 327 207 l 1,20,21
 389.256 130.909 389.256 130.909 497.5 92.5 c 0,22,23
 544 76 544 76 605.5 76 c 128,-1,24
 667 76 667 76 723.5 106 c 128,-1,25
 780 136 780 136 821 190 c 0,26,27
 909 305.902 909 305.902 909 485 c 0,28,29
 909 679.857 909 679.857 813.5 789 c 0,30,31
 720.75 895 720.75 895 579.065 895 c 128,-1,32
 437.381 895 437.381 895 327 834 c 1,19,-1
EndSplineSet
EndChar

StartChar: p
Encoding: 112 112 13
Width: 1196
Flags: HW
LayerCount: 2
Fore
SplineSet
791 10.5 m 128,-1,1
 695 -36 695 -36 587.786 -36 c 128,-1,2
 480.571 -36 480.571 -36 352 0 c 1,3,-1
 352 -389 l 1,4,-1
 552 -424 l 1,5,-1
 557 -438 l 1,6,-1
 546 -519 l 1,7,-1
 58 -519 l 1,8,-1
 51 -506 l 1,9,-1
 60 -434 l 1,10,-1
 193 -389 l 1,11,-1
 193 796 l 1,12,-1
 53 860 l 1,13,-1
 44 872 l 1,14,-1
 53 926 l 1,15,-1
 317 1029 l 1,16,-1
 333 1020 l 1,17,-1
 333 912 l 1,18,19
 504.478 1048 504.478 1048 654 1048 c 0,20,21
 855.515 1048 855.515 1048 979.5 906 c 0,22,23
 1101 766.846 1101 766.846 1101 549 c 0,24,25
 1101 305.116 1101 305.116 956 137 c 0,26,0
 887 57 887 57 791 10.5 c 128,-1,1
565.05 895 m 0,27,28
 464.1 895 464.1 895 352 836 c 1,29,-1
 352 207 l 1,30,31
 415.33 129.597 415.33 129.597 521 92.5 c 0,32,33
 568 76 568 76 629.5 76 c 128,-1,34
 691 76 691 76 748 106 c 128,-1,35
 805 136 805 136 846 190 c 0,36,37
 934 305.902 934 305.902 934 485 c 0,38,39
 934 679.857 934 679.857 838.5 789 c 0,40,41
 745.75 895 745.75 895 565.05 895 c 0,27,28
EndSplineSet
EndChar

StartChar: a
Encoding: 97 97 14
Width: 1025
Flags: HW
LayerCount: 2
Fore
SplineSet
863 144 m 0,0,1
 885 144 885 144 995 155 c 1,2,-1
 1006 141 l 1,3,-1
 983 59 l 1,4,-1
 707 -36 l 1,5,-1
 693 -21 l 1,6,-1
 675 115 l 1,7,-1
 615 65.5 l 1,8,9
 488.604 -36 488.604 -36 407.802 -36 c 128,-1,10
 327 -36 327 -36 264.5 -7.5 c 128,-1,11
 202 21 202 21 160.5 67 c 0,12,13
 79 157.337 79 157.337 79 285 c 0,14,15
 79 396 79 396 137.5 448 c 0,16,17
 194.401 498.579 194.401 498.579 340.7 521.289 c 128,-1,18
 487 544 487 544 571.5 555 c 128,-1,19
 656 566 656 566 666 568 c 1,20,-1
 666 654 l 2,21,22
 666 923 666 923 462 923 c 0,23,24
 360.765 923 360.765 923 194 860 c 1,25,26
 154 889.091 154 889.091 154 946 c 1,27,28
 361.643 1048 361.643 1048 516.821 1048 c 0,29,30
 826 1048 826 1048 826 692 c 2,31,-1
 826 189 l 2,32,33
 826 144 826 144 863 144 c 0,0,1
257 309.5 m 0,34,35
 257 180.121 257 180.121 364 125 c 0,36,37
 397 108 397 108 431.5 108 c 128,-1,38
 466 108 466 108 497.5 118 c 128,-1,39
 529 128 529 128 559.5 142 c 128,-1,40
 590 156 590 156 617.5 172.5 c 2,41,-1
 666 202 l 1,42,-1
 666 447 l 1,43,44
 491 447 491 447 374 425.591 c 128,-1,45
 257 404.182 257 404.182 257 309.5 c 0,34,35
EndSplineSet
EndChar

StartChar: period
Encoding: 46 46 15
Width: 512
Flags: HW
LayerCount: 2
Fore
SplineSet
144 50 m 128,-1,1
 133 71 133 71 133 93 c 128,-1,2
 133 115 133 115 142 137 c 128,-1,3
 151 159 151 159 167 176.5 c 0,4,5
 203.114 216 203.114 216 237.057 216 c 128,-1,6
 271 216 271 216 294 207 c 128,-1,7
 317 198 317 198 335.5 182.5 c 0,8,9
 378 146.892 378 146.892 378 114.446 c 128,-1,10
 378 82 378 82 368 60 c 128,-1,11
 358 38 358 38 340.5 20 c 0,12,13
 300.639 -21 300.639 -21 252 -21 c 0,14,15
 209.839 -21 209.839 -21 182.419 4 c 128,-1,0
 155 29 155 29 144 50 c 128,-1,1
EndSplineSet
EndChar

StartChar: q
Encoding: 113 113 16
Width: 1196
Flags: HW
LayerCount: 2
Fore
SplineSet
857 87 m 1,0,1
 687.143 -36 687.143 -36 583.071 -36 c 128,-1,2
 479 -36 479 -36 388 3.5 c 128,-1,3
 297 43 297 43 234 112 c 0,4,5
 105 253.286 105 253.286 105 474 c 0,6,7
 105 716.705 105 716.705 250.5 880 c 0,8,9
 400.192 1048 400.192 1048 631 1048 c 0,10,11
 788.25 1048 788.25 1048 930 994 c 1,12,-1
 1001 1041 l 1,13,-1
 1017 1032 l 1,14,-1
 1017 -389 l 1,15,-1
 1156 -424 l 1,16,-1
 1163 -438 l 1,17,-1
 1152 -519 l 1,18,-1
 662 -519 l 1,19,-1
 657 -506 l 1,20,-1
 666 -434 l 1,21,-1
 857 -389 l 1,22,-1
 857 87 l 1,0,1
857 182 m 1,23,-1
 857 818 l 1,24,25
 796.617 885.931 796.617 885.931 694.5 921.5 c 0,26,27
 650 937 650 937 587.5 937 c 128,-1,28
 525 937 525 937 465.5 908.5 c 128,-1,29
 406 880 406 880 363 828 c 0,30,31
 273 719.163 273 719.163 273 537 c 0,32,33
 273 345.358 273 345.358 394 225.5 c 0,34,35
 500.505 120 500.505 120 626.616 120 c 128,-1,36
 752.727 120 752.727 120 857 182 c 1,23,-1
EndSplineSet
EndChar

StartChar: k
Encoding: 107 107 17
Width: 1196
Flags: HW
LayerCount: 2
Fore
SplineSet
125 85 m 1,0,-1
 255 128 l 1,1,-1
 255 1416 l 1,2,-1
 97 1456 l 1,3,-1
 88 1470 l 1,4,-1
 97 1524 l 1,5,-1
 399 1636 l 1,6,-1
 415 1627 l 1,7,-1
 415 544 l 1,8,-1
 803 892 l 1,9,-1
 662 921 l 1,10,-1
 655 933 l 1,11,-1
 667 1013 l 1,12,-1
 1117 1013 l 1,13,-1
 1122 1003 l 1,14,-1
 1112 930 l 1,15,-1
 969 883 l 1,16,-1
 632 605 l 1,17,-1
 1055 128 l 1,18,-1
 1194 94 l 1,19,-1
 1199 80 l 1,20,-1
 1188 0 l 1,21,-1
 740 0 l 1,22,-1
 733 9 l 1,23,-1
 743 85 l 1,24,-1
 848 128 l 1,25,-1
 516 511 l 1,26,-1
 415 427 l 1,27,-1
 415 128 l 1,28,-1
 576 94 l 1,29,-1
 583 80 l 1,30,-1
 568 0 l 1,31,-1
 120 0 l 1,32,-1
 116 9 l 1,33,-1
 125 85 l 1,0,-1
EndSplineSet
EndChar

StartChar: f
Encoding: 102 102 18
Width: 683
Flags: HW
LayerCount: 2
Fore
SplineSet
647 1015 m 1,0,1
 652 990 652 990 652 959.929 c 128,-1,2
 652 929.857 652 929.857 629 897 c 1,3,-1
 375 897 l 1,4,-1
 375 128 l 1,5,-1
 586 94 l 1,6,-1
 590 80 l 1,7,-1
 578 0 l 1,8,-1
 80 0 l 1,9,-1
 73 9 l 1,10,-1
 83 85 l 1,11,-1
 215 128 l 1,12,-1
 215 897 l 1,13,-1
 57 897 l 1,14,15
 53 917 53 917 53 932.5 c 0,16,17
 53 953.5 53 953.5 67 971 c 1,18,-1
 215 1013 l 1,19,-1
 215 1161 l 2,20,21
 215 1366.28 215 1366.28 322 1496.5 c 0,22,23
 436.628 1636 436.628 1636 635 1636 c 0,24,25
 711.111 1636 711.111 1636 798 1602 c 1,26,27
 796.239 1552.69 796.239 1552.69 773.119 1511.84 c 128,-1,28
 750 1471 750 1471 724 1451 c 1,29,30
 641.684 1519 641.684 1519 509 1519 c 0,31,32
 421.78 1519 421.78 1519 387 1348 c 0,33,34
 375 1289 375 1289 375 1206 c 2,35,-1
 375 1005 l 1,36,37
 480.333 1005 480.333 1005 647 1015 c 1,0,1
EndSplineSet
EndChar

StartChar: t
Encoding: 116 116 19
Width: 853
Flags: HW
LayerCount: 2
Fore
SplineSet
500 117 m 0,0,1
 609.692 117 609.692 117 729 164 c 1,2,3
 765.29 142.226 765.29 142.226 769 94 c 1,4,5
 593.324 -36 593.324 -36 477 -36 c 0,6,7
 340.59 -36 340.59 -36 270.5 53.5 c 0,8,9
 208 133.308 208 133.308 208 268 c 2,10,-1
 208 897 l 1,11,-1
 77 897 l 1,12,13
 69 914 69 914 69 931 c 0,14,15
 69 952.25 69 952.25 84 971 c 1,16,-1
 230 1022 l 1,17,-1
 303 1292 l 1,18,-1
 371 1292 l 1,19,-1
 371 1005 l 1,20,21
 482.333 1005 482.333 1005 719 1015 c 1,22,23
 719 1010 719 1010 720 1005 c 2,24,-1
 721 980 l 1,25,26
 721 925.235 721 925.235 697 897 c 1,27,-1
 371 897 l 1,28,-1
 371 276 l 2,29,30
 371 209.294 371 209.294 397 175.647 c 0,31,32
 442.318 117 442.318 117 500 117 c 0,0,1
EndSplineSet
EndChar

StartChar: u
Encoding: 117 117 20
Width: 1196
Flags: HW
LayerCount: 2
Fore
SplineSet
467.5 133 m 0,0,1
 511 115 511 115 591.857 115 c 128,-1,2
 672.714 115 672.714 115 827 205 c 1,3,-1
 827 798 l 1,4,-1
 685 860 l 1,5,-1
 679 872 l 1,6,-1
 685 926 l 1,7,-1
 968 1029 l 1,8,-1
 987 1022 l 1,9,-1
 987 200 l 2,10,11
 987 179 987 179 994.5 167 c 128,-1,12
 1002 155 1002 155 1018 155 c 128,-1,13
 1034 155 1034 155 1055.5 157 c 2,14,-1
 1099 161 l 2,15,16
 1125 164 1125 164 1154 167 c 1,17,-1
 1166 153 l 1,18,-1
 1142 70 l 1,19,-1
 869 -23 l 1,20,-1
 855 -9 l 1,21,-1
 843 115 l 1,22,-1
 834 117 l 1,23,-1
 786 82.5 l 2,24,25
 706.696 24.7215 706.696 24.7215 636.348 -5.63923 c 128,-1,26
 566 -36 566 -36 506.5 -36 c 128,-1,27
 447 -36 447 -36 385 -11.5 c 128,-1,28
 323 13 323 13 280 58 c 0,29,30
 193 149.047 193 149.047 193 308 c 2,31,-1
 193 825 l 1,32,-1
 94 874 l 1,33,-1
 85 885 l 1,34,-1
 94 940 l 1,35,-1
 337 1029 l 1,36,-1
 353 1020 l 1,37,-1
 353 353 l 2,38,39
 353 180.379 353 180.379 467.5 133 c 0,0,1
EndSplineSet
EndChar

StartChar: v
Encoding: 118 118 21
Width: 1196
Flags: HW
LayerCount: 2
Fore
SplineSet
173 892 m 1,0,-1
 58 921 l 1,1,-1
 50 933 l 1,2,-1
 63 1013 l 1,3,-1
 484 1013 l 1,4,-1
 491 1003 l 1,5,-1
 481 930 l 1,6,-1
 371 892 l 1,7,-1
 630 191 l 1,8,-1
 893 895 l 1,9,-1
 755 921 l 1,10,-1
 750 933 l 1,11,-1
 762 1013 l 1,12,-1
 1139 1013 l 1,13,-1
 1146 1003 l 1,14,-1
 1131 921 l 1,15,-1
 1015 892 l 1,16,-1
 651 18 l 1,17,18
 634.923 -14.1538 634.923 -14.1538 550 -23 c 1,19,-1
 173 892 l 1,0,-1
EndSplineSet
EndChar

StartChar: s
Encoding: 115 115 22
Width: 854
Flags: HW
LayerCount: 2
Fore
SplineSet
663 845 m 1,0,1
 535.024 944 535.024 944 402 944 c 0,2,3
 313.353 944 313.353 944 281.5 858.5 c 0,4,5
 272 833 272 833 272 795 c 128,-1,6
 272 757 272 757 293.5 722.5 c 128,-1,7
 315 688 315 688 350.5 661 c 128,-1,8
 386 634 386 634 431.5 612 c 2,9,-1
 524.5 567 l 2,10,11
 648.021 507.19 648.021 507.19 691.011 463.595 c 0,12,13
 777 376.394 777 376.394 777 259 c 0,14,15
 777 127.539 777 127.539 667 44.5 c 0,16,17
 560.364 -36 560.364 -36 400 -36 c 0,18,19
 266.143 -36 266.143 -36 191.571 -8.5 c 128,-1,20
 117 19 117 19 87 40 c 1,21,22
 94.0736 131.957 94.0736 131.957 160 193 c 1,23,24
 258.131 108.888 258.131 108.888 371 78.5 c 0,25,26
 410 68 410 68 446.5 68 c 128,-1,27
 483 68 483 68 515.5 76 c 128,-1,28
 548 84 548 84 572.5 101.5 c 0,29,30
 627 140.429 627 140.429 627 200.714 c 128,-1,31
 627 261 627 261 605.5 295 c 128,-1,32
 584 329 584 329 548.5 355 c 128,-1,33
 513 381 513 381 467.5 402 c 2,34,-1
 374.5 444.5 l 2,35,36
 253.473 499.28 253.473 499.28 209.237 544.14 c 0,37,38
 122 632.606 122 632.606 122 753 c 0,39,40
 122 878.917 122 878.917 226 964.5 c 0,41,42
 327.468 1048 327.468 1048 478 1048 c 0,43,44
 620.25 1048 620.25 1048 744 1003 c 1,45,46
 737.194 957.061 737.194 957.061 713.097 913.53 c 128,-1,47
 689 870 689 870 663 845 c 1,0,1
EndSplineSet
EndChar

StartChar: w
Encoding: 119 119 23
Width: 1532
Flags: HW
LayerCount: 2
Fore
SplineSet
64 892 m 1,0,-1
 -21 921 l 1,1,-1
 -28 933 l 1,2,-1
 -17 1013 l 1,3,-1
 374 1013 l 1,4,-1
 382 1003 l 1,5,-1
 372 930 l 1,6,-1
 262 892 l 1,7,-1
 468 189 l 1,8,-1
 738 959 l 1,9,10
 760.545 981.545 760.545 981.545 794.273 991.273 c 128,-1,11
 828 1001 828 1001 846 1003 c 1,12,-1
 1107 195 l 1,13,-1
 1333 895 l 1,14,-1
 1190 921 l 1,15,-1
 1183 933 l 1,16,-1
 1194 1013 l 1,17,-1
 1564 1013 l 1,18,-1
 1568 1003 l 1,19,-1
 1555 921 l 1,20,-1
 1458 892 l 1,21,-1
 1136 18 l 1,22,23
 1115.5 -23 1115.5 -23 1034 -23 c 1,24,-1
 761 726 l 1,25,-1
 489 18 l 1,26,27
 474.212 -5.88874 474.212 -5.88874 448.106 -12.9444 c 128,-1,28
 422 -20 422 -20 390 -23 c 1,29,-1
 64 892 l 1,0,-1
EndSplineSet
EndChar

StartChar: g
Encoding: 103 103 24
Width: 1194
Flags: HW
LayerCount: 2
Fore
SplineSet
503 337 m 1,0,1
 413 285.571 413 285.571 413 238 c 0,2,3
 413 184.105 413 184.105 438 163.053 c 0,4,5
 484.291 124.071 484.291 124.071 604.145 111.535 c 128,-1,6
 724 99 724 99 818 82.5 c 128,-1,7
 912 66 912 66 973 35.5 c 0,8,9
 1093 -24.5 1093 -24.5 1093 -179 c 0,10,11
 1093 -335.571 1093 -335.571 954.5 -434.5 c 0,12,13
 812.4 -536 812.4 -536 588 -536 c 0,14,15
 367.044 -536 367.044 -536 233 -432 c 0,16,17
 118 -342.776 118 -342.776 118 -231 c 0,18,19
 118 -154.448 118 -154.448 170 -115 c 1,20,-1
 228.5 -63 l 2,21,22
 264 -32 264 -32 316 7 c 1,23,24
 229 55.9375 229 55.9375 229 162 c 0,25,26
 229 224.776 229 224.776 279.5 266 c 0,27,28
 304 286 304 286 339.5 306.5 c 2,29,-1
 420 355 l 1,30,31
 249.91 413.877 249.91 413.877 197 553.5 c 0,32,33
 179 601 179 601 179 677 c 128,-1,34
 179 753 179 753 218 827 c 128,-1,35
 257 901 257 901 320.5 952 c 0,36,37
 449.99 1056 449.99 1056 626 1056 c 1,38,-1
 898 1045 l 1,39,40
 1037.35 1045 1037.35 1045 1109 1074 c 1,41,42
 1136 1036.88 1136 1036.88 1136 1003.44 c 0,43,44
 1136 953.5 1136 953.5 1125 926 c 1,45,46
 1104 912 1104 912 1072.5 912 c 128,-1,47
 1041 912 1041 912 1021 918 c 128,-1,48
 1001 924 1001 924 982.5 932.5 c 0,49,50
 933.19 955.156 933.19 955.156 905 959 c 1,51,-1
 898 944 l 1,52,53
 971.86 887.185 971.86 887.185 994.5 770.5 c 0,54,55
 1001 737 1001 737 1001 681.5 c 128,-1,56
 1001 626 1001 626 966 558 c 128,-1,57
 931 490 931 490 872 439.5 c 0,58,59
 746.406 332 746.406 332 576 332 c 0,60,61
 548 332 548 332 503 337 c 1,0,1
604 440 m 0,62,63
 654 440 654 440 695 454.5 c 128,-1,64
 736 469 736 469 767 497 c 0,65,66
 836 559.323 836 559.323 836 661 c 0,67,68
 836 787.397 836 787.397 755.5 869 c 0,69,70
 679.541 946 679.541 946 573 946 c 0,71,72
 469.857 946 469.857 946 404.5 878.5 c 0,73,74
 340 811.885 340 811.885 340 711 c 0,75,76
 340 589.849 340 589.849 418.5 513.5 c 0,77,78
 494.07 440 494.07 440 604 440 c 0,62,63
282 -200 m 0,79,80
 282 -238 282 -238 302.5 -280 c 128,-1,81
 323 -322 323 -322 363.5 -356 c 0,82,83
 452.838 -431 452.838 -431 609 -431 c 0,84,85
 771.97 -431 771.97 -431 850.5 -358 c 0,86,87
 915 -298.042 915 -298.042 915 -194 c 0,88,89
 915 -129.468 915 -129.468 844.5 -102 c 0,90,91
 778.886 -76.4362 778.886 -76.4362 647.443 -61.7181 c 0,92,93
 436.519 -38.1003 436.519 -38.1003 379 -21 c 1,94,95
 282 -88.1538 282 -88.1538 282 -200 c 0,79,80
EndSplineSet
EndChar

StartChar: y
Encoding: 121 121 25
Width: 1194
Flags: HW
LayerCount: 2
Fore
SplineSet
266 -450 m 1,0,1
 452.142 -168.764 452.142 -168.764 540 5 c 1,2,-1
 184 892 l 1,3,-1
 69 921 l 1,4,-1
 62 933 l 1,5,-1
 73 1013 l 1,6,-1
 489 1013 l 1,7,-1
 496 1003 l 1,8,-1
 486 930 l 1,9,-1
 375 892 l 1,10,-1
 628 162 l 1,11,-1
 637 162 l 1,12,13
 700 317 700 317 749 450 c 2,14,-1
 833 683 l 1,15,16
 873 799 873 799 903 895 c 1,17,-1
 759 921 l 1,18,-1
 754 933 l 1,19,-1
 766 1013 l 1,20,-1
 1143 1013 l 1,21,-1
 1150 1003 l 1,22,-1
 1136 921 l 1,23,-1
 1030 892 l 1,24,-1
 734 153 l 1,25,26
 681 24 681 24 624.5 -99.5 c 1,27,-1
 521 -321 l 1,28,-1
 414 -538 l 1,29,30
 357.765 -538 357.765 -538 306 -494 c 0,31,32
 283 -475 283 -475 266 -450 c 1,0,1
EndSplineSet
EndChar

StartChar: ring
Encoding: 730 730 26
Width: 586
Flags: HW
LayerCount: 2
Fore
SplineSet
294 1217 m 0,0,1
 247 1217 247 1217 205 1233.5 c 128,-1,2
 163 1250 163 1250 132.5 1279 c 0,3,4
 67 1341.28 67 1341.28 67 1434 c 0,5,6
 67 1528.26 67 1528.26 143.5 1597 c 0,7,8
 216.952 1663 216.952 1663 313 1663 c 0,9,10
 410.339 1663 410.339 1663 472.5 1604 c 0,11,12
 535 1544.68 535 1544.68 535 1452 c 0,13,14
 535 1350.01 535 1350.01 461.5 1282 c 0,15,16
 391.258 1217 391.258 1217 294 1217 c 0,0,1
298 1568 m 0,17,18
 195 1568 195 1568 195 1454 c 0,19,20
 195 1358.66 195 1358.66 269.5 1320.5 c 0,21,22
 290 1310 290 1310 310 1310 c 0,23,24
 406 1310 406 1310 406 1424 c 0,25,26
 406 1487.13 406 1487.13 370.5 1529.5 c 0,27,28
 338.243 1568 338.243 1568 298 1568 c 0,17,18
EndSplineSet
EndChar

StartChar: x
Encoding: 120 120 27
Width: 1194
Flags: HW
LayerCount: 2
Fore
SplineSet
72 92 m 1,0,-1
 198 117 l 1,1,-1
 532 523 l 1,2,-1
 236 892 l 1,3,-1
 118 921 l 1,4,-1
 114 933 l 1,5,-1
 125 1013 l 1,6,-1
 546 1013 l 1,7,-1
 554 1003 l 1,8,-1
 544 930 l 1,9,-1
 443 892 l 1,10,-1
 631 627 l 1,11,-1
 831 892 l 1,12,-1
 709 921 l 1,13,-1
 701 933 l 1,14,-1
 716 1013 l 1,15,-1
 1107 1013 l 1,16,-1
 1114 1003 l 1,17,-1
 1100 921 l 1,18,-1
 970 892 l 1,19,-1
 689 546 l 1,20,-1
 1022 117 l 1,21,-1
 1132 94 l 1,22,-1
 1139 80 l 1,23,-1
 1127 0 l 1,24,-1
 704 0 l 1,25,-1
 698 9 l 1,26,-1
 709 85 l 1,27,-1
 810 120 l 1,28,-1
 591 442 l 1,29,-1
 343 117 l 1,30,-1
 471 94 l 1,31,-1
 478 80 l 1,32,-1
 466 0 l 1,33,-1
 69 0 l 1,34,-1
 62 9 l 1,35,-1
 72 92 l 1,0,-1
EndSplineSet
EndChar

StartChar: z
Encoding: 122 122 28
Width: 1024
Flags: HW
LayerCount: 2
Fore
SplineSet
927 1013 m 1,0,1
 945 980.6 945 980.6 945 935 c 1,2,-1
 320 94 l 1,3,-1
 771 94 l 1,4,-1
 835 299 l 1,5,6
 851.333 306 851.333 306 869.667 306 c 128,-1,7
 888 306 888 306 905 304 c 1,8,-1
 938 0 l 1,9,-1
 111 0 l 1,10,11
 89.8261 42.3478 89.8261 42.3478 97 83 c 1,12,-1
 716 919 l 1,13,-1
 311 919 l 1,14,-1
 246 714 l 1,15,16
 218.348 700.174 218.348 700.174 174 708 c 1,17,-1
 142 1013 l 1,18,-1
 927 1013 l 1,0,1
EndSplineSet
EndChar

StartChar: M
Encoding: 77 77 29
Width: 2046
Flags: HW
LayerCount: 2
Fore
SplineSet
121 85 m 1,0,-1
 274 128 l 1,1,-1
 330 1362 l 1,2,-1
 151 1393 l 1,3,-1
 144 1407 l 1,4,-1
 159 1492 l 1,5,-1
 516 1492 l 1,6,-1
 1034 324 l 1,7,-1
 1510 1492 l 1,8,-1
 1889 1492 l 1,9,-1
 1905 1480 l 1,10,-1
 1887 1393 l 1,11,-1
 1703 1362 l 1,12,-1
 1759 128 l 1,13,-1
 1927 94 l 1,14,-1
 1934 80 l 1,15,-1
 1919 0 l 1,16,-1
 1425 0 l 1,17,-1
 1420 9 l 1,18,-1
 1431 85 l 1,19,-1
 1573 128 l 1,20,-1
 1526 1226 l 1,21,-1
 1058 101 l 2,22,23
 1049 79 1049 79 1022 63 c 128,-1,24
 995 47 995 47 968 47 c 1,25,-1
 438 1202 l 1,26,-1
 393 128 l 1,27,-1
 535 94 l 1,28,-1
 542 80 l 1,29,-1
 528 0 l 1,30,-1
 116 0 l 1,31,-1
 111 9 l 1,32,-1
 121 85 l 1,0,-1
EndSplineSet
EndChar

StartChar: N
Encoding: 78 78 30
Width: 1705
Flags: HW
LayerCount: 2
Fore
SplineSet
110 85 m 1,0,-1
 263 128 l 1,1,-1
 263 1367 l 1,2,-1
 96 1398 l 1,3,-1
 89 1411 l 1,4,-1
 103 1492 l 1,5,-1
 433 1492 l 1,6,-1
 1366 351 l 1,7,-1
 1366 1362 l 1,8,-1
 1195 1398 l 1,9,-1
 1189 1411 l 1,10,-1
 1202 1492 l 1,11,-1
 1613 1492 l 1,12,-1
 1618 1483 l 1,13,-1
 1608 1407 l 1,14,-1
 1483 1364 l 1,15,-1
 1483 0 l 1,16,17
 1465 -36 1465 -36 1424 -36 c 1,18,-1
 381 1252 l 1,19,-1
 381 128 l 1,20,-1
 517 94 l 1,21,-1
 524 80 l 1,22,-1
 510 0 l 1,23,-1
 105 0 l 1,24,-1
 101 9 l 1,25,-1
 110 85 l 1,0,-1
EndSplineSet
EndChar

StartChar: A
Encoding: 65 65 31
Width: 1535
Flags: HW
LayerCount: 2
Fore
SplineSet
34 85 m 1,0,-1
 187 128 l 1,1,-1
 673 1480 l 1,2,3
 723.221 1506.31 723.221 1506.31 857 1528 c 1,4,-1
 1356 128 l 1,5,-1
 1516 94 l 1,6,-1
 1523 80 l 1,7,-1
 1509 0 l 1,8,-1
 1030 0 l 1,9,-1
 1026 9 l 1,10,-1
 1035 85 l 1,11,-1
 1164 128 l 1,12,-1
 1021 533 l 1,13,-1
 455 533 l 1,14,-1
 319 128 l 1,15,-1
 455 94 l 1,16,-1
 462 80 l 1,17,-1
 448 0 l 1,18,-1
 30 0 l 1,19,-1
 24 9 l 1,20,-1
 34 85 l 1,0,-1
979 651 m 1,21,-1
 731 1317 l 1,22,-1
 496 651 l 1,23,-1
 979 651 l 1,21,-1
EndSplineSet
EndChar

StartChar: H
Encoding: 72 72 32
Width: 1535
Flags: HW
LayerCount: 2
Fore
SplineSet
58 85 m 1,0,-1
 201 128 l 1,1,-1
 201 1364 l 1,2,-1
 62 1398 l 1,3,-1
 55 1411 l 1,4,-1
 69 1492 l 1,5,-1
 545 1492 l 1,6,-1
 550 1483 l 1,7,-1
 541 1407 l 1,8,-1
 390 1364 l 1,9,-1
 390 815 l 1,10,-1
 1146 815 l 1,11,-1
 1146 1364 l 1,12,-1
 1006 1398 l 1,13,-1
 999 1411 l 1,14,-1
 1014 1492 l 1,15,-1
 1489 1492 l 1,16,-1
 1494 1483 l 1,17,-1
 1485 1407 l 1,18,-1
 1334 1364 l 1,19,-1
 1334 128 l 1,20,-1
 1480 94 l 1,21,-1
 1487 80 l 1,22,-1
 1473 0 l 1,23,-1
 997 0 l 1,24,-1
 993 9 l 1,25,-1
 1002 85 l 1,26,-1
 1146 128 l 1,27,-1
 1146 698 l 1,28,-1
 390 698 l 1,29,-1
 390 128 l 1,30,-1
 536 94 l 1,31,-1
 543 80 l 1,32,-1
 528 0 l 1,33,-1
 53 0 l 1,34,-1
 48 9 l 1,35,-1
 58 85 l 1,0,-1
EndSplineSet
EndChar

StartChar: R
Encoding: 82 82 33
Width: 1366
Flags: HW
LayerCount: 2
Fore
SplineSet
612 641 m 1,0,1
 480 641 480 641 420 647 c 1,2,-1
 420 128 l 1,3,-1
 616 94 l 1,4,-1
 623 80 l 1,5,-1
 609 0 l 1,6,-1
 85 0 l 1,7,-1
 78 11 l 1,8,-1
 90 85 l 1,9,-1
 231 128 l 1,10,-1
 231 1364 l 1,11,-1
 92 1398 l 1,12,-1
 85 1411 l 1,13,-1
 99 1492 l 1,14,-1
 678 1492 l 2,15,16
 1157 1492 1157 1492 1157 1050 c 0,17,18
 1157 887.903 1157 887.903 1056.5 782 c 0,19,20
 968.227 688.981 968.227 688.981 813 654 c 1,21,22
 898.586 601.332 898.586 601.332 974 467 c 0,23,24
 1006 410 1006 410 1036 350.5 c 128,-1,25
 1066 291 1066 291 1102 238.5 c 0,26,27
 1184.59 118.052 1184.59 118.052 1295 87 c 1,28,-1
 1310 68 l 1,29,-1
 1293 0 l 1,30,-1
 1067 -23 l 1,31,32
 998.615 -13.2308 998.615 -13.2308 906.5 171 c 1,33,-1
 798 393.5 l 1,34,35
 697.876 595.536 697.876 595.536 612 641 c 1,0,1
607.167 1375 m 0,36,37
 513.333 1375 513.333 1375 420 1355 c 1,38,-1
 420 766 l 1,39,40
 468 758 468 758 564.5 758 c 128,-1,41
 661 758 661 758 730.5 772.5 c 128,-1,42
 800 787 800 787 850 822 c 0,43,44
 956 896.2 956 896.2 956 1060 c 0,45,46
 956 1201.02 956 1201.02 869 1286 c 0,47,48
 777.881 1375 777.881 1375 607.167 1375 c 0,36,37
EndSplineSet
EndChar

StartChar: P
Encoding: 80 80 34
Width: 1196
Flags: HW
LayerCount: 2
Fore
SplineSet
582 583 m 0,0,1
 463 583 463 583 400 592 c 1,2,-1
 400 128 l 1,3,-1
 616 94 l 1,4,-1
 623 80 l 1,5,-1
 609 0 l 1,6,-1
 65 0 l 1,7,-1
 58 11 l 1,8,-1
 70 85 l 1,9,-1
 211 128 l 1,10,-1
 211 1364 l 1,11,-1
 72 1398 l 1,12,-1
 65 1411 l 1,13,-1
 79 1492 l 1,14,-1
 648 1492 l 2,15,16
 881 1492 881 1492 999 1375.5 c 128,-1,17
 1117 1259 1117 1259 1117 1033 c 0,18,19
 1117 810.385 1117 810.385 960.5 690 c 0,20,21
 821.4 583 821.4 583 582 583 c 0,0,1
577.167 1375 m 0,22,23
 483.333 1375 483.333 1375 400 1355 c 1,24,-1
 400 708 l 1,25,26
 442 701 442 701 536.5 701 c 128,-1,27
 631 701 631 701 699 721 c 128,-1,28
 767 741 767 741 815 781.5 c 0,29,30
 916 866.719 916 866.719 916 1033 c 0,31,32
 916 1167 916 1167 834 1265 c 0,33,34
 741.959 1375 741.959 1375 577.167 1375 c 0,22,23
EndSplineSet
EndChar

StartChar: B
Encoding: 66 66 35
Width: 1366
Flags: HW
LayerCount: 2
Fore
SplineSet
119 85 m 1,0,-1
 249 128 l 1,1,-1
 249 1364 l 1,2,-1
 109 1398 l 1,3,-1
 102 1411 l 1,4,-1
 116 1492 l 1,5,-1
 685 1492 l 2,6,7
 931 1492 931 1492 1050.5 1404 c 128,-1,8
 1170 1316 1170 1316 1170 1131 c 0,9,10
 1170 1020.25 1170 1020.25 1102 931 c 0,11,12
 1033.48 841.07 1033.48 841.07 923 825 c 1,13,-1
 923 813 l 1,14,15
 1246 763.6 1246 763.6 1246 431 c 0,16,17
 1246 280.889 1246 280.889 1157.5 176 c 0,18,19
 1044.5 42.071 1044.5 42.071 816.5 9.5 c 0,20,21
 750 0 750 0 687 0 c 2,22,-1
 114 0 l 1,23,-1
 109 9 l 1,24,-1
 119 85 l 1,0,-1
640 1376 m 0,25,26
 539.333 1376 539.333 1376 436 1356 c 1,27,-1
 436 828 l 1,28,-1
 541 834 l 1,29,-1
 646.5 838.5 l 2,30,31
 705 841 705 841 746.5 841 c 128,-1,32
 788 841 788 841 823 857.5 c 128,-1,33
 858 874 858 874 891 908 c 0,34,35
 972 991.455 972 991.455 972 1119.73 c 0,36,37
 972 1376 972 1376 640 1376 c 0,25,26
840 712 m 0,38,39
 771 733 771 733 688.5 733 c 128,-1,40
 606 733 606 733 436 718 c 1,41,-1
 436 144 l 1,42,43
 522.111 113 522.111 113 636.056 113 c 128,-1,44
 750 113 750 113 821.5 132.5 c 128,-1,45
 893 152 893 152 943 192 c 0,46,47
 1047 275.2 1047 275.2 1047 431 c 0,48,49
 1047 649 1047 649 840 712 c 0,38,39
EndSplineSet
EndChar

StartChar: O
Encoding: 79 79 36
Width: 1705
Flags: HW
LayerCount: 2
Fore
SplineSet
176.5 416 m 128,-1,1
 126 551 126 551 126 685 c 128,-1,2
 126 819 126 819 153.5 922 c 128,-1,3
 181 1025 181 1025 231.5 1114 c 128,-1,4
 282 1203 282 1203 351.5 1276 c 128,-1,5
 421 1349 421 1349 505.5 1400.5 c 0,6,7
 681.883 1508 681.883 1508 863.442 1508 c 128,-1,8
 1045 1508 1045 1508 1173.5 1451 c 128,-1,9
 1302 1394 1302 1394 1392 1294 c 0,10,11
 1579 1086.22 1579 1086.22 1579 761 c 0,12,13
 1579 422.504 1579 422.504 1356.5 192 c 0,14,15
 1216.07 46.5207 1216.07 46.5207 1024 -8.5 c 0,16,17
 928 -36 928 -36 798 -36 c 128,-1,18
 668 -36 668 -36 539 22 c 128,-1,19
 410 80 410 80 318.5 180.5 c 128,-1,0
 227 281 227 281 176.5 416 c 128,-1,1
331 783.5 m 0,20,21
 331 632 331 632 374.5 501.5 c 128,-1,22
 418 371 418 371 493.5 280.5 c 0,23,24
 649.088 94 649.088 94 889 94 c 0,25,26
 1108.17 94 1108.17 94 1238.5 240.5 c 0,27,28
 1374 392.806 1374 392.806 1374 669 c 0,29,30
 1374 993.939 1374 993.939 1214.5 1192.5 c 0,31,32
 1063.89 1380 1063.89 1380 832 1380 c 0,33,34
 597.6 1380 597.6 1380 465 1227 c 0,35,36
 331 1072.38 331 1072.38 331 783.5 c 0,20,21
EndSplineSet
EndChar

StartChar: S
Encoding: 83 83 37
Width: 1196
Flags: HW
LayerCount: 2
Fore
SplineSet
204 407 m 1,0,1
 247.871 412.161 247.871 412.161 283 393 c 1,2,3
 283 268 283 268 294 224 c 1,4,5
 377.639 148.141 377.639 148.141 504.5 106.5 c 0,6,7
 570 85 570 85 637.5 85 c 128,-1,8
 705 85 705 85 752.5 98.5 c 128,-1,9
 800 112 800 112 835 142 c 0,10,11
 911 207.143 911 207.143 911 337 c 0,12,13
 911 439.286 911 439.286 794.5 522.5 c 0,14,15
 742 560 742 560 675 593.5 c 2,16,-1
 538.5 662 l 2,17,18
 362.314 750.727 362.314 750.727 296.157 814.364 c 128,-1,19
 230 878 230 878 198 942 c 128,-1,20
 166 1006 166 1006 166 1093.5 c 128,-1,21
 166 1181 166 1181 202 1258 c 128,-1,22
 238 1335 238 1335 302 1390.5 c 0,23,24
 437.495 1508 437.495 1508 641 1508 c 0,25,26
 854.906 1508 854.906 1508 1056 1391 c 1,27,-1
 985 1079 l 1,28,29
 950.653 1072.94 950.653 1072.94 908 1090 c 1,30,31
 908 1123 908 1123 906 1153 c 128,-1,32
 904 1183 904 1183 902 1213 c 128,-1,33
 900 1243 900 1243 895 1263 c 1,34,35
 750.323 1378 750.323 1378 545 1378 c 0,36,37
 442.119 1378 442.119 1378 384 1314.5 c 0,38,39
 331 1256.59 331 1256.59 331 1174.8 c 128,-1,40
 331 1093 331 1093 363.5 1046 c 128,-1,41
 396 999 396 999 448.5 960 c 128,-1,42
 501 921 501 921 568.5 887 c 2,43,-1
 706.5 817 l 2,44,45
 886.349 725.162 886.349 725.162 951.675 661.081 c 128,-1,46
 1017 597 1017 597 1049.5 530.5 c 128,-1,47
 1082 464 1082 464 1082 372.5 c 128,-1,48
 1082 281 1082 281 1044.5 204.5 c 128,-1,49
 1007 128 1007 128 939.5 74.5 c 0,50,51
 800.084 -36 800.084 -36 569 -36 c 0,52,53
 373.8 -36 373.8 -36 236 29 c 1,54,55
 174 57 174 57 134 94 c 1,56,-1
 204 407 l 1,0,1
EndSplineSet
EndChar

StartChar: C
Encoding: 67 67 38
Width: 1537
Flags: HW
LayerCount: 2
Fore
SplineSet
1276 1081 m 1,0,1
 1219.8 1081 1219.8 1081 1189 1092 c 1,2,3
 1189 1220 1189 1220 1178 1275 c 1,4,5
 1107.45 1326.48 1107.45 1326.48 990.223 1348.74 c 128,-1,6
 873 1371 873 1371 767.5 1371 c 128,-1,7
 662 1371 662 1371 575.5 1332 c 128,-1,8
 489 1293 489 1293 424 1217 c 0,9,10
 283 1052.14 283 1052.14 283 776 c 0,11,12
 283 447.513 283 447.513 461 259.5 c 0,13,14
 619.58 92 619.58 92 852 92 c 0,15,16
 1047.87 92 1047.87 92 1196 204 c 1,17,18
 1209.38 249.484 1209.38 249.484 1213 398 c 1,19,20
 1227 403 1227 403 1242 405.5 c 2,21,-1
 1269 410 l 2,22,23
 1283 412 1283 412 1297 412 c 1,24,-1
 1352 99 l 1,25,26
 1224.56 23.3335 1224.56 23.3335 1028.5 -15.5 c 0,27,28
 925 -36 925 -36 804 -36 c 128,-1,29
 683 -36 683 -36 587 -9 c 128,-1,30
 491 18 491 18 411.5 66.5 c 128,-1,31
 332 115 332 115 270 182.5 c 128,-1,32
 208 250 208 250 165.5 331.5 c 0,33,34
 78 499.294 78 499.294 78 683.147 c 128,-1,35
 78 867 78 867 134.5 1015.5 c 128,-1,36
 191 1164 191 1164 293 1273.5 c 128,-1,37
 395 1383 395 1383 537.5 1445.5 c 128,-1,38
 680 1508 680 1508 823 1508 c 0,39,40
 1141.2 1508 1141.2 1508 1350 1400 c 1,41,-1
 1276 1081 l 1,0,1
EndSplineSet
EndChar

StartChar: G
Encoding: 71 71 39
Width: 1532
Flags: HW
LayerCount: 2
Fore
SplineSet
102.5 490.5 m 128,-1,1
 78 582 78 582 78 691.5 c 128,-1,2
 78 801 78 801 103.5 909 c 128,-1,3
 129 1017 129 1017 176 1109 c 128,-1,4
 223 1201 223 1201 290.5 1274.5 c 128,-1,5
 358 1348 358 1348 442.5 1400 c 0,6,7
 618 1508 618 1508 836 1508 c 0,8,9
 1038.16 1508 1038.16 1508 1208 1453.5 c 0,10,11
 1305.83 1422.11 1305.83 1422.11 1362 1387 c 1,12,-1
 1290 1083 l 1,13,14
 1250.05 1076.34 1250.05 1076.34 1209 1095 c 1,15,16
 1209 1127 1209 1127 1207 1155.5 c 2,17,-1
 1203 1212 l 2,18,19
 1201 1240 1201 1240 1196 1260 c 1,20,21
 1145.99 1327.87 1145.99 1327.87 902.5 1361 c 0,22,23
 829 1371 829 1371 746.5 1371 c 128,-1,24
 664 1371 664 1371 579.5 1331 c 128,-1,25
 495 1291 495 1291 429 1212.5 c 0,26,27
 283 1038.85 283 1038.85 283 747 c 0,28,29
 283 450.841 283 450.841 461.5 264 c 0,30,31
 566.424 154.173 566.424 154.173 702 113.5 c 0,32,33
 767 94 767 94 832.5 94 c 128,-1,34
 898 94 898 94 955.5 104.5 c 128,-1,35
 1013 115 1013 115 1060 131.5 c 0,36,37
 1146.93 162.018 1146.93 162.018 1206 212 c 1,38,-1
 1206 558 l 1,39,-1
 897 589 l 1,40,-1
 897 681 l 1,41,-1
 1441 681 l 1,42,-1
 1441 600 l 1,43,-1
 1394 570 l 1,44,-1
 1394 151 l 1,45,46
 1236.46 7.03988 1236.46 7.03988 943 -28 c 0,47,48
 876 -36 876 -36 785.5 -36 c 128,-1,49
 695 -36 695 -36 601 -10.5 c 128,-1,50
 507 15 507 15 427 62 c 128,-1,51
 347 109 347 109 282.5 174 c 128,-1,52
 218 239 218 239 172.5 319 c 128,-1,0
 127 399 127 399 102.5 490.5 c 128,-1,1
EndSplineSet
EndChar

StartChar: I
Encoding: 73 73 40
Width: 683
Flags: HW
LayerCount: 2
Fore
SplineSet
109 85 m 1,0,-1
 248 128 l 1,1,-1
 248 1364 l 1,2,-1
 102 1398 l 1,3,-1
 95 1411 l 1,4,-1
 109 1492 l 1,5,-1
 585 1492 l 1,6,-1
 589 1483 l 1,7,-1
 579 1407 l 1,8,-1
 435 1364 l 1,9,-1
 435 128 l 1,10,-1
 587 94 l 1,11,-1
 594 80 l 1,12,-1
 579 0 l 1,13,-1
 104 0 l 1,14,-1
 99 9 l 1,15,-1
 109 85 l 1,0,-1
EndSplineSet
EndChar

StartChar: J
Encoding: 74 74 41
Width: 683
Flags: HW
LayerCount: 2
Fore
SplineSet
248 1364 m 1,0,-1
 108 1398 l 1,1,-1
 102 1411 l 1,2,-1
 115 1492 l 1,3,-1
 591 1492 l 1,4,-1
 596 1483 l 1,5,-1
 587 1407 l 1,6,-1
 436 1364 l 1,7,-1
 436 40 l 2,8,9
 436 -312 436 -312 73 -488 c 1,10,11
 47 -462 47 -462 39 -402 c 1,12,13
 120.013 -368.245 120.013 -368.245 179 -266 c 0,14,15
 248 -146.4 248 -146.4 248 2 c 2,16,-1
 248 1364 l 1,0,-1
EndSplineSet
EndChar

StartChar: L
Encoding: 76 76 42
Width: 1194
Flags: HW
LayerCount: 2
Fore
SplineSet
87 85 m 1,0,-1
 231 128 l 1,1,-1
 231 1364 l 1,2,-1
 90 1398 l 1,3,-1
 83 1411 l 1,4,-1
 97 1492 l 1,5,-1
 598 1492 l 1,6,-1
 603 1483 l 1,7,-1
 593 1407 l 1,8,-1
 420 1364 l 1,9,-1
 420 117 l 1,10,-1
 923 117 l 1,11,-1
 1015 371 l 1,12,13
 1043.52 376.704 1043.52 376.704 1092 371 c 1,14,-1
 1101 0 l 1,15,-1
 83 0 l 1,16,-1
 78 9 l 1,17,-1
 87 85 l 1,0,-1
EndSplineSet
EndChar

StartChar: E
Encoding: 69 69 43
Width: 1361
Flags: HW
LayerCount: 2
Fore
SplineSet
96 85 m 1,0,-1
 240 128 l 1,1,-1
 240 1360 l 1,2,-1
 101 1393 l 1,3,-1
 94 1407 l 1,4,-1
 108 1492 l 1,5,-1
 1144 1492 l 1,6,-1
 1110 1188 l 1,7,8
 1073.07 1181.48 1073.07 1181.48 1027 1193 c 1,9,-1
 969 1375 l 1,10,-1
 429 1375 l 1,11,-1
 429 821 l 1,12,-1
 836 821 l 1,13,-1
 886 963 l 1,14,15
 914 970 914 970 963 963 c 1,16,-1
 963 561 l 1,17,18
 919.688 553.781 919.688 553.781 886 561 c 1,19,-1
 836 702 l 1,20,-1
 429 702 l 1,21,-1
 429 117 l 1,22,-1
 1012 117 l 1,23,-1
 1097 360 l 1,24,25
 1131.29 370.286 1131.29 370.286 1175 360 c 1,26,-1
 1184 0 l 1,27,-1
 92 0 l 1,28,-1
 87 9 l 1,29,-1
 96 85 l 1,0,-1
EndSplineSet
EndChar

StartChar: F
Encoding: 70 70 44
Width: 1361
Flags: HW
LayerCount: 2
Fore
SplineSet
116 85 m 1,0,-1
 260 128 l 1,1,-1
 260 1364 l 1,2,-1
 121 1398 l 1,3,-1
 114 1411 l 1,4,-1
 128 1492 l 1,5,-1
 1204 1492 l 1,6,-1
 1170 1188 l 1,7,8
 1133.07 1181.48 1133.07 1181.48 1087 1193 c 1,9,-1
 1029 1375 l 1,10,-1
 449 1375 l 1,11,-1
 449 783 l 1,12,-1
 876 783 l 1,13,-1
 921 920 l 1,14,15
 959.5 926.417 959.5 926.417 998 920 c 1,16,-1
 998 531 l 1,17,18
 955.65 519.45 955.65 519.45 921 531 c 1,19,-1
 871 664 l 1,20,-1
 449 664 l 1,21,-1
 449 128 l 1,22,-1
 665 94 l 1,23,-1
 672 80 l 1,24,-1
 658 0 l 1,25,-1
 112 0 l 1,26,-1
 107 9 l 1,27,-1
 116 85 l 1,0,-1
EndSplineSet
EndChar

StartChar: ae
Encoding: 230 230 45
Width: 1703
Flags: HW
LayerCount: 2
Fore
SplineSet
1501 227 m 1,0,1
 1551.78 205.239 1551.78 205.239 1557 153 c 1,2,3
 1403.68 7.75264 1403.68 7.75264 1249.5 -28 c 0,4,5
 1215 -36 1215 -36 1165 -36 c 128,-1,6
 1115 -36 1115 -36 1057 -20 c 128,-1,7
 999 -4 999 -4 949.5 25 c 0,8,9
 851.092 82.6534 851.092 82.6534 789 182 c 1,10,-1
 760.5 153 l 1,11,12
 576.225 -36 576.225 -36 459 -36 c 0,13,14
 299.424 -36 299.424 -36 206.5 67 c 0,15,16
 125 157.337 125 157.337 125 285 c 0,17,18
 125 396 125 396 183.5 448 c 0,19,20
 240.401 498.579 240.401 498.579 387.2 521.289 c 128,-1,21
 534 544 534 544 618 555 c 128,-1,22
 702 566 702 566 712 568 c 1,23,-1
 712 654 l 2,24,25
 712 923 712 923 508 923 c 0,26,27
 406.765 923 406.765 923 240 860 c 1,28,29
 200 889.091 200 889.091 200 946 c 1,30,31
 407.643 1048 407.643 1048 549 1048 c 0,32,33
 790.956 1048 790.956 1048 848 869 c 1,34,35
 920 953 920 953 1017 1000.5 c 128,-1,36
 1114 1048 1114 1048 1213.5 1048 c 128,-1,37
 1313 1048 1313 1048 1379.5 1014.5 c 128,-1,38
 1446 981 1446 981 1490.5 924 c 0,39,40
 1578 811.921 1578 811.921 1578 638 c 0,41,42
 1578 589 1578 589 1569 553 c 1,43,44
 1558.55 530 1558.55 530 1157 530 c 2,45,-1
 1024 530 l 2,46,47
 954 530 954 530 876 532 c 1,48,49
 877.867 341.584 877.867 341.584 999.5 224.5 c 0,50,51
 1108.06 120 1108.06 120 1243.9 120 c 128,-1,52
 1379.73 120 1379.73 120 1501 227 c 1,0,1
959 624 m 2,53,54
 1238.67 624 1238.67 624 1397 643 c 1,55,56
 1397 749.623 1397 749.623 1332.5 839.5 c 0,57,58
 1262.53 937 1262.53 937 1166 937 c 0,59,60
 1060.44 937 1060.44 937 983 856.5 c 0,61,62
 900.278 770.513 900.278 770.513 881 624 c 1,63,-1
 959 624 l 2,53,54
751 243 m 1,64,65
 712 328.8 712 328.8 712 447 c 1,66,67
 555 447 555 447 429 429 c 1,68,69
 364 416 364 416 334 387 c 128,-1,70
 304 358 304 358 304 309.5 c 128,-1,71
 304 261 304 261 317 228 c 128,-1,72
 330 195 330 195 353.5 168.5 c 0,73,74
 407.151 108 407.151 108 483 108 c 0,75,76
 567.875 108 567.875 108 693.5 198 c 0,77,78
 727 222 727 222 751 243 c 1,64,65
EndSplineSet
EndChar

StartChar: oslash
Encoding: 248 248 46
Width: 1195
Flags: HW
LayerCount: 2
Fore
SplineSet
571.625 -36 m 0,0,1
 457.25 -36 457.25 -36 347 18 c 1,2,-1
 260 -103 l 1,3,4
 198.421 -92.7368 198.421 -92.7368 170 -43 c 1,5,-1
 257 80 l 1,6,7
 88 232.309 88 232.309 88 485 c 0,8,9
 88 720.507 88 720.507 246 885 c 0,10,11
 402.566 1048 402.566 1048 619 1048 c 0,12,13
 767.2 1048 767.2 1048 884 975 c 1,14,-1
 966 1092 l 1,15,16
 1028.16 1087.22 1028.16 1087.22 1053 1034 c 1,17,-1
 963 910 l 1,18,19
 1107 759.739 1107 759.739 1107 526 c 0,20,21
 1107 288.083 1107 288.083 951 124.5 c 0,22,23
 797.94 -36 797.94 -36 571.625 -36 c 0,0,1
792 829 m 1,24,25
 690.353 937 690.353 937 583 937 c 0,26,27
 352.803 937 352.803 937 288 720.5 c 0,28,29
 266 647 266 647 266 547.5 c 0,30,31
 266 361.478 266 361.478 368 224 c 1,32,-1
 792 829 l 1,24,25
430 158 m 1,33,34
 522.513 76 522.513 76 622 76 c 0,35,36
 842.39 76 842.39 76 906.5 284 c 0,37,38
 929 357 929 357 929 453.5 c 0,39,40
 929 623.865 929 623.865 844 764 c 1,41,-1
 430 158 l 1,33,34
EndSplineSet
EndChar

StartChar: K
Encoding: 75 75 47
Width: 1366
Flags: HW
LayerCount: 2
Fore
SplineSet
90 85 m 1,0,-1
 233 130 l 1,1,-1
 233 1360 l 1,2,-1
 94 1393 l 1,3,-1
 87 1407 l 1,4,-1
 101 1492 l 1,5,-1
 577 1492 l 1,6,-1
 582 1483 l 1,7,-1
 573 1402 l 1,8,-1
 422 1360 l 1,9,-1
 422 733 l 1,10,-1
 983 1367 l 1,11,-1
 844 1395 l 1,12,-1
 837 1407 l 1,13,-1
 849 1492 l 1,14,-1
 1327 1492 l 1,15,-1
 1332 1483 l 1,16,-1
 1322 1405 l 1,17,-1
 1179 1355 l 1,18,-1
 678 823 l 1,19,-1
 1212 128 l 1,20,-1
 1352 94 l 1,21,-1
 1356 80 l 1,22,-1
 1343 0 l 1,23,-1
 864 0 l 1,24,-1
 856 9 l 1,25,-1
 866 85 l 1,26,-1
 972 128 l 1,27,-1
 560 693 l 1,28,-1
 422 552 l 1,29,-1
 422 128 l 1,30,-1
 568 94 l 1,31,-1
 575 80 l 1,32,-1
 560 0 l 1,33,-1
 85 0 l 1,34,-1
 80 9 l 1,35,-1
 90 85 l 1,0,-1
EndSplineSet
EndChar

StartChar: Q
Encoding: 81 81 48
Width: 1705
Flags: HW
LayerCount: 2
Fore
SplineSet
176.5 416 m 128,-1,1
 126 551 126 551 126 685 c 128,-1,2
 126 819 126 819 153.5 922 c 128,-1,3
 181 1025 181 1025 231.5 1114 c 128,-1,4
 282 1203 282 1203 351.5 1276 c 128,-1,5
 421 1349 421 1349 505.5 1400.5 c 0,6,7
 681.883 1508 681.883 1508 863.442 1508 c 128,-1,8
 1045 1508 1045 1508 1173.5 1451 c 128,-1,9
 1302 1394 1302 1394 1392 1294 c 0,10,11
 1579 1086.22 1579 1086.22 1579 761 c 0,12,13
 1579 483.081 1579 483.081 1421 268.5 c 0,14,15
 1268.4 61.2584 1268.4 61.2584 1026 -8 c 1,16,17
 1315.78 -160.515 1315.78 -160.515 1599 -238 c 0,18,19
 1705 -267 1705 -267 1808 -278 c 1,20,21
 1808 -370.077 1808 -370.077 1782.5 -414.538 c 128,-1,22
 1757 -459 1757 -459 1738 -474 c 1,23,24
 1330.15 -370.679 1330.15 -370.679 993.5 -145.5 c 0,25,26
 918 -95 918 -95 849 -35 c 1,27,28
 843 -36 843 -36 837 -36 c 128,-1,29
 831 -36 831 -36 825 -36 c 0,30,31
 668 -36 668 -36 539 22 c 128,-1,32
 410 80 410 80 318.5 180.5 c 128,-1,0
 227 281 227 281 176.5 416 c 128,-1,1
331 783.5 m 0,33,34
 331 632 331 632 374.5 501.5 c 128,-1,35
 418 371 418 371 493.5 280.5 c 0,36,37
 649.088 94 649.088 94 889 94 c 0,38,39
 1108.17 94 1108.17 94 1238.5 240.5 c 0,40,41
 1374 392.806 1374 392.806 1374 669 c 0,42,43
 1374 993.939 1374 993.939 1214.5 1192.5 c 0,44,45
 1063.89 1380 1063.89 1380 832 1380 c 0,46,47
 597.6 1380 597.6 1380 465 1227 c 0,48,49
 331 1072.38 331 1072.38 331 783.5 c 0,33,34
EndSplineSet
EndChar

StartChar: D
Encoding: 68 68 49
Width: 1532
Flags: HW
LayerCount: 2
Fore
SplineSet
48 85 m 1,0,-1
 196 128 l 1,1,-1
 196 1353 l 1,2,-1
 52 1391 l 1,3,-1
 45 1405 l 1,4,-1
 59 1492 l 1,5,-1
 704 1492 l 2,6,7
 1022.23 1492 1022.23 1492 1211 1287.5 c 0,8,9
 1398 1084.92 1398 1084.92 1398 750 c 0,10,11
 1398 426.565 1398 426.565 1176 211 c 0,12,13
 958.701 -1.51315e-05 958.701 -1.51315e-05 644 0 c 2,14,-1
 43 0 l 1,15,-1
 38 9 l 1,16,-1
 48 85 l 1,0,-1
628.5 1375 m 0,17,18
 512 1375 512 1375 380 1353 c 1,19,-1
 380 153 l 1,20,21
 518 130 518 130 657.5 130 c 128,-1,22
 797 130 797 130 891.5 164.5 c 128,-1,23
 986 199 986 199 1053.5 269 c 0,24,25
 1196 416.778 1196 416.778 1196 694 c 0,26,27
 1196 1020.29 1196 1020.29 1028.5 1204 c 0,28,29
 872.588 1375 872.588 1375 628.5 1375 c 0,17,18
EndSplineSet
EndChar

StartChar: comma
Encoding: 44 44 50
Width: 512
Flags: HW
LayerCount: 2
Fore
SplineSet
158.5 48.5 m 2,0,1
 145 65 145 65 145 89 c 128,-1,2
 145 113 145 113 155.5 134.5 c 128,-1,3
 166 156 166 156 183 174 c 0,4,5
 222.667 216 222.667 216 254.833 216 c 128,-1,6
 287 216 287 216 310 203 c 128,-1,7
 333 190 333 190 351 169.5 c 0,8,9
 390 125.083 390 125.083 390 75.0417 c 128,-1,10
 390 25 390 25 380.5 -20.5 c 128,-1,11
 371 -66 371 -66 355 -104.5 c 0,12,13
 293.795 -251.775 293.795 -251.775 166 -339 c 1,14,15
 125.776 -329.536 125.776 -329.536 122 -288 c 1,16,17
 124 -288 124 -288 141 -269 c 128,-1,18
 158 -250 158 -250 178 -221.5 c 0,19,20
 230 -147.4 230 -147.4 230 -100.7 c 128,-1,21
 230 -54 230 -54 216.5 -29 c 128,-1,22
 203 -4 203 -4 187.5 14 c 2,23,-1
 158.5 48.5 l 2,0,1
EndSplineSet
EndChar

StartChar: T
Encoding: 84 84 51
Width: 1362
Flags: HW
LayerCount: 2
Fore
SplineSet
372 85 m 1,0,-1
 586 128 l 1,1,-1
 586 1370 l 1,2,-1
 400 1370 l 2,3,4
 290.067 1370 290.067 1370 249 1331.5 c 0,5,6
 212.879 1297.64 212.879 1297.64 167 1160 c 1,7,8
 107.714 1160 107.714 1160 81 1177 c 1,9,-1
 119 1492 l 1,10,-1
 1239 1492 l 1,11,-1
 1280 1177 l 1,12,13
 1248.43 1160 1248.43 1160 1194 1160 c 1,14,15
 1147.67 1299 1147.67 1299 1118.33 1326.5 c 128,-1,16
 1089 1354 1089 1354 1054 1362 c 128,-1,17
 1019 1370 1019 1370 962 1370 c 2,18,-1
 775 1370 l 1,19,-1
 775 128 l 1,20,-1
 992 85 l 1,21,-1
 999 72 l 1,22,-1
 984 0 l 1,23,-1
 368 0 l 1,24,-1
 363 9 l 1,25,-1
 372 85 l 1,0,-1
EndSplineSet
EndChar

StartChar: U
Encoding: 85 85 52
Width: 1532
Flags: HW
LayerCount: 2
Fore
SplineSet
179 1364 m 1,0,-1
 57 1398 l 1,1,-1
 50 1411 l 1,2,-1
 64 1492 l 1,3,-1
 540 1492 l 1,4,-1
 545 1483 l 1,5,-1
 534 1407 l 1,6,-1
 368 1364 l 1,7,-1
 368 560 l 2,8,9
 368 322 368 322 469.5 208 c 128,-1,10
 571 94 571 94 779 94 c 0,11,12
 956.058 94 956.058 94 1076 200.5 c 0,13,14
 1201 311.491 1201 311.491 1201 499 c 2,15,-1
 1201 1364 l 1,16,-1
 1048 1398 l 1,17,-1
 1041 1411 l 1,18,-1
 1055 1492 l 1,19,-1
 1477 1492 l 1,20,-1
 1482 1483 l 1,21,-1
 1473 1407 l 1,22,-1
 1329 1364 l 1,23,-1
 1329 492 l 2,24,25
 1329 255.329 1329 255.329 1167.5 110.5 c 0,26,27
 1004.14 -36 1004.14 -36 733 -36 c 0,28,29
 466.224 -36 466.224 -36 321 103 c 0,30,31
 179 238.914 179 238.914 179 476 c 2,32,-1
 179 1364 l 1,0,-1
EndSplineSet
EndChar

StartChar: V
Encoding: 86 86 53
Width: 1532
Flags: HW
LayerCount: 2
Fore
SplineSet
179 1360 m 1,0,-1
 10 1393 l 1,1,-1
 2 1409 l 1,2,-1
 17 1492 l 1,3,-1
 541 1492 l 1,4,-1
 547 1483 l 1,5,-1
 537 1402 l 1,6,-1
 401 1357 l 1,7,-1
 801 164 l 1,8,-1
 1192 1357 l 1,9,-1
 1049 1393 l 1,10,-1
 1042 1407 l 1,11,-1
 1056 1492 l 1,12,-1
 1524 1492 l 1,13,-1
 1529 1483 l 1,14,-1
 1519 1402 l 1,15,-1
 1357 1360 l 1,16,-1
 865 23 l 1,17,18
 790.211 -19.3803 790.211 -19.3803 678 -23 c 1,19,-1
 179 1360 l 1,0,-1
EndSplineSet
EndChar

StartChar: W
Encoding: 87 87 54
Width: 2214
Flags: HW
LayerCount: 2
Fore
SplineSet
124 1364 m 1,0,-1
 -36 1398 l 1,1,-1
 -43 1411 l 1,2,-1
 -29 1492 l 1,3,-1
 467 1492 l 1,4,-1
 472 1483 l 1,5,-1
 463 1407 l 1,6,-1
 333 1364 l 1,7,-1
 681 169 l 1,8,-1
 1047 1400 l 1,9,10
 1109.39 1462.39 1109.39 1462.39 1225 1466 c 1,11,-1
 1593 162 l 1,12,-1
 1956 1364 l 1,13,-1
 1824 1398 l 1,14,-1
 1816 1411 l 1,15,-1
 1831 1492 l 1,16,-1
 2252 1492 l 1,17,-1
 2257 1483 l 1,18,-1
 2248 1407 l 1,19,-1
 2095 1364 l 1,20,-1
 1663 23 l 1,21,22
 1590.73 -19.3635 1590.73 -19.3635 1478 -23 c 1,23,-1
 1108 1204 l 1,24,-1
 753 23 l 1,25,26
 678.211 -19.3803 678.211 -19.3803 566 -23 c 1,27,-1
 124 1364 l 1,0,-1
EndSplineSet
EndChar

StartChar: X
Encoding: 88 88 55
Width: 1362
Flags: HW
LayerCount: 2
Fore
SplineSet
-25 9 m 1,0,-1
 -16 85 l 1,1,-1
 126 128 l 1,2,-1
 569 763 l 1,3,-1
 156 1364 l 1,4,-1
 17 1398 l 1,5,-1
 10 1411 l 1,6,-1
 25 1492 l 1,7,-1
 538 1492 l 1,8,-1
 542 1483 l 1,9,-1
 533 1407 l 1,10,-1
 382 1364 l 1,11,-1
 697 902 l 1,12,-1
 996 1364 l 1,13,-1
 856 1398 l 1,14,-1
 848 1411 l 1,15,-1
 863 1492 l 1,16,-1
 1317 1492 l 1,17,-1
 1322 1483 l 1,18,-1
 1313 1407 l 1,19,-1
 1164 1364 l 1,20,-1
 766 803 l 1,21,-1
 1232 128 l 1,22,-1
 1380 94 l 1,23,-1
 1387 80 l 1,24,-1
 1374 0 l 1,25,-1
 861 0 l 1,26,-1
 856 9 l 1,27,-1
 865 85 l 1,28,-1
 1007 128 l 1,29,-1
 639 662 l 1,30,-1
 293 128 l 1,31,-1
 441 94 l 1,32,-1
 448 80 l 1,33,-1
 434 0 l 1,34,-1
 -20 0 l 1,35,-1
 -25 9 l 1,0,-1
EndSplineSet
EndChar

StartChar: Y
Encoding: 89 89 56
Width: 1196
Flags: HW
LayerCount: 2
Fore
SplineSet
365 85 m 1,0,-1
 509 128 l 1,1,-1
 509 545 l 1,2,-1
 87 1364 l 1,3,-1
 -51 1398 l 1,4,-1
 -59 1411 l 1,5,-1
 -44 1492 l 1,6,-1
 469 1492 l 1,7,-1
 474 1483 l 1,8,-1
 464 1407 l 1,9,-1
 314 1364 l 1,10,-1
 624 681 l 1,11,-1
 936 1357 l 1,12,-1
 790 1398 l 1,13,-1
 783 1411 l 1,14,-1
 797 1492 l 1,15,-1
 1251 1492 l 1,16,-1
 1256 1483 l 1,17,-1
 1246 1407 l 1,18,-1
 1098 1364 l 1,19,-1
 698 559 l 1,20,-1
 698 128 l 1,21,-1
 844 94 l 1,22,-1
 851 80 l 1,23,-1
 837 0 l 1,24,-1
 361 0 l 1,25,-1
 356 9 l 1,26,-1
 365 85 l 1,0,-1
EndSplineSet
EndChar

StartChar: Z
Encoding: 90 90 57
Width: 1359
Flags: HW
LayerCount: 2
Fore
SplineSet
100 0 m 1,0,1
 77.1172 26.1517 77.1172 26.1517 72 85 c 1,2,-1
 1007 1379 l 1,3,-1
 307 1379 l 1,4,-1
 248 1169 l 1,5,6
 204.136 1157.04 204.136 1157.04 167 1164 c 1,7,-1
 133 1492 l 1,8,-1
 1250 1492 l 1,9,10
 1255 1479 1255 1479 1258 1465 c 0,11,12
 1265.39 1430.52 1265.39 1430.52 1257 1402 c 1,13,-1
 343 113 l 1,14,-1
 1071 113 l 1,15,-1
 1129 323 l 1,16,17
 1157 330 1157 330 1176 330 c 128,-1,18
 1195 330 1195 330 1212 328 c 1,19,-1
 1245 0 l 1,20,-1
 100 0 l 1,0,1
EndSplineSet
EndChar

StartChar: AE
Encoding: 198 198 58
Width: 2052
Flags: HW
LayerCount: 2
Fore
SplineSet
80 85 m 1,0,-1
 233 128 l 1,1,-1
 961 1376 l 1,2,-1
 890 1393 l 1,3,-1
 883 1407 l 1,4,-1
 897 1492 l 1,5,-1
 1953 1492 l 1,6,-1
 1919 1188 l 1,7,8
 1880.35 1181.18 1880.35 1181.18 1837 1193 c 1,9,-1
 1778 1375 l 1,10,-1
 1218 1375 l 1,11,-1
 1218 821 l 1,12,-1
 1665 821 l 1,13,-1
 1715 963 l 1,14,15
 1743.36 970.091 1743.36 970.091 1793 963 c 1,16,-1
 1793 561 l 1,17,18
 1750.45 553.909 1750.45 553.909 1715 561 c 1,19,-1
 1665 702 l 1,20,-1
 1218 702 l 1,21,-1
 1218 117 l 1,22,-1
 1802 117 l 1,23,-1
 1886 360 l 1,24,25
 1920.29 370.286 1920.29 370.286 1964 360 c 1,26,-1
 1973 0 l 1,27,-1
 881 0 l 1,28,-1
 876 9 l 1,29,-1
 885 85 l 1,30,-1
 1029 128 l 1,31,-1
 1029 513 l 1,32,-1
 593 513 l 1,33,-1
 370 128 l 1,34,-1
 506 94 l 1,35,-1
 513 80 l 1,36,-1
 499 0 l 1,37,-1
 76 0 l 1,38,-1
 70 9 l 1,39,-1
 80 85 l 1,0,-1
1029 631 m 1,40,-1
 1029 1264 l 1,41,-1
 662 631 l 1,42,-1
 1029 631 l 1,40,-1
EndSplineSet
EndChar

StartChar: Oslash
Encoding: 216 216 59
Width: 1705
Flags: HW
LayerCount: 2
Fore
SplineSet
1024 -8.5 m 0,0,1
 928 -36 928 -36 834.222 -36 c 128,-1,2
 740.444 -36 740.444 -36 656 -17 c 1,3,-1
 607 -162 l 1,4,5
 569.2 -162 569.2 -162 508 -128 c 1,6,-1
 556 15 l 1,7,8
 356.424 95.6368 356.424 95.6368 241.5 282 c 0,9,10
 126 469.297 126 469.297 126 706 c 0,11,12
 126 1039.14 126 1039.14 351.5 1276 c 0,13,14
 491.791 1423.36 491.791 1423.36 686 1480 c 0,15,16
 782 1508 782 1508 875.778 1508 c 128,-1,17
 969.556 1508 969.556 1508 1054 1489 c 1,18,-1
 1094 1607 l 1,19,20
 1130 1607 1130 1607 1159 1592.5 c 128,-1,21
 1188 1578 1188 1578 1196 1571 c 1,22,-1
 1157 1457 l 1,23,24
 1356.21 1377.32 1356.21 1377.32 1468 1191 c 0,25,26
 1579 1006 1579 1006 1579 761 c 0,27,28
 1579 422.504 1579 422.504 1356.5 192 c 0,29,30
 1216.07 46.5207 1216.07 46.5207 1024 -8.5 c 0,0,1
1006 1347 m 1,31,32
 923 1380 923 1380 819.5 1380 c 128,-1,33
 716 1380 716 1380 623 1341 c 128,-1,34
 530 1302 530 1302 465 1227 c 0,35,36
 331 1072.38 331 1072.38 331 796 c 0,37,38
 331 473.029 331 473.029 496.5 277 c 0,39,40
 548 216 548 216 611 175 c 1,41,-1
 1006 1347 l 1,31,32
705 127 m 1,42,43
 792 94 792 94 894 94 c 128,-1,44
 996 94 996 94 1085 131 c 128,-1,45
 1174 168 1174 168 1238.5 240.5 c 0,46,47
 1374 392.806 1374 392.806 1374 669 c 0,48,49
 1374 997.58 1374 997.58 1213 1194 c 0,50,51
 1163 1255 1163 1255 1102 1296 c 1,52,-1
 705 127 l 1,42,43
EndSplineSet
EndChar

StartChar: zero
Encoding: 48 48 60
Width: 1362
Flags: HW
LayerCount: 2
Fore
SplineSet
137 531.5 m 0,0,1
 137 650 137 650 177.5 754 c 128,-1,2
 218 858 218 858 290.5 933.5 c 0,3,4
 445.583 1095 445.583 1095 679 1095 c 0,5,6
 926.265 1095 926.265 1095 1076 933.5 c 0,7,8
 1220 778.186 1220 778.186 1220 528 c 0,9,10
 1220 297.091 1220 297.091 1070.5 134 c 0,11,12
 914.667 -36 914.667 -36 679 -36 c 0,13,14
 433.818 -36 433.818 -36 282 131 c 0,15,16
 137 290.5 137 290.5 137 531.5 c 0,0,1
297 535 m 0,17,18
 297 444 297 444 326 364 c 128,-1,19
 355 284 355 284 408.5 221.5 c 0,20,21
 527.056 83 527.056 83 701 83 c 0,22,23
 864.398 83 864.398 83 965 217.5 c 0,24,25
 1060 344.511 1060 344.511 1060 528 c 0,26,27
 1060 725.887 1060 725.887 949 850.5 c 0,28,29
 836.319 977 836.319 977 658 977 c 0,30,31
 494.924 977 494.924 977 395 850.5 c 0,32,33
 297 726.436 297 726.436 297 535 c 0,17,18
EndSplineSet
EndChar

StartChar: one
Encoding: 49 49 61
Width: 851
Flags: HW
LayerCount: 2
Fore
SplineSet
125 85 m 1,0,-1
 378 128 l 1,1,-1
 378 891 l 1,2,-1
 108 842 l 1,3,-1
 101 856 l 1,4,-1
 112 942 l 1,5,-1
 556 1097 l 1,6,-1
 581 1071 l 1,7,-1
 538 904 l 1,8,-1
 538 128 l 1,9,-1
 771 94 l 1,10,-1
 778 80 l 1,11,-1
 764 0 l 1,12,-1
 120 0 l 1,13,-1
 116 9 l 1,14,-1
 125 85 l 1,0,-1
EndSplineSet
EndChar

StartChar: two
Encoding: 50 50 62
Width: 1192
Flags: HW
LayerCount: 2
Fore
SplineSet
132 101 m 1,0,1
 498.072 346.955 498.072 346.955 629.5 495 c 0,2,3
 744 623.977 744 623.977 744 739 c 0,4,5
 744 828 744 828 685.5 886.5 c 0,6,7
 623 949 623 949 536.5 949 c 0,8,9
 346.03 949 346.03 949 203 831 c 1,10,11
 137 872.684 137 872.684 137 923 c 1,12,13
 298.618 1054.49 298.618 1054.49 494.5 1087.5 c 0,14,15
 539 1095 539 1095 600 1095 c 128,-1,16
 661 1095 661 1095 727.5 1074 c 128,-1,17
 794 1053 794 1053 843.5 1013.5 c 0,18,19
 951 927.717 951 927.717 951 784 c 0,20,21
 951 625.667 951 625.667 815 484 c 0,22,23
 725.225 390.484 725.225 390.484 588.612 289.742 c 1,24,-1
 339 108 l 1,25,26
 890.571 108 890.571 108 904 155 c 1,27,-1
 944 317 l 1,28,29
 980.757 328.027 980.757 328.027 1026 323 c 1,30,-1
 1059 0 l 1,31,-1
 167 0 l 1,32,33
 124.371 34.8786 124.371 34.8786 132 101 c 1,0,1
EndSplineSet
EndChar

StartChar: three
Encoding: 51 51 63
Width: 1023
Flags: HW
LayerCount: 2
Fore
SplineSet
840 789 m 0,0,1
 840 566.469 840 566.469 551 431 c 1,2,3
 759.736 418.069 759.736 418.069 855.5 313.5 c 0,4,5
 933 228.874 933 228.874 933 90 c 0,6,7
 933 -120.925 933 -120.925 757.5 -250.5 c 0,8,9
 592.937 -372 592.937 -372 363 -372 c 0,10,11
 263 -372 263 -372 182 -339 c 0,12,13
 155 -328 155 -328 137 -313 c 1,14,-1
 137 -304 l 2,15,16
 137 -212.4 137 -212.4 188 -158 c 1,17,18
 264.62 -234.62 264.62 -234.62 374.5 -262.5 c 0,19,20
 408 -271 408 -271 454.5 -271 c 128,-1,21
 501 -271 501 -271 555 -246 c 128,-1,22
 609 -221 609 -221 649.5 -178 c 0,23,24
 738 -84.037 738 -84.037 738 48 c 0,25,26
 738 193.342 738 193.342 649.5 274 c 0,27,28
 572.694 344 572.694 344 478.722 344 c 128,-1,29
 384.75 344 384.75 344 323 325 c 1,30,31
 299 361.8 299 361.8 299 388.4 c 0,32,33
 299 421 299 421 301 427 c 1,34,35
 514.863 490.704 514.863 490.704 603 635.5 c 0,36,37
 638 693 638 693 638 750.5 c 128,-1,38
 638 808 638 808 625.5 844 c 128,-1,39
 613 880 613 880 588 907.5 c 0,40,41
 533 968 533 968 442 968 c 0,42,43
 352.471 968 352.471 968 289.235 934 c 128,-1,44
 226 900 226 900 198 874 c 1,45,46
 137.162 899.051 137.162 899.051 132 961 c 1,47,48
 214.062 1033.29 214.062 1033.29 342 1074 c 0,49,50
 408 1095 408 1095 490.5 1095 c 128,-1,51
 573 1095 573 1095 637.5 1072 c 128,-1,52
 702 1049 702 1049 747 1008 c 0,53,54
 840 923.267 840 923.267 840 789 c 0,0,1
EndSplineSet
EndChar

StartChar: four
Encoding: 52 52 64
Width: 1193
Flags: HW
LayerCount: 2
Fore
SplineSet
1135 146 m 1,0,1
 1138.49 48.1709 1138.49 48.1709 1112 0 c 1,2,-1
 885 0 l 1,3,-1
 885 -337 l 1,4,5
 867 -353 867 -353 844 -364 c 0,6,7
 790.812 -389.438 790.812 -389.438 716 -393 c 1,8,-1
 716 0 l 1,9,-1
 130 0 l 1,10,11
 87.9067 53.5733 87.9067 53.5733 83 110 c 1,12,13
 231.941 256.182 231.941 256.182 415.5 555.5 c 1,14,15
 608.959 886.253 608.959 886.253 720 1126 c 1,16,17
 819.243 1083.82 819.243 1083.82 899 1011 c 1,18,19
 867 955 867 955 817.5 877.5 c 1,20,21
 669.642 653.678 669.642 653.678 593.821 548.339 c 1,22,23
 337.323 199.089 337.323 199.089 242 99 c 1,24,-1
 716 113 l 1,25,-1
 716 511 l 1,26,27
 766.921 545.719 766.921 545.719 885 580 c 1,28,-1
 885 117 l 1,29,30
 1028.31 126.346 1028.31 126.346 1135 146 c 1,0,1
EndSplineSet
EndChar

StartChar: five
Encoding: 53 53 65
Width: 1024
Flags: HW
LayerCount: 2
Fore
SplineSet
238 492 m 1,0,1
 394.75 530 394.75 530 526 530 c 256,2,3
 698.806 530 698.806 530 821 421.5 c 0,4,5
 947 309.621 947 309.621 947 145 c 0,6,7
 947 -104.676 947 -104.676 763.5 -248.5 c 0,8,9
 599.552 -377 599.552 -377 367 -377 c 0,10,11
 235.192 -377 235.192 -377 145 -310 c 1,12,13
 104 -281 104 -281 76 -243 c 1,14,15
 80.9106 -157.065 80.9106 -157.065 158 -101 c 1,16,17
 289.042 -271 289.042 -271 459 -271 c 0,18,19
 584.915 -271 584.915 -271 665.5 -170 c 0,20,21
 745 -70.36 745 -70.36 745 84 c 0,22,23
 745 316.654 745 316.654 549 384.5 c 0,24,25
 484 407 484 407 398 407 c 128,-1,26
 312 407 312 407 172 379 c 1,27,28
 142.256 391.393 142.256 391.393 132 429 c 1,29,-1
 212 1048 l 1,30,31
 513 1034 513 1034 617 1034 c 128,-1,32
 721 1034 721 1034 749.5 1035.5 c 128,-1,33
 778 1037 778 1037 794.5 1041 c 0,34,35
 820.581 1047.32 820.581 1047.32 825 1065 c 2,36,-1
 846 1133 l 1,37,-1
 870 1133 l 2,38,39
 905.143 1133 905.143 1133 924 1121 c 1,40,-1
 879 872 l 1,41,42
 849 867 849 867 699.071 867 c 128,-1,43
 549.143 867 549.143 867 306 890 c 1,44,-1
 238 492 l 1,0,1
EndSplineSet
EndChar

StartChar: six
Encoding: 54 54 66
Width: 1196
Flags: HW
LayerCount: 2
Fore
SplineSet
407 573 m 1,0,1
 363.682 573 363.682 573 353 620 c 1,2,3
 400.094 700.732 400.094 700.732 497.5 765 c 0,4,5
 608.141 838 608.141 838 708.07 838 c 128,-1,6
 808 838 808 838 876.5 809.5 c 128,-1,7
 945 781 945 781 993 730.5 c 0,8,9
 1091 627.396 1091 627.396 1091 457 c 0,10,11
 1091 258.344 1091 258.344 952.5 113.5 c 0,12,13
 809.547 -36 809.547 -36 593 -36 c 0,14,15
 375.458 -36 375.458 -36 240.5 122 c 0,16,17
 114 270.098 114 270.098 114 485 c 0,18,19
 114 825.08 114 825.08 366 1067 c 0,20,21
 581.999 1274.36 581.999 1274.36 883 1342 c 1,22,23
 914.585 1294.62 914.585 1294.62 901 1243 c 1,24,25
 664.449 1179.45 664.449 1179.45 501 1016 c 0,26,27
 302 817 302 817 302 516 c 0,28,29
 302 307.915 302 307.915 403 186.5 c 0,30,31
 498.248 72 498.248 72 647 72 c 0,32,33
 770.071 72 770.071 72 852 165 c 0,34,35
 928 251.27 928 251.27 928 377 c 0,36,37
 928 531.429 928 531.429 845.5 615 c 0,38,39
 769.487 692 769.487 692 638.819 692 c 128,-1,40
 508.15 692 508.15 692 407 573 c 1,0,1
EndSplineSet
EndChar

StartChar: seven
Encoding: 55 55 67
Width: 1196
Flags: HW
LayerCount: 2
Fore
SplineSet
316 -315 m 1,0,1
 559.5 197.5 l 1,2,3
 814.774 700.902 814.774 700.902 934 917 c 1,4,5
 477.881 908.553 477.881 908.553 396.941 899.777 c 128,-1,6
 316 891 316 891 295 884.5 c 0,7,8
 265.619 875.406 265.619 875.406 261 850 c 2,9,-1
 230 706 l 1,10,11
 206.667 699 206.667 699 187.833 699 c 128,-1,12
 169 699 169 699 152 701 c 1,13,-1
 115 1048 l 1,14,-1
 1077 1048 l 1,15,16
 1084 1035 1084 1035 1089 1026.5 c 128,-1,17
 1094 1018 1094 1018 1097 1009.5 c 0,18,19
 1102 995.333 1102 995.333 1102 961 c 1,20,21
 1000 791 1000 791 924.5 641 c 1,22,-1
 798.5 383.5 l 1,23,24
 748 276 748 276 696.5 153.5 c 1,25,-1
 593 -105.5 l 1,26,27
 541 -242 541 -242 493 -389 c 1,28,29
 437.067 -387.196 437.067 -387.196 389.533 -364.598 c 128,-1,30
 342 -342 342 -342 316 -315 c 1,0,1
EndSplineSet
EndChar

StartChar: nine
Encoding: 57 57 68
Width: 1196
Flags: HW
LayerCount: 2
Fore
SplineSet
294 -278 m 1,0,1
 534.2 -208.377 534.2 -208.377 702 -21 c 0,2,3
 903 203.45 903 203.45 903 544 c 0,4,5
 903 753.337 903 753.337 801.5 873 c 0,6,7
 704.804 987 704.804 987 553 987 c 0,8,9
 432.714 987 432.714 987 353 894 c 0,10,11
 277 805.333 277 805.333 277 697.667 c 128,-1,12
 277 590 277 590 299 522 c 128,-1,13
 321 454 321 454 360.5 409.5 c 0,14,15
 439.056 321 439.056 321 575 321 c 0,16,17
 681.441 321 681.441 321 752.5 428.5 c 0,18,19
 772 458 772 458 789 488 c 1,20,21
 832.091 488 832.091 488 843 440 c 1,22,23
 793.774 339.204 793.774 339.204 707 264 c 0,24,25
 604.308 175 604.308 175 506.154 175 c 128,-1,26
 408 175 408 175 338 206.5 c 128,-1,27
 268 238 268 238 217.5 295 c 0,28,29
 112 414.079 112 414.079 112 603 c 0,30,31
 112 802.788 112 802.788 251 946 c 0,32,33
 395.618 1095 395.618 1095 607 1095 c 0,34,35
 841.736 1095 841.736 1095 974.5 937 c 0,36,37
 1094 794.785 1094 794.785 1094 575 c 0,38,39
 1094 197.235 1094 197.235 837.5 -71 c 0,40,41
 611.775 -307.053 611.775 -307.053 312 -377 c 1,42,43
 280.743 -328.378 280.743 -328.378 294 -278 c 1,0,1
EndSplineSet
EndChar

StartChar: eight
Encoding: 56 56 69
Width: 1196
Flags: HW
LayerCount: 2
Fore
SplineSet
132 313 m 0,0,1
 132 535.098 132 535.098 422 711 c 1,2,3
 296.461 784.428 296.461 784.428 251.231 836.214 c 0,4,5
 166 933.797 166 933.797 166 1026.9 c 128,-1,6
 166 1120 166 1120 201 1187.5 c 128,-1,7
 236 1255 236 1255 296.5 1302 c 0,8,9
 422.649 1400 422.649 1400 615 1400 c 0,10,11
 797.145 1400 797.145 1400 904 1309.5 c 0,12,13
 1002 1226.5 1002 1226.5 1002 1095 c 0,14,15
 1002 956.942 1002 956.942 828.5 820.5 c 0,16,17
 777 780 777 780 719 742 c 1,18,19
 879.851 656.548 879.851 656.548 941.926 598.274 c 128,-1,20
 1004 540 1004 540 1034 484.5 c 128,-1,21
 1064 429 1064 429 1064 345 c 128,-1,22
 1064 261 1064 261 1027 187 c 128,-1,23
 990 113 990 113 924 63.5 c 0,24,25
 791.333 -36 791.333 -36 573 -36 c 0,26,27
 367.333 -36 367.333 -36 246 68 c 0,28,29
 132 165.714 132 165.714 132 313 c 0,0,1
620 793 m 1,30,31
 783.761 896.428 783.761 896.428 812 999.5 c 0,32,33
 822 1036 822 1036 822 1079.5 c 128,-1,34
 822 1123 822 1123 804.5 1162 c 128,-1,35
 787 1201 787 1201 755 1230 c 0,36,37
 685.483 1293 685.483 1293 575 1293 c 0,38,39
 396.8 1293 396.8 1293 341.5 1174.5 c 0,40,41
 324 1137 324 1137 324 1089.5 c 128,-1,42
 324 1042 324 1042 349 1000 c 128,-1,43
 374 958 374 958 415 922 c 0,44,45
 475.004 869.314 475.004 869.314 620 793 c 1,30,31
512 659 m 1,46,47
 317 537.585 317 537.585 317 332 c 0,48,49
 317 223.514 317 223.514 390 151.5 c 0,50,51
 472.616 70 472.616 70 615 70 c 0,52,53
 726.164 70 726.164 70 806.5 130.5 c 0,54,55
 899 200.16 899 200.16 899 321 c 0,56,57
 899 443.636 899 443.636 660 578.5 c 1,58,-1
 512 659 l 1,46,47
EndSplineSet
EndChar

StartChar: slash
Encoding: 47 47 70
Width: 856
Flags: HW
LayerCount: 2
Fore
SplineSet
670 1607 m 1,0,1
 706 1607 706 1607 735 1592.5 c 128,-1,2
 764 1578 764 1578 772 1571 c 1,3,-1
 183 -162 l 1,4,5
 145.2 -162 145.2 -162 84 -128 c 1,6,-1
 670 1607 l 1,0,1
EndSplineSet
EndChar

StartChar: plus
Encoding: 43 43 71
Width: 1194
Flags: HW
LayerCount: 2
Fore
SplineSet
1042 579.5 m 128,-1,1
 1042 565.75 1042 565.75 1033 532 c 1,2,-1
 649 532 l 1,3,-1
 649 139 l 1,4,5
 620 131 620 131 598 131 c 128,-1,6
 576 131 576 131 546 139 c 1,7,-1
 546 532 l 1,8,-1
 161 532 l 1,9,10
 144 579 144 579 161 627 c 1,11,-1
 546 627 l 1,12,-1
 546 1011 l 1,13,14
 569 1019 569 1019 597.5 1019 c 128,-1,15
 626 1019 626 1019 649 1011 c 1,16,-1
 649 627 l 1,17,-1
 1033 627 l 1,18,0
 1042 593.25 1042 593.25 1042 579.5 c 128,-1,1
EndSplineSet
EndChar

StartChar: hyphen
Encoding: 45 45 72
Width: 650
Flags: HW
LayerCount: 2
Fore
SplineSet
94 506 m 1,0,1
 73.2174 568.348 73.2174 568.348 108 624 c 1,2,-1
 555 624 l 1,3,4
 568.76 566.209 568.76 566.209 542 506 c 1,5,-1
 94 506 l 1,0,1
EndSplineSet
EndChar

StartChar: endash
Encoding: 8211 8211 73
Width: 1196
Flags: HW
LayerCount: 2
Fore
SplineSet
1042 579.5 m 128,-1,1
 1042 562 1042 562 1034 532 c 1,2,-1
 162 532 l 1,3,4
 145 579 145 579 162 627 c 1,5,-1
 1034 627 l 1,6,0
 1042 597 1042 597 1042 579.5 c 128,-1,1
EndSplineSet
EndChar

StartChar: emdash
Encoding: 8212 8212 74
Width: 1703
Flags: HW
LayerCount: 2
Fore
SplineSet
1554 579.5 m 128,-1,1
 1554 565.75 1554 565.75 1545 532 c 1,2,-1
 158 532 l 1,3,4
 141 579 141 579 158 627 c 1,5,-1
 1545 627 l 1,6,0
 1554 593.25 1554 593.25 1554 579.5 c 128,-1,1
EndSplineSet
EndChar

StartChar: oe
Encoding: 339 339 75
Width: 2043
Flags: HW
LayerCount: 2
Fore
SplineSet
1830 227 m 1,0,1
 1880.62 206.75 1880.62 206.75 1886 153 c 1,2,3
 1732.68 7.75264 1732.68 7.75264 1578.5 -28 c 0,4,5
 1544 -36 1544 -36 1489.5 -36 c 128,-1,6
 1435 -36 1435 -36 1369 -16 c 128,-1,7
 1303 4 1303 4 1248.5 41 c 0,8,9
 1137.18 116.573 1137.18 116.573 1083 243 c 1,10,11
 973.837 43.3869 973.837 43.3869 765 -16.5 c 0,12,13
 697 -36 697 -36 605.5 -36 c 128,-1,14
 514 -36 514 -36 423.5 5 c 128,-1,15
 333 46 333 46 268.5 117 c 0,16,17
 134 265.054 134 265.054 134 485 c 0,18,19
 134 637.8 134 637.8 208 771 c 0,20,21
 315.744 964.938 315.744 964.938 527 1028 c 0,22,23
 594 1048 594 1048 666 1048 c 256,24,25
 813.055 1048 813.055 1048 934.5 973.5 c 0,26,27
 1060.68 896.095 1060.68 896.095 1110 758 c 1,28,29
 1178.26 890.508 1178.26 890.508 1296 969 c 0,30,31
 1414.5 1048 1414.5 1048 1552 1048 c 0,32,33
 1724.28 1048 1724.28 1048 1820 924 c 0,34,35
 1908 810 1908 810 1908 638 c 0,36,37
 1908 589 1908 589 1899 553 c 1,38,39
 1885.36 528 1885.36 528 1486 528 c 0,40,41
 1380 528 1380 528 1315 529.5 c 2,42,-1
 1205 532 l 1,43,44
 1206.87 341.584 1206.87 341.584 1328.5 224.5 c 0,45,46
 1437.06 120 1437.06 120 1572.9 120 c 128,-1,47
 1708.73 120 1708.73 120 1830 227 c 1,0,1
1288 624 m 2,48,49
 1593 624 1593 624 1726 643 c 1,50,51
 1726 749.623 1726 749.623 1661.5 839.5 c 0,52,53
 1591.53 937 1591.53 937 1495 937 c 0,54,55
 1390.49 937 1390.49 937 1312.5 858 c 0,56,57
 1228.14 772.544 1228.14 772.544 1211 624 c 1,58,-1
 1288 624 l 2,48,49
335 720.5 m 128,-1,60
 313 647 313 647 313 545.5 c 128,-1,61
 313 444 313 444 345 358 c 128,-1,62
 377 272 377 272 428 209 c 0,63,64
 535.667 76 535.667 76 669 76 c 0,65,66
 888.39 76 888.39 76 952.5 284 c 0,67,68
 975 357 975 357 975 462 c 128,-1,69
 975 567 975 567 942.5 655 c 128,-1,70
 910 743 910 743 859.5 805.5 c 128,-1,71
 809 868 809 868 747.5 902.5 c 128,-1,72
 686 937 686 937 620.5 937 c 128,-1,73
 555 937 555 937 496.5 913.5 c 128,-1,74
 438 890 438 890 397.5 842 c 128,-1,59
 357 794 357 794 335 720.5 c 128,-1,60
EndSplineSet
EndChar

StartChar: grave
Encoding: 96 96 76
Width: 537
Flags: HW
LayerCount: 2
Fore
SplineSet
267 1180 m 1,0,1
 69.8737 1300.69 69.8737 1300.69 -49 1479 c 1,2,3
 -8.56044 1563.92 -8.56044 1563.92 81 1589 c 1,4,5
 147.918 1466.8 147.918 1466.8 274.5 1332 c 0,6,7
 313 1291 313 1291 352 1256 c 1,8,9
 327.729 1190.12 327.729 1190.12 267 1180 c 1,0,1
EndSplineSet
EndChar

StartChar: acute
Encoding: 180 180 77
Width: 537
Flags: HW
LayerCount: 2
Fore
SplineSet
268 1180 m 1,0,1
 207.271 1190.12 207.271 1190.12 183 1256 c 1,2,3
 357.306 1412.43 357.306 1412.43 454 1589 c 1,4,5
 543.56 1563.92 543.56 1563.92 584 1479 c 1,6,7
 502.527 1356.79 502.527 1356.79 362.5 1246 c 0,8,9
 317 1210 317 1210 268 1180 c 1,0,1
EndSplineSet
EndChar

StartChar: dotlessi
Encoding: 305 305 80
Width: 682
Flags: HW
LayerCount: 2
Fore
SplineSet
140 85 m 1,0,-1
 272 128 l 1,1,-1
 272 789 l 1,2,-1
 133 848 l 1,3,-1
 122 860 l 1,4,-1
 133 914 l 1,5,-1
 415 1029 l 1,6,-1
 432 1020 l 1,7,-1
 432 128 l 1,8,-1
 592 94 l 1,9,-1
 596 80 l 1,10,-1
 585 0 l 1,11,-1
 137 0 l 1,12,-1
 130 9 l 1,13,-1
 140 85 l 1,0,-1
EndSplineSet
EndChar

StartChar: circumflex
Encoding: 710 710 97
Width: 860
Flags: HW
LayerCount: 2
Fore
SplineSet
149 1180 m 1,0,1
 119.591 1190.69 119.591 1190.69 105.795 1211.85 c 128,-1,2
 92 1233 92 1233 82 1251 c 1,3,4
 96 1263 96 1263 122.5 1292 c 0,5,6
 199.909 1380.18 199.909 1380.18 237.955 1427.59 c 2,7,-1
 352 1572 l 2,8,9
 372 1598 372 1598 377 1606 c 1,10,11
 447 1621 447 1621 518 1606 c 1,12,13
 526 1592 526 1592 548.5 1562 c 0,14,15
 780.957 1266.72 780.957 1266.72 797 1248 c 1,16,17
 780.25 1206.13 780.25 1206.13 751 1191.5 c 0,18,19
 740 1186 740 1186 724 1180 c 1,20,21
 664.984 1222.42 664.984 1222.42 606.992 1286.21 c 1,22,23
 498.906 1408.47 498.906 1408.47 462 1455 c 1,24,-1
 437 1455 l 1,25,26
 413 1427 413 1427 376.5 1388 c 2,27,-1
 300 1309 l 1,28,29
 205.833 1214.83 205.833 1214.83 149 1180 c 1,0,1
EndSplineSet
EndChar

StartChar: caron
Encoding: 711 711 107
Width: 860
Flags: HW
LayerCount: 2
Fore
SplineSet
358 1187 m 1,0,1
 350 1201 350 1201 332.5 1226 c 0,2,3
 227.564 1369.84 227.564 1369.84 195.782 1409.42 c 2,4,5
 140 1478 l 2,6,7
 116 1507 116 1507 97 1526 c 1,8,9
 116 1561 116 1561 131 1574.5 c 128,-1,10
 146 1588 146 1588 167 1597 c 1,11,12
 244.423 1544.55 244.423 1544.55 362 1401.5 c 1,13,14
 416 1337 l 1,15,-1
 443 1337 l 1,16,17
 565.125 1483.32 565.125 1483.32 614.063 1530.16 c 128,-1,18
 663 1577 663 1577 695 1600 c 1,19,20
 739.576 1580.5 739.576 1580.5 750.788 1563.25 c 128,-1,21
 762 1546 762 1546 768 1531 c 1,22,23
 518.44 1221.02 518.44 1221.02 499 1187 c 1,24,25
 464 1180 464 1180 425.5 1180 c 128,-1,26
 387 1180 387 1180 358 1187 c 1,0,1
EndSplineSet
EndChar

StartChar: plusminus
Encoding: 177 177 108
Width: 1194
Flags: HW
LayerCount: 2
Fore
SplineSet
1044 723 m 128,-1,1
 1044 706 1044 706 1034 676 c 1,2,-1
 651 676 l 1,3,-1
 651 330 l 1,4,5
 621 320 621 320 599 320 c 128,-1,6
 577 320 577 320 546 330 c 1,7,-1
 546 676 l 1,8,-1
 163 676 l 1,9,10
 145 722 145 722 163 770 c 1,11,-1
 546 770 l 1,12,-1
 546 1155 l 1,13,14
 569 1163 569 1163 598.5 1163 c 128,-1,15
 628 1163 628 1163 651 1155 c 1,16,-1
 651 770 l 1,17,-1
 1034 770 l 1,18,0
 1044 740 1044 740 1044 723 c 128,-1,1
1039 188.5 m 128,-1,20
 1039 171 1039 171 1029 141 c 1,21,-1
 159 141 l 1,22,23
 139 188 139 188 159 236 c 1,24,-1
 1029 236 l 1,25,19
 1039 206 1039 206 1039 188.5 c 128,-1,20
EndSplineSet
EndChar

StartChar: dieresis
Encoding: 168 168 109
Width: 784
Flags: HW
LayerCount: 2
Fore
SplineSet
647.5 1219.5 m 128,-1,1
 625 1208 625 1208 602.5 1208 c 128,-1,2
 580 1208 580 1208 558.5 1217.5 c 128,-1,3
 537 1227 537 1227 519.5 1242.5 c 0,4,5
 479 1278.37 479 1278.37 479 1311.19 c 128,-1,6
 479 1344 479 1344 488 1366 c 128,-1,7
 497 1388 497 1388 513 1406 c 0,8,9
 548.556 1446 548.556 1446 597 1446 c 0,10,11
 641.516 1446 641.516 1446 670.758 1421.5 c 0,12,13
 724 1376.89 724 1376.89 724 1333 c 0,14,15
 724 1288.18 724 1288.18 697 1259.59 c 128,-1,0
 670 1231 670 1231 647.5 1219.5 c 128,-1,1
228 1219.5 m 128,-1,17
 205 1208 205 1208 182.5 1208 c 128,-1,18
 160 1208 160 1208 138.5 1217.5 c 128,-1,19
 117 1227 117 1227 99.5 1242.5 c 0,20,21
 60 1277.49 60 1277.49 60 1310.74 c 128,-1,22
 60 1344 60 1344 69 1366 c 128,-1,23
 78 1388 78 1388 94 1406 c 0,24,25
 129.556 1446 129.556 1446 178 1446 c 0,26,27
 222.516 1446 222.516 1446 251.758 1421.5 c 0,28,29
 305 1376.89 305 1376.89 305 1333 c 0,30,31
 305 1288.18 305 1288.18 278 1259.59 c 128,-1,16
 251 1231 251 1231 228 1219.5 c 128,-1,17
EndSplineSet
EndChar

StartChar: tilde
Encoding: 732 732 120
Width: 879
Flags: HW
LayerCount: 2
Fore
SplineSet
555 1386 m 256,0,1
 623 1386 623 1386 735 1498 c 1,2,3
 771.667 1479.67 771.667 1479.67 786.833 1456.33 c 128,-1,4
 802 1433 802 1433 803 1424 c 1,5,6
 643.769 1240 643.769 1240 546 1240 c 0,7,8
 500.059 1240 500.059 1240 450.029 1271.5 c 128,-1,9
 400 1303 400 1303 374 1317.5 c 128,-1,10
 348 1332 348 1332 320.5 1332 c 0,11,12
 245.161 1332 245.161 1332 144 1220 c 1,13,14
 106.313 1240.94 106.313 1240.94 91.6563 1263.97 c 128,-1,15
 77 1287 77 1287 76 1296 c 1,16,17
 194.353 1433.18 194.353 1433.18 291 1470 c 0,18,19
 312 1478 312 1478 339 1478 c 128,-1,20
 366 1478 366 1478 394.5 1463.5 c 128,-1,21
 423 1449 423 1449 449 1432 c 128,-1,22
 475 1415 475 1415 500.5 1400.5 c 128,-1,23
 526 1386 526 1386 555 1386 c 256,0,1
EndSplineSet
EndChar

StartChar: n
Encoding: 110 110 127
Width: 1365
Flags: HW
LayerCount: 2
Fore
SplineSet
739 897 m 0,0,1
 599.667 897 599.667 897 431 820 c 1,2,-1
 431 128 l 1,3,-1
 591 94 l 1,4,-1
 595 80 l 1,5,-1
 584 0 l 1,6,-1
 136 0 l 1,7,-1
 129 9 l 1,8,-1
 139 85 l 1,9,-1
 271 128 l 1,10,-1
 271 796 l 1,11,-1
 132 857 l 1,12,-1
 122 869 l 1,13,-1
 132 923 l 1,14,-1
 395 1029 l 1,15,-1
 412 1020 l 1,16,-1
 412 897 l 1,17,18
 642.095 1048 642.095 1048 788 1048 c 0,19,20
 937.818 1048 937.818 1048 1022.5 956 c 0,21,22
 1105 866.37 1105 866.37 1105 706 c 2,23,-1
 1105 128 l 1,24,-1
 1278 94 l 1,25,-1
 1283 80 l 1,26,-1
 1271 0 l 1,27,-1
 795 0 l 1,28,-1
 791 9 l 1,29,-1
 800 85 l 1,30,-1
 944 128 l 1,31,-1
 944 659 l 2,32,33
 944 897 944 897 739 897 c 0,0,1
EndSplineSet
EndChar

StartChar: germandbls
Encoding: 223 223 128
Width: 1196
Flags: HW
LayerCount: 2
Fore
SplineSet
511 40 m 1,0,1
 518.074 131.957 518.074 131.957 584 193 c 1,2,3
 669.342 111.072 669.342 111.072 774 82 c 0,4,5
 810 72 810 72 842.5 72 c 128,-1,6
 875 72 875 72 903 80.5 c 128,-1,7
 931 89 931 89 952 106.5 c 0,8,9
 998 144.833 998 144.833 998 204.917 c 128,-1,10
 998 265 998 265 978.5 300.5 c 128,-1,11
 959 336 959 336 927.5 364.5 c 128,-1,12
 896 393 896 393 855 416 c 2,13,-1
 772 462.5 l 2,14,15
 663.156 523.401 663.156 523.401 624.078 566.201 c 0,16,17
 546 651.714 546 651.714 546 763 c 0,18,19
 546 852.455 546 852.455 589 915 c 0,20,21
 611 947 611 947 644 978 c 2,22,-1
 721 1048 l 1,23,24
 834 1154.35 834 1154.35 834 1341 c 0,25,26
 834 1476.37 834 1476.37 683.5 1523.5 c 0,27,28
 634 1539 634 1539 574 1539 c 128,-1,29
 514 1539 514 1539 476.5 1527 c 128,-1,30
 439 1515 439 1515 417 1483.5 c 0,31,32
 377 1426.23 377 1426.23 377 1254 c 2,33,-1
 377 0 l 1,34,-1
 83 0 l 1,35,-1
 76 9 l 1,36,-1
 85 85 l 1,37,-1
 216 128 l 1,38,-1
 216 1181 l 2,39,40
 216 1386.28 216 1386.28 323 1516.5 c 0,41,42
 437.628 1656 437.628 1656 636 1656 c 0,43,44
 799.929 1656 799.929 1656 904 1563 c 0,45,46
 1000 1477.21 1000 1477.21 1000 1353 c 0,47,48
 1000 1206.95 1000 1206.95 893.5 1079.5 c 0,49,50
 863 1043 863 1043 831 1010 c 1,51,52
 752.885 940.564 752.885 940.564 733.942 912.782 c 0,53,54
 701 864.467 701 864.467 701 813.233 c 128,-1,55
 701 762 701 762 720.5 726.5 c 128,-1,56
 740 691 740 691 772 663 c 128,-1,57
 804 635 804 635 844.5 611.5 c 2,58,-1
 928 564 l 2,59,60
 1033.72 504.993 1033.72 504.993 1074.86 459.997 c 0,61,62
 1155 372.344 1155 372.344 1155 259 c 0,63,64
 1155 127.454 1155 127.454 1050.5 44.5 c 0,65,66
 949.091 -36 949.091 -36 782.522 -36 c 128,-1,67
 615.952 -36 615.952 -36 511 40 c 1,0,1
EndSplineSet
EndChar

StartChar: cedilla
Encoding: 184 184 129
Width: 562
Flags: HW
LayerCount: 2
Fore
SplineSet
165 -218 m 1,0,1
 139.562 -204.125 139.562 -204.125 119 -163 c 1,2,-1
 196 17 l 1,3,-1
 342 3 l 1,4,-1
 299 -121 l 1,5,6
 348.333 -103.381 348.333 -103.381 385 -106 c 0,7,8
 458 -111 458 -111 495.5 -160.5 c 128,-1,9
 533 -210 533 -210 529 -276 c 128,-1,10
 525 -342 525 -342 491.5 -385.5 c 128,-1,11
 458 -429 458 -429 406.5 -461.5 c 0,12,13
 297.954 -530 297.954 -530 157 -530 c 1,14,15
 146 -517.167 146 -517.167 145.5 -489.083 c 128,-1,16
 145 -461 145 -461 147 -442 c 1,17,18
 246 -438 246 -438 302.5 -398.5 c 0,19,20
 379.651 -344.562 379.651 -344.562 359.5 -255 c 0,21,22
 343.975 -186 343.975 -186 271.63 -186 c 128,-1,23
 199.286 -186 199.286 -186 165 -218 c 1,0,1
EndSplineSet
EndChar

StartChar: Ccedilla
Encoding: 199 199 130
Width: 1537
Flags: HW
LayerCount: 2
Fore
SplineSet
703 -218 m 1,0,1
 677.562 -204.125 677.562 -204.125 657 -163 c 1,2,-1
 713 -32 l 1,3,4
 425.023 -4.75891 425.023 -4.75891 247 208 c 0,5,6
 78 409.976 78 409.976 78 695 c 0,7,8
 78 867 78 867 134.5 1015.5 c 128,-1,9
 191 1164 191 1164 293 1273.5 c 128,-1,10
 395 1383 395 1383 537.5 1445.5 c 128,-1,11
 680 1508 680 1508 823 1508 c 0,12,13
 1141.2 1508 1141.2 1508 1350 1400 c 1,14,-1
 1276 1081 l 1,15,16
 1219.8 1081 1219.8 1081 1189 1092 c 1,17,18
 1189 1220 1189 1220 1178 1275 c 1,19,20
 1107.45 1326.48 1107.45 1326.48 990.223 1348.74 c 128,-1,21
 873 1371 873 1371 767.5 1371 c 128,-1,22
 662 1371 662 1371 575.5 1332 c 128,-1,23
 489 1293 489 1293 424 1217 c 0,24,25
 283 1052.14 283 1052.14 283 776 c 0,26,27
 283 447.513 283 447.513 461 259.5 c 0,28,29
 619.58 92 619.58 92 852 92 c 0,30,31
 1047.87 92 1047.87 92 1196 204 c 1,32,33
 1209.38 249.484 1209.38 249.484 1213 398 c 1,34,35
 1227 403 1227 403 1242 405.5 c 2,36,-1
 1269 410 l 2,37,38
 1283 412 1283 412 1297 412 c 1,39,-1
 1352 99 l 1,40,41
 1250.22 37.9306 1250.22 37.9306 1116.11 4.9653 c 128,-1,42
 982 -28 982 -28 867 -34 c 1,43,-1
 837 -121 l 1,44,45
 886.333 -103.381 886.333 -103.381 923 -106 c 0,46,47
 996 -111 996 -111 1033.5 -160.5 c 128,-1,48
 1071 -210 1071 -210 1067 -276 c 128,-1,49
 1063 -342 1063 -342 1029.5 -385.5 c 128,-1,50
 996 -429 996 -429 944.5 -461.5 c 0,51,52
 835.954 -530 835.954 -530 695 -530 c 1,53,54
 684 -517.167 684 -517.167 683.5 -489.083 c 128,-1,55
 683 -461 683 -461 685 -442 c 1,56,57
 784 -438 784 -438 840.5 -398.5 c 0,58,59
 917.651 -344.562 917.651 -344.562 897.5 -255 c 0,60,61
 881.975 -186 881.975 -186 809.63 -186 c 128,-1,62
 737.286 -186 737.286 -186 703 -218 c 1,0,1
EndSplineSet
EndChar

StartChar: colon
Encoding: 58 58 131
Width: 512
Flags: HW
LayerCount: 2
Fore
SplineSet
301 656.5 m 128,-1,1
 278 645 278 645 255.5 645 c 128,-1,2
 233 645 233 645 211.5 654.5 c 128,-1,3
 190 664 190 664 172.5 680 c 0,4,5
 133 716.114 133 716.114 133 749.057 c 128,-1,6
 133 782 133 782 142 804 c 128,-1,7
 151 826 151 826 167 843.5 c 0,8,9
 203.114 883 203.114 883 237.057 883 c 128,-1,10
 271 883 271 883 294 874 c 128,-1,11
 317 865 317 865 335.5 849.5 c 0,12,13
 378 813.892 378 813.892 378 781.446 c 128,-1,14
 378 749 378 749 368 727 c 128,-1,15
 358 705 358 705 341 686.5 c 128,-1,0
 324 668 324 668 301 656.5 c 128,-1,1
144 50 m 128,-1,17
 133 71 133 71 133 93 c 128,-1,18
 133 115 133 115 142 137 c 128,-1,19
 151 159 151 159 167 176.5 c 0,20,21
 203.114 216 203.114 216 237.057 216 c 128,-1,22
 271 216 271 216 294 207 c 128,-1,23
 317 198 317 198 335.5 182.5 c 0,24,25
 378 146.892 378 146.892 378 114.446 c 128,-1,26
 378 82 378 82 368 60 c 128,-1,27
 358 38 358 38 341 20 c 0,28,29
 302.278 -21 302.278 -21 253 -21 c 0,30,31
 211.452 -21 211.452 -21 183.226 4 c 128,-1,16
 155 29 155 29 144 50 c 128,-1,17
EndSplineSet
EndChar

StartChar: asciicircum
Encoding: 94 94 132
Width: 1196
Flags: HW
LayerCount: 2
Fore
SplineSet
539 1171 m 1,0,1
 584.974 1220.81 584.974 1220.81 644 1209 c 1,2,-1
 1114 174 l 1,3,4
 1083.63 87.9468 1083.63 87.9468 1028 80 c 0,5,6
 1003 76 1003 76 978 88 c 1,7,-1
 596 929 l 1,8,-1
 205 88 l 1,9,10
 139.154 101.169 139.154 101.169 99 144 c 0,11,12
 81 162 81 162 72 183 c 1,13,-1
 539 1171 l 1,0,1
EndSplineSet
EndChar

StartChar: semicolon
Encoding: 59 59 133
Width: 512
Flags: HW
LayerCount: 2
Fore
SplineSet
301 656.5 m 128,-1,1
 278 645 278 645 255.5 645 c 128,-1,2
 233 645 233 645 211.5 654.5 c 128,-1,3
 190 664 190 664 172.5 680 c 0,4,5
 133 716.114 133 716.114 133 749.057 c 128,-1,6
 133 782 133 782 142 804 c 128,-1,7
 151 826 151 826 167 843.5 c 0,8,9
 203.114 883 203.114 883 237.057 883 c 128,-1,10
 271 883 271 883 294 874 c 128,-1,11
 317 865 317 865 335.5 849.5 c 0,12,13
 378 813.892 378 813.892 378 781.446 c 128,-1,14
 378 749 378 749 368 727 c 128,-1,15
 358 705 358 705 341 686.5 c 128,-1,0
 324 668 324 668 301 656.5 c 128,-1,1
158.5 48.5 m 2,16,17
 145 65 145 65 145 89 c 128,-1,18
 145 113 145 113 156 134.5 c 128,-1,19
 167 156 167 156 184 174 c 0,20,21
 223.667 216 223.667 216 255.833 216 c 128,-1,22
 288 216 288 216 311 203 c 128,-1,23
 334 190 334 190 351.5 169.5 c 0,24,25
 390 124.4 390 124.4 390 74.7 c 128,-1,26
 390 25 390 25 380.5 -20.5 c 128,-1,27
 371 -66 371 -66 355 -104.5 c 0,28,29
 294.211 -250.773 294.211 -250.773 167 -339 c 1,30,31
 125.804 -329.845 125.804 -329.845 122 -288 c 1,32,33
 124 -288 124 -288 141 -269 c 128,-1,34
 158 -250 158 -250 178 -221.5 c 0,35,36
 231 -145.975 231 -145.975 231 -99.9875 c 128,-1,37
 231 -54 231 -54 217.5 -29 c 128,-1,38
 204 -4 204 -4 188 14 c 2,39,-1
 158.5 48.5 l 2,16,17
EndSplineSet
EndChar

StartChar: equal
Encoding: 61 61 134
Width: 1194
Flags: HW
LayerCount: 2
Fore
SplineSet
1041 750 m 128,-1,1
 1041 733 1041 733 1033 703 c 1,2,-1
 161 703 l 1,3,4
 144 750 144 750 161 797 c 1,5,-1
 1033 797 l 1,6,0
 1041 767 1041 767 1041 750 c 128,-1,1
1033 451 m 1,7,8
 1041 421 1041 421 1041 404 c 128,-1,9
 1041 387 1041 387 1033 357 c 1,10,-1
 161 357 l 1,11,12
 144 403 144 403 161 451 c 1,13,-1
 1033 451 l 1,7,8
EndSplineSet
EndChar

StartChar: quotedbl
Encoding: 34 34 141
Width: 854
Flags: HW
LayerCount: 2
Fore
SplineSet
512 1493 m 1,0,1
 549 1508 549 1508 589.107 1508 c 128,-1,2
 629.214 1508 629.214 1508 681 1479 c 1,3,4
 681 1202.57 681 1202.57 647 1052 c 1,5,6
 621 1038 621 1038 602 1038 c 0,7,8
 565.143 1038 565.143 1038 533 1063 c 1,9,10
 524.564 1113.62 524.564 1113.62 522.282 1216.31 c 128,-1,11
 520 1319 520 1319 518.5 1360.5 c 0,12,13
 514.757 1464.05 514.757 1464.05 512 1493 c 1,0,1
312 1052 m 1,14,15
 287 1038 287 1038 268 1038 c 0,16,17
 230.357 1038 230.357 1038 200 1063 c 1,18,19
 196.5 1126 196.5 1126 192.75 1176 c 128,-1,20
 189 1226 189 1226 186.5 1270.5 c 2,21,-1
 181.5 1357 l 2,22,23
 177 1432.6 177 1432.6 177 1493 c 1,24,25
 216 1508 216 1508 256.5 1508 c 128,-1,26
 297 1508 297 1508 346 1479 c 1,27,28
 346 1273 346 1273 312 1052 c 1,14,15
EndSplineSet
EndChar

StartChar: divide
Encoding: 247 247 142
Width: 1194
Flags: HW
LayerCount: 2
Fore
SplineSet
633 807.5 m 128,-1,1
 610 796 610 796 587 796 c 128,-1,2
 564 796 564 796 542.5 805.5 c 128,-1,3
 521 815 521 815 504 831 c 0,4,5
 465 867.706 465 867.706 465 900.353 c 128,-1,6
 465 933 465 933 474 954.5 c 128,-1,7
 483 976 483 976 499 994 c 0,8,9
 534.556 1034 534.556 1034 568.778 1034 c 128,-1,10
 603 1034 603 1034 625.5 1025 c 128,-1,11
 648 1016 648 1016 667 1000.5 c 0,12,13
 710 965.421 710 965.421 710 932.711 c 128,-1,14
 710 900 710 900 700 878 c 128,-1,15
 690 856 690 856 673 837.5 c 128,-1,0
 656 819 656 819 633 807.5 c 128,-1,1
1041 579.5 m 128,-1,17
 1041 565.75 1041 565.75 1032 532 c 1,18,-1
 161 532 l 1,19,20
 142 579 142 579 161 627 c 1,21,-1
 1032 627 l 1,22,16
 1041 593.25 1041 593.25 1041 579.5 c 128,-1,17
476 201 m 128,-1,24
 465 222 465 222 465 244 c 128,-1,25
 465 266 465 266 474 287.5 c 128,-1,26
 483 309 483 309 499 327 c 0,27,28
 534.556 367 534.556 367 568.778 367 c 128,-1,29
 603 367 603 367 625.5 358 c 128,-1,30
 648 349 648 349 667 333.5 c 0,31,32
 710 298.421 710 298.421 710 265.711 c 128,-1,33
 710 233 710 233 700 211 c 128,-1,34
 690 189 690 189 673 171 c 0,35,36
 634.278 130 634.278 130 584 130 c 0,37,38
 541.839 130 541.839 130 514.419 155 c 128,-1,23
 487 180 487 180 476 201 c 128,-1,24
EndSplineSet
EndChar

StartChar: question
Encoding: 63 63 143
Width: 1023
Flags: HW
LayerCount: 2
Fore
SplineSet
475 581 m 128,-1,1
 464 543 464 543 464 480.5 c 128,-1,2
 464 418 464 418 483 342 c 1,3,4
 446.237 311.921 446.237 311.921 398 328 c 1,5,6
 346 459 346 459 346 539.5 c 128,-1,7
 346 620 346 620 364 670 c 128,-1,8
 382 720 382 720 413 762 c 0,9,10
 463.811 830.841 463.811 830.841 577 914 c 0,11,12
 647.061 965.515 647.061 965.515 671.53 1007.26 c 0,13,14
 714 1079.71 714 1079.71 714 1144.35 c 128,-1,15
 714 1209 714 1209 702.5 1250.5 c 128,-1,16
 691 1292 691 1292 667.5 1321 c 0,17,18
 618.069 1382 618.069 1382 540.034 1382 c 0,19,20
 421 1382 421 1382 313 1301 c 0,21,22
 266 1265 266 1265 229 1220 c 1,23,24
 155.933 1255.72 155.933 1255.72 127 1332 c 0,25,26
 114 1365 114 1365 112 1400 c 1,27,28
 188.562 1457.42 188.562 1457.42 282.281 1482.71 c 128,-1,29
 376 1508 376 1508 462.5 1508 c 128,-1,30
 549 1508 549 1508 628.5 1478 c 128,-1,31
 708 1448 708 1448 766 1394 c 0,32,33
 890 1278.55 890 1278.55 890 1095 c 0,34,35
 890 933.169 890 933.169 740.5 830.5 c 0,36,37
 699 802 699 802 653 773.5 c 128,-1,38
 607 745 607 745 570 715 c 128,-1,39
 533 685 533 685 509.5 652 c 128,-1,0
 486 619 486 619 475 581 c 128,-1,1
341 50 m 128,-1,41
 330 71 330 71 330 93 c 128,-1,42
 330 115 330 115 339 137 c 128,-1,43
 348 159 348 159 364 176.5 c 0,44,45
 400.114 216 400.114 216 434.057 216 c 128,-1,46
 468 216 468 216 490.5 207 c 128,-1,47
 513 198 513 198 532 182.5 c 0,48,49
 575 147.421 575 147.421 575 114.711 c 128,-1,50
 575 82 575 82 565 60 c 128,-1,51
 555 38 555 38 538 20 c 0,52,53
 499.278 -21 499.278 -21 449 -21 c 0,54,55
 406.839 -21 406.839 -21 379.419 4 c 128,-1,40
 352 29 352 29 341 50 c 128,-1,41
EndSplineSet
EndChar

StartChar: hungarumlaut
Encoding: 733 733 145
Width: 850
Flags: HW
LayerCount: 2
Fore
SplineSet
172 1161 m 1,0,1
 111.323 1150.89 111.323 1150.89 76 1218 c 1,2,3
 168.485 1343.3 168.485 1343.3 238.5 1504.5 c 0,4,5
 260 1554 260 1554 274 1600 c 1,6,7
 371.131 1590.48 371.131 1590.48 422 1517 c 1,8,9
 369.739 1384.81 369.739 1384.81 251.5 1244.5 c 0,10,11
 214 1200 214 1200 172 1161 c 1,0,1
400 1239 m 1,12,13
 557.231 1409.71 557.231 1409.71 641 1594 c 1,14,15
 737.288 1576.31 737.288 1576.31 777 1495 c 1,16,17
 714.524 1373.02 714.524 1373.02 578.5 1245 c 0,18,19
 536 1205 536 1205 490 1171 c 1,20,21
 451.629 1167.8 451.629 1167.8 421 1204 c 0,22,23
 408 1219 408 1219 400 1239 c 1,12,13
EndSplineSet
EndChar

StartChar: ogonek
Encoding: 731 731 146
Width: 573
Flags: HW
LayerCount: 2
Fore
SplineSet
238 -281 m 0,0,1
 238 -360 238 -360 321 -360 c 0,2,3
 357.529 -360 357.529 -360 406.765 -333 c 128,-1,4
 456 -306 456 -306 457 -306 c 256,5,6
 464 -306 464 -306 476 -316.5 c 0,7,8
 501 -338.375 501 -338.375 501 -367 c 1,9,10
 436.982 -432.901 436.982 -432.901 366.991 -460.45 c 128,-1,11
 297 -488 297 -488 251 -488 c 128,-1,12
 205 -488 205 -488 174 -474.5 c 128,-1,13
 143 -461 143 -461 121 -436.5 c 0,14,15
 76 -386.386 76 -386.386 76 -304 c 0,16,17
 76 -198.2 76 -198.2 180 -89 c 0,18,19
 226 -41 226 -41 285 0 c 1,20,-1
 357 30 l 1,21,-1
 423 0 l 1,22,23
 384.926 -19.037 384.926 -19.037 344.463 -63.0185 c 128,-1,24
 304 -107 304 -107 284 -138 c 0,25,26
 238 -209.3 238 -209.3 238 -281 c 0,0,1
EndSplineSet
EndChar

StartChar: parenleft
Encoding: 40 40 147
Width: 854
Flags: HW
LayerCount: 2
Fore
SplineSet
101 603 m 256,0,1
 101 923.401 101 923.401 247.5 1202.5 c 0,2,3
 383.991 1462.53 383.991 1462.53 613 1627 c 1,4,5
 618.429 1632.43 618.429 1632.43 630.214 1622.21 c 0,6,7
 653 1602.47 653 1602.47 653 1571 c 1,8,9
 463.052 1374.19 463.052 1374.19 367.5 1180.5 c 0,10,11
 247 936.243 247 936.243 247 650 c 0,12,13
 247 337.761 247 337.761 397 84.5 c 0,14,15
 527.094 -135.151 527.094 -135.151 752 -288 c 1,16,17
 733.958 -388.519 733.958 -388.519 636 -434 c 1,18,19
 253.418 -159.816 253.418 -159.816 139.5 285.5 c 0,20,21
 101 436 101 436 101 603 c 256,0,1
EndSplineSet
EndChar

StartChar: asterisk
Encoding: 42 42 149
Width: 1026
Flags: HW
LayerCount: 2
Fore
SplineSet
860 1324 m 1,0,1
 869 1304.2 869 1304.2 869 1271.2 c 128,-1,2
 869 1238.2 869 1238.2 860 1213 c 1,3,-1
 591 1222 l 1,4,-1
 638 961 l 1,5,6
 603.63 929.494 603.63 929.494 532 926 c 1,7,-1
 457 1178 l 1,8,-1
 226 1060 l 1,9,10
 176.993 1085.94 176.993 1085.94 157 1149 c 1,11,-1
 372 1295 l 1,12,-1
 190 1481 l 1,13,14
 199.772 1529.86 199.772 1529.86 254 1571 c 1,15,-1
 457 1404 l 1,16,-1
 581 1644 l 1,17,-1
 598 1647 l 1,18,19
 639 1647 639 1647 687 1613 c 1,20,-1
 591 1366 l 1,21,-1
 860 1324 l 1,0,1
EndSplineSet
EndChar

StartChar: OE
Encoding: 338 338 150
Width: 2053
Flags: HW
LayerCount: 2
Fore
SplineSet
1000 0 m 1,0,1
 887.765 -36 887.765 -36 753.882 -36 c 128,-1,2
 620 -36 620 -36 491 22 c 128,-1,3
 362 80 362 80 270.5 180.5 c 0,4,5
 78 391.934 78 391.934 78 706 c 0,6,7
 78 1039.14 78 1039.14 303.5 1276 c 0,8,9
 443.791 1423.36 443.791 1423.36 638 1480 c 0,10,11
 734 1508 734 1508 825.5 1508 c 128,-1,12
 917 1508 917 1508 989 1492 c 1,13,-1
 1957 1492 l 1,14,-1
 1924 1188 l 1,15,16
 1885.35 1181.18 1885.35 1181.18 1842 1193 c 1,17,-1
 1782 1375 l 1,18,-1
 1222 1375 l 1,19,-1
 1222 821 l 1,20,-1
 1670 821 l 1,21,-1
 1719 963 l 1,22,23
 1750.2 970.2 1750.2 970.2 1797 963 c 1,24,-1
 1797 561 l 1,25,26
 1754.45 553.909 1754.45 553.909 1719 561 c 1,27,-1
 1670 702 l 1,28,-1
 1222 702 l 1,29,-1
 1222 117 l 1,30,-1
 1807 117 l 1,31,-1
 1892 360 l 1,32,33
 1925.85 370.154 1925.85 370.154 1969 360 c 1,34,-1
 1978 0 l 1,35,-1
 1000 0 l 1,0,1
1034 1310 m 1,36,37
 916.647 1380 916.647 1380 792.323 1380 c 128,-1,38
 668 1380 668 1380 575 1341 c 128,-1,39
 482 1302 482 1302 417 1227 c 0,40,41
 283 1072.38 283 1072.38 283 796 c 0,42,43
 283 475.285 283 475.285 445.5 280.5 c 0,44,45
 601.088 94 601.088 94 841 94 c 0,46,47
 945 94 945 94 1034 130 c 1,48,-1
 1034 1310 l 1,36,37
EndSplineSet
EndChar

StartChar: dollar
Encoding: 36 36 151
Width: 1196
Flags: HW
LayerCount: 2
Fore
SplineSet
204 407 m 1,0,1
 247.871 412.161 247.871 412.161 283 393 c 1,2,3
 283 268 283 268 294 224 c 1,4,5
 384 137.333 384 137.333 528 100 c 1,6,-1
 552 655 l 1,7,8
 367.242 747.379 367.242 747.379 300.121 810.189 c 128,-1,9
 233 873 233 873 199.5 938.5 c 128,-1,10
 166 1004 166 1004 166 1088.5 c 128,-1,11
 166 1173 166 1173 196.5 1244.5 c 128,-1,12
 227 1316 227 1316 281.5 1370.5 c 0,13,14
 394.873 1483.87 394.873 1483.87 574 1504 c 1,15,-1
 578 1639 l 1,16,17
 634.688 1655.8 634.688 1655.8 687 1634 c 1,18,-1
 681 1506 l 1,19,20
 810.546 1497.9 810.546 1497.9 908.773 1458.95 c 128,-1,21
 1007 1420 1007 1420 1056 1391 c 1,22,-1
 985 1079 l 1,23,24
 950.653 1072.94 950.653 1072.94 908 1090 c 1,25,26
 908 1123 908 1123 906 1153 c 128,-1,27
 904 1183 904 1183 902 1213 c 128,-1,28
 900 1243 900 1243 895 1263 c 1,29,30
 801.943 1337.45 801.943 1337.45 674 1364 c 1,31,-1
 649 845 l 1,32,33
 726 807 726 807 803 765 c 128,-1,34
 880 723 880 723 942 669 c 0,35,36
 1082 547.065 1082 547.065 1082 377 c 0,37,38
 1082 200.417 1082 200.417 957 90 c 0,39,40
 832.511 -19.9649 832.511 -19.9649 628 -34 c 1,41,-1
 626 -173 l 1,42,43
 566.675 -185.214 566.675 -185.214 517 -167 c 1,44,-1
 522 -35 l 1,45,46
 351.937 -26.8239 351.937 -26.8239 225 34 c 0,47,48
 170 61 170 61 134 94 c 1,49,-1
 204 407 l 1,0,1
571 1377 m 1,50,51
 564 1378 564 1378 558 1378 c 2,52,-1
 545 1378 l 2,53,54
 442.119 1378 442.119 1378 384 1314.5 c 0,55,56
 331 1256.59 331 1256.59 331 1155 c 0,57,58
 331 1034.51 331 1034.51 470 943.5 c 0,59,60
 512 916 512 916 560 891 c 1,61,-1
 571 1377 l 1,50,51
651 85 m 2,62,63
 832.844 85 832.844 85 890.5 220 c 0,64,65
 911 268 911 268 911 326 c 128,-1,66
 911 384 911 384 889.5 422.5 c 128,-1,67
 868 461 868 461 831 493.5 c 0,68,69
 774.749 542.91 774.749 542.91 641 611 c 1,70,-1
 631 85 l 1,71,-1
 651 85 l 2,62,63
EndSplineSet
EndChar

StartChar: dagger
Encoding: 8224 8224 152
Width: 1200
Flags: HW
LayerCount: 2
Fore
SplineSet
179 850 m 1,0,-1
 559 845 l 1,1,-1
 528 902 l 1,2,-1
 563 1458 l 1,3,4
 608.429 1480.71 608.429 1480.71 642 1474 c 1,5,-1
 676 910 l 1,6,-1
 642 841 l 1,7,-1
 1021 850 l 1,8,-1
 1012 652 l 1,9,10
 1003 650 1003 650 992 650 c 128,-1,11
 981 650 981 650 965 661 c 1,12,-1
 939 735 l 1,13,-1
 642 770 l 1,14,-1
 684 704 l 1,15,-1
 648 -407 l 2,16,17
 648 -437.176 648 -437.176 632 -478.588 c 128,-1,18
 616 -520 616 -520 604 -538 c 1,19,20
 569 -493 569 -493 556.5 -423 c 0,21,22
 554 -409 554 -409 554 -407 c 2,23,-1
 521 699 l 1,24,-1
 559 770 l 1,25,-1
 262 735 l 1,26,-1
 236 661 l 1,27,28
 220 650 220 650 209 650 c 128,-1,29
 198 650 198 650 188 652 c 1,30,-1
 179 850 l 1,0,-1
EndSplineSet
EndChar

StartChar: daggerdbl
Encoding: 8225 8225 153
Width: 1200
Flags: HW
LayerCount: 2
Fore
SplineSet
179 850 m 1,0,-1
 559 845 l 1,1,-1
 528 902 l 1,2,-1
 563 1458 l 1,3,4
 608.429 1480.71 608.429 1480.71 642 1474 c 1,5,-1
 676 910 l 1,6,-1
 642 841 l 1,7,-1
 1019 850 l 1,8,-1
 1010 652 l 1,9,10
 1001 650 1001 650 990 650 c 128,-1,11
 979 650 979 650 963 661 c 1,12,-1
 937 735 l 1,13,-1
 642 770 l 1,14,-1
 684 704 l 1,15,-1
 602 501 l 1,16,-1
 521 699 l 1,17,-1
 559 770 l 1,18,-1
 262 735 l 1,19,-1
 236 661 l 1,20,21
 220 650 220 650 209 650 c 128,-1,22
 198 650 198 650 188 652 c 1,23,-1
 179 850 l 1,0,-1
190 278 m 1,24,25
 214.226 283.383 214.226 283.383 238 268 c 1,26,-1
 263 195 l 1,27,-1
 563 160 l 1,28,-1
 519 227 l 1,29,-1
 602 429 l 1,30,-1
 682 227 l 1,31,-1
 644 160 l 1,32,-1
 938 195 l 1,33,-1
 963 268 l 1,34,35
 986.774 283.383 986.774 283.383 1011 278 c 1,36,-1
 1021 80 l 1,37,-1
 642 100 l 1,38,-1
 675 21 l 1,39,-1
 638 -518 l 1,40,41
 583.947 -538.789 583.947 -538.789 560 -534 c 1,42,-1
 524 21 l 1,43,-1
 559 96 l 1,44,-1
 180 80 l 1,45,-1
 190 278 l 1,24,25
EndSplineSet
EndChar

StartChar: section
Encoding: 167 167 154
Width: 1024
Flags: HW
LayerCount: 2
Fore
SplineSet
765 260 m 1,0,1
 860 165 860 165 860 54 c 0,2,3
 860 -175.559 860 -175.559 633.5 -240.5 c 0,4,5
 562 -261 562 -261 480.5 -261 c 0,6,7
 284.333 -261 284.333 -261 143 -155 c 1,8,9
 150.077 -55.9231 150.077 -55.9231 215 9 c 1,10,11
 308.585 -98.9825 308.585 -98.9825 441.5 -139 c 0,12,13
 488 -153 488 -153 531 -153 c 128,-1,14
 574 -153 574 -153 604.5 -144 c 128,-1,15
 635 -135 635 -135 657.5 -115.5 c 0,16,17
 705 -74.3333 705 -74.3333 705 9 c 0,18,19
 705 120.431 705 120.431 526 234.5 c 2,20,-1
 421.5 301.5 l 2,21,22
 287.598 387.848 287.598 387.848 237.299 446.424 c 0,23,24
 138 562.063 138 562.063 138 685 c 0,25,26
 138 843.538 138 843.538 260 928 c 1,27,28
 170 1022.39 170 1022.39 170 1133 c 0,29,30
 170 1272.65 170 1272.65 281.5 1362.5 c 0,31,32
 388.843 1449 388.843 1449 561.922 1449 c 128,-1,33
 735 1449 735 1449 837 1347 c 1,34,35
 829.923 1247.92 829.923 1247.92 764 1182 c 1,36,37
 631.484 1340 631.484 1340 505 1340 c 256,38,39
 386 1340 386 1340 341 1248.5 c 0,40,41
 326 1218 326 1218 326 1174.5 c 128,-1,42
 326 1131 326 1131 350 1092 c 128,-1,43
 374 1053 374 1053 413.5 1017.5 c 128,-1,44
 453 982 453 982 503 948.5 c 2,45,-1
 605.5 879.5 l 2,46,47
 736.744 790.754 736.744 790.754 786.872 732.377 c 0,48,49
 885 618.101 885 618.101 885 497 c 0,50,51
 885 337.143 885 337.143 765 260 c 1,0,1
313 879 m 1,52,53
 274 832.909 274 832.909 274 764.955 c 128,-1,54
 274 697 274 697 294 654 c 128,-1,55
 314 611 314 611 348 574 c 128,-1,56
 382 537 382 537 426 504 c 128,-1,57
 470 471 470 471 518.5 439.5 c 2,58,-1
 616 376 l 2,59,60
 665 344 665 344 708 310 c 1,61,62
 745 357.091 745 357.091 745 423.045 c 128,-1,63
 745 489 745 489 725 532 c 128,-1,64
 705 575 705 575 671 612 c 128,-1,65
 637 649 637 649 593 682.5 c 128,-1,66
 549 716 549 716 501 747.5 c 2,67,-1
 404 811.5 l 2,68,69
 355 844 355 844 313 879 c 1,52,53
EndSplineSet
EndChar

StartChar: logicalnot
Encoding: 172 172 155
Width: 1194
Flags: HW
LayerCount: 2
Fore
SplineSet
206 532 m 1,0,1
 189 579 189 579 206 627 c 1,2,-1
 996 627 l 1,3,-1
 996 243 l 1,4,5
 936 227 936 227 880 227 c 1,6,-1
 880 532 l 1,7,-1
 206 532 l 1,0,1
EndSplineSet
EndChar

StartChar: bar
Encoding: 124 124 156
Width: 511
Flags: HW
LayerCount: 2
Fore
SplineSet
197 1766 m 1,0,-1
 314 1766 l 1,1,-1
 314 -471 l 1,2,-1
 197 -471 l 1,3,-1
 197 1766 l 1,0,-1
EndSplineSet
EndChar

StartChar: ellipsis
Encoding: 8230 8230 157
Width: 1536
Flags: HW
LayerCount: 2
Fore
SplineSet
1168 50 m 128,-1,1
 1157 71 1157 71 1157 93 c 128,-1,2
 1157 115 1157 115 1166 137 c 128,-1,3
 1175 159 1175 159 1191 176.5 c 0,4,5
 1245 235.564 1245 235.564 1318 207 c 0,6,7
 1365.46 188.431 1365.46 188.431 1383.73 157.215 c 128,-1,8
 1402 126 1402 126 1402 104 c 128,-1,9
 1402 82 1402 82 1392 60 c 128,-1,10
 1382 38 1382 38 1364.5 20 c 0,11,12
 1324.64 -21 1324.64 -21 1276 -21 c 0,13,14
 1233.84 -21 1233.84 -21 1206.42 4 c 128,-1,0
 1179 29 1179 29 1168 50 c 128,-1,1
656 50 m 128,-1,16
 645 71 645 71 645 93 c 128,-1,17
 645 115 645 115 654 137 c 128,-1,18
 663 159 663 159 679 176.5 c 0,19,20
 733.002 235.564 733.002 235.564 806 207 c 0,21,22
 853.455 188.431 853.455 188.431 871.728 157.215 c 128,-1,23
 890 126 890 126 890 104 c 128,-1,24
 890 82 890 82 880 60 c 128,-1,25
 870 38 870 38 852.5 20 c 0,26,27
 812.639 -21 812.639 -21 764 -21 c 0,28,29
 721.839 -21 721.839 -21 694.419 4 c 128,-1,15
 667 29 667 29 656 50 c 128,-1,16
144 50 m 128,-1,31
 133 71 133 71 133 93 c 128,-1,32
 133 115 133 115 142 137 c 128,-1,33
 151 159 151 159 167 176.5 c 0,34,35
 203.114 216 203.114 216 237.057 216 c 128,-1,36
 271 216 271 216 294 207 c 128,-1,37
 317 198 317 198 335.5 182.5 c 0,38,39
 378 146.892 378 146.892 378 114.446 c 128,-1,40
 378 82 378 82 368 60 c 128,-1,41
 358 38 358 38 340.5 20 c 0,42,43
 300.639 -21 300.639 -21 252 -21 c 0,44,45
 209.839 -21 209.839 -21 182.419 4 c 128,-1,30
 155 29 155 29 144 50 c 128,-1,31
EndSplineSet
EndChar

StartChar: yen
Encoding: 165 165 158
Width: 1532
Flags: HW
LayerCount: 2
Fore
SplineSet
865 414 m 1,0,1
 1053.75 414 1053.75 414 1252 427 c 1,2,3
 1260 396 1260 396 1260 372 c 128,-1,4
 1260 348 1260 348 1252 317 c 1,5,-1
 1127 319 l 2,6,7
 1071 320 1071 320 1002.5 320 c 128,-1,8
 934 320 934 320 865 321 c 1,9,-1
 865 128 l 1,10,-1
 1011 94 l 1,11,-1
 1018 80 l 1,12,-1
 1004 0 l 1,13,-1
 528 0 l 1,14,-1
 523 9 l 1,15,-1
 532 85 l 1,16,-1
 676 128 l 1,17,-1
 676 321 l 1,18,19
 503.931 318.432 503.931 318.432 264 308 c 1,20,21
 256 331 256 331 256 362 c 128,-1,22
 256 393 256 393 264 416 c 1,23,24
 333 415 333 415 399 414.5 c 128,-1,25
 465 414 465 414 537 414 c 2,26,-1
 676 414 l 1,27,-1
 676 578 l 1,28,-1
 670 589 l 1,29,30
 661.877 588.877 661.877 588.877 264 577 c 1,31,32
 256 600 256 600 256 631 c 128,-1,33
 256 662 256 662 264 685 c 1,34,-1
 380 683 l 2,35,36
 482 681 482 681 621 681 c 1,37,-1
 254 1364 l 1,38,-1
 116 1398 l 1,39,-1
 108 1411 l 1,40,-1
 123 1492 l 1,41,-1
 636 1492 l 1,42,-1
 641 1483 l 1,43,-1
 631 1407 l 1,44,-1
 481 1364 l 1,45,-1
 791 711 l 1,46,-1
 1103 1357 l 1,47,-1
 957 1398 l 1,48,-1
 950 1411 l 1,49,-1
 964 1492 l 1,50,-1
 1418 1492 l 1,51,-1
 1423 1483 l 1,52,-1
 1413 1407 l 1,53,-1
 1265 1364 l 1,54,-1
 910 681 l 1,55,56
 973 682 973 682 1034 684.5 c 2,57,-1
 1144 689 l 1,58,-1
 1252 695 l 1,59,60
 1260 664 1260 664 1260 640.5 c 128,-1,61
 1260 617 1260 617 1252 586 c 1,62,-1
 865 589 l 1,63,-1
 865 414 l 1,0,1
EndSplineSet
EndChar

StartChar: florin
Encoding: 402 402 159
Width: 1200
Flags: HW
LayerCount: 2
Fore
SplineSet
992 980 m 1,0,1
 992 931.941 992 931.941 959 897 c 1,2,-1
 736 897 l 1,3,-1
 641 130 l 2,4,5
 616.29 -73.8537 616.29 -73.8537 478.5 -207.5 c 0,6,7
 335.705 -346 335.705 -346 127 -346 c 0,8,9
 43.5 -346 43.5 -346 -30 -311 c 1,10,11
 -11.8243 -209.216 -11.8243 -209.216 62 -160 c 1,12,13
 134.45 -229 134.45 -229 266 -229 c 0,14,15
 409.484 -229 409.484 -229 450 85 c 1,16,-1
 552 897 l 1,17,-1
 394 897 l 1,18,-1
 394 928 l 1,19,20
 397.391 946.652 397.391 946.652 412 971 c 1,21,-1
 565 1013 l 1,22,-1
 584 1161 l 2,23,24
 611.294 1366.75 611.294 1366.75 734 1496.5 c 0,25,26
 865.93 1636 865.93 1636 1062 1636 c 0,27,28
 1109.17 1636 1109.17 1636 1159.08 1623.5 c 128,-1,29
 1209 1611 1209 1611 1235 1602 c 1,30,31
 1212.99 1499.27 1212.99 1499.27 1143 1451 c 1,32,33
 1067.84 1519 1067.84 1519 947 1519 c 0,34,35
 859.068 1519 859.068 1519 804 1348 c 0,36,37
 785 1289 785 1289 775 1206 c 2,38,-1
 749 1005 l 1,39,40
 855.333 1005 855.333 1005 992 1015 c 1,41,42
 993 1010 993 1010 993 1005 c 258,43,-1
 993 994 l 2,44,45
 993 988 993 988 992 980 c 1,0,1
EndSplineSet
EndChar

StartChar: fraction
Encoding: 8260 8260 160
Width: 1200
Flags: HW
LayerCount: 2
Fore
SplineSet
1040 1636 m 1,0,1
 1060 1633 1060 1633 1084 1618 c 128,-1,2
 1108 1603 1108 1603 1120 1585 c 1,3,-1
 164 -125 l 1,4,5
 116.5 -115.5 116.5 -115.5 79 -78 c 1,6,-1
 1040 1636 l 1,0,1
EndSplineSet
EndChar

StartChar: paragraph
Encoding: 182 182 161
Width: 1366
Flags: HW
LayerCount: 2
Fore
SplineSet
678 570 m 1,0,1
 230.436 570 230.436 570 134 861.5 c 0,2,3
 112 928 112 928 112 1036.5 c 128,-1,4
 112 1145 112 1145 163.5 1232.5 c 128,-1,5
 215 1320 215 1320 298.5 1373.5 c 0,6,7
 452.234 1472 452.234 1472 698 1472 c 2,8,-1
 1298 1472 l 1,9,-1
 1303 1463 l 1,10,-1
 1292 1387 l 1,11,-1
 1150 1344 l 1,12,-1
 1150 -377 l 1,13,14
 1121.08 -424 1121.08 -424 1006 -424 c 1,15,-1
 1006 1297 l 1,16,-1
 822 1267 l 1,17,-1
 822 -377 l 1,18,19
 789.462 -424 789.462 -424 678 -424 c 1,20,-1
 678 570 l 1,0,1
EndSplineSet
EndChar

StartChar: trademark
Encoding: 8482 8482 162
Width: 1877
Flags: HW
LayerCount: 2
Fore
SplineSet
830 1005 m 1,0,-1
 908 1027 l 1,1,-1
 933 1538 l 1,2,-1
 846 1552 l 1,3,-1
 841 1562 l 1,4,-1
 848 1602 l 1,5,-1
 1052 1602 l 1,6,-1
 1297 1137 l 1,7,-1
 1518 1602 l 1,8,-1
 1737 1602 l 1,9,-1
 1751 1589 l 1,10,-1
 1742 1552 l 1,11,-1
 1652 1538 l 1,12,-1
 1680 1025 l 1,13,-1
 1760 1011 l 1,14,-1
 1765 1000 l 1,15,-1
 1758 961 l 1,16,-1
 1482 961 l 1,17,-1
 1487 1005 l 1,18,-1
 1560 1025 l 1,19,20
 1538.79 1380.93 1538.79 1380.93 1536 1432 c 1,21,-1
 1327 1011 l 1,22,23
 1319 998 1319 998 1298 989 c 128,-1,24
 1277 980 1277 980 1257 980 c 1,25,-1
 1016 1427 l 1,26,-1
 992 1025 l 1,27,28
 1009 1021 1009 1021 1028.5 1017.5 c 128,-1,29
 1048 1014 1048 1014 1061 1011 c 1,30,-1
 1066 1000 l 1,31,-1
 1059 961 l 1,32,-1
 825 961 l 1,33,-1
 830 1005 l 1,0,-1
780 1463 m 1,34,35
 752 1449 752 1449 715 1449 c 1,36,37
 690.235 1508.85 690.235 1508.85 675.617 1520.92 c 0,38,39
 652.526 1540 652.526 1540 601 1540 c 2,40,-1
 504 1540 l 1,41,-1
 504 1029 l 1,42,-1
 616 1005 l 1,43,-1
 609 961 l 1,44,-1
 281 961 l 1,45,-1
 277 971 l 1,46,-1
 281 1011 l 1,47,-1
 389 1032 l 1,48,-1
 389 1540 l 1,49,-1
 293 1540 l 2,50,51
 239.842 1540 239.842 1540 223.421 1527 c 0,52,53
 200.897 1509.17 200.897 1509.17 176 1449 c 1,54,55
 136.2 1449 136.2 1449 111 1463 c 1,56,-1
 149 1602 l 1,57,-1
 745 1602 l 1,58,-1
 780 1463 l 1,34,35
EndSplineSet
EndChar

StartChar: braceleft
Encoding: 123 123 163
Width: 684
Flags: HW
LayerCount: 2
Fore
SplineSet
245 706 m 1,0,1
 415 625.474 415 625.474 415 485 c 0,2,3
 415 414.867 415 414.867 401 343.933 c 0,4,5
 374 207.133 374 207.133 374 164.567 c 128,-1,6
 374 122 374 122 385 80.5 c 128,-1,7
 396 39 396 39 412.5 5.5 c 0,8,9
 445.989 -62.4933 445.989 -62.4933 482 -85 c 1,10,11
 468.592 -134.803 468.592 -134.803 435 -146 c 1,12,13
 350.647 -103.824 350.647 -103.824 284 -19 c 0,14,15
 208 77.7273 208 77.7273 208 177 c 0,16,17
 208 235.6 208 235.6 226.5 313.3 c 0,18,19
 262 462.4 262 462.4 262 505.7 c 128,-1,20
 262 549 262 549 244 576.5 c 0,21,22
 210.873 627.111 210.873 627.111 149 681 c 1,23,24
 141 696 141 696 141 710 c 0,25,26
 141 726 141 726 149 742 c 1,27,28
 262 836.774 262 836.774 262 891.387 c 128,-1,29
 262 946 262 946 253.5 989 c 128,-1,30
 245 1032 245 1032 235 1074 c 0,31,32
 208 1187.4 208 1187.4 208 1243.2 c 128,-1,33
 208 1299 208 1299 229.5 1349 c 128,-1,34
 251 1399 251 1399 284 1441.5 c 0,35,36
 347.063 1522.72 347.063 1522.72 435 1569 c 1,37,38
 450 1564 450 1564 463 1547.5 c 128,-1,39
 476 1531 476 1531 478 1508 c 1,40,41
 419.422 1462.94 419.422 1462.94 385.5 1342 c 0,42,43
 374 1301 374 1301 374 1260.5 c 128,-1,44
 374 1220 374 1220 380.5 1185 c 2,45,-1
 394.5 1111.5 l 2,46,47
 415 1006.27 415 1006.27 415 945.133 c 128,-1,48
 415 884 415 884 395.5 848 c 128,-1,49
 376 812 376 812 349 787.5 c 128,-1,50
 322 763 322 763 293 747.5 c 2,51,-1
 245 721 l 1,52,-1
 245 706 l 1,0,1
EndSplineSet
EndChar

StartChar: ampersand
Encoding: 38 38 166
Width: 1532
Flags: HW
LayerCount: 2
Fore
SplineSet
1083 107 m 1,0,1
 896.177 -36 896.177 -36 655 -36 c 0,2,3
 406.471 -36 406.471 -36 267.5 69 c 0,4,5
 128 174.4 128 174.4 128 358 c 0,6,7
 128 487.208 128 487.208 206.5 581 c 0,8,9
 262.477 647.882 262.477 647.882 431 761 c 1,10,11
 283 978.647 283 978.647 283 1135 c 0,12,13
 283 1306.68 283 1306.68 395.5 1412.5 c 0,14,15
 497.032 1508 497.032 1508 646 1508 c 0,16,17
 789.128 1508 789.128 1508 871.5 1416 c 0,18,19
 949 1329.44 949 1329.44 949 1189 c 0,20,21
 949 1015.78 949 1015.78 756.5 854.5 c 0,22,23
 701 808 701 808 641 771 c 1,24,25
 813.44 552.575 813.44 552.575 1098 337 c 1,26,27
 1196.44 493.502 1196.44 493.502 1239 685 c 1,28,29
 1312.57 675.19 1312.57 675.19 1361 616 c 0,30,31
 1382 590 1382 590 1394 560 c 1,32,33
 1375.62 486.461 1375.62 486.461 1322.31 394.231 c 128,-1,34
 1269 302 1269 302 1224 246 c 1,35,36
 1372.67 148.667 1372.67 148.667 1446 106 c 1,37,38
 1424.3 38.9169 1424.3 38.9169 1384.15 0.958429 c 128,-1,39
 1344 -37 1344 -37 1300 -49 c 1,40,41
 1159.88 48.0593 1159.88 48.0593 1083 107 c 1,0,1
589 841 m 1,42,43
 677.159 925.059 677.159 925.059 706.579 981.029 c 0,44,45
 756 1075.05 756 1075.05 756 1146.02 c 128,-1,46
 756 1217 756 1217 744.5 1259.5 c 128,-1,47
 733 1302 733 1302 711.5 1333 c 0,48,49
 665.032 1400 665.032 1400 585 1400 c 0,50,51
 536.261 1400 536.261 1400 506.13 1367 c 0,52,53
 448 1303.33 448 1303.33 448 1212.17 c 0,54,55
 448 1046.09 448 1046.09 589 841 c 1,42,43
485 688 m 1,56,57
 326 577.07 326 577.07 326 393 c 0,58,59
 326 263.511 326 263.511 415 173.5 c 0,60,61
 511.404 76 511.404 76 677 76 c 0,62,63
 844.25 76 844.25 76 977 193 c 1,64,-1
 845.5 306.5 l 1,65,66
 623.614 505.03 623.614 505.03 485 688 c 1,56,57
EndSplineSet
EndChar

StartChar: numbersign
Encoding: 35 35 167
Width: 1362
Flags: HW
LayerCount: 2
Fore
SplineSet
364 402 m 1,0,-1
 122 402 l 1,1,2
 98.2721 470.811 98.2721 470.811 145 521 c 1,3,-1
 391 521 l 1,4,-1
 459 825 l 1,5,-1
 234 825 l 1,6,7
 214.208 894.271 214.208 894.271 257 942 c 1,8,-1
 486 942 l 1,9,-1
 576 1340 l 1,10,11
 637.545 1340 637.545 1340 670 1319 c 1,12,-1
 583 942 l 1,13,-1
 914 942 l 1,14,-1
 1005 1340 l 1,15,16
 1066.55 1340 1066.55 1340 1099 1319 c 1,17,-1
 1012 942 l 1,18,-1
 1245 942 l 1,19,20
 1255.17 877.573 1255.17 877.573 1221 825 c 1,21,-1
 985 825 l 1,22,-1
 916 521 l 1,23,-1
 1131 521 l 1,24,25
 1142.1 450.712 1142.1 450.712 1108 402 c 1,26,-1
 889 402 l 1,27,-1
 785 -52 l 1,28,29
 760.728 -54.4272 760.728 -54.4272 731.364 -44.2136 c 2,30,-1
 693 -31 l 1,31,-1
 791 402 l 1,32,-1
 460 402 l 1,33,-1
 356 -52 l 1,34,35
 331.294 -54.4706 331.294 -54.4706 303.147 -44.2353 c 128,-1,36
 275 -34 275 -34 266 -31 c 1,37,-1
 364 402 l 1,0,-1
818 521 m 1,38,-1
 887 825 l 1,39,-1
 556 825 l 1,40,-1
 487 521 l 1,41,-1
 818 521 l 1,38,-1
EndSplineSet
EndChar

StartChar: percent
Encoding: 37 37 168
Width: 1703
Flags: HW
LayerCount: 2
Fore
SplineSet
442.5 758 m 0,0,1
 364 758 364 758 303.5 786.5 c 128,-1,2
 243 815 243 815 202 863.5 c 0,3,4
 119 961.683 119 961.683 119 1119 c 0,5,6
 119 1289.24 119 1289.24 226.5 1400 c 0,7,8
 331.324 1508 331.324 1508 485 1508 c 0,9,10
 651.735 1508 651.735 1508 743 1404 c 0,11,12
 828 1307.14 828 1307.14 828 1144 c 0,13,14
 828 974.257 828 974.257 714.5 864 c 0,15,16
 605.382 758 605.382 758 442.5 758 c 0,0,1
420.5 863.5 m 128,-1,18
 457 843 457 843 493 843 c 128,-1,19
 529 843 529 843 556 857.5 c 128,-1,20
 583 872 583 872 603.5 902 c 0,21,22
 647 965.659 647 965.659 647 1066.33 c 128,-1,23
 647 1167 647 1167 632.5 1228 c 128,-1,24
 618 1289 618 1289 592 1331 c 0,25,26
 539.381 1416 539.381 1416 447 1416 c 0,27,28
 379 1416 379 1416 338.5 1352 c 128,-1,29
 298 1288 298 1288 298 1181.5 c 128,-1,30
 298 1075 298 1075 314 1018.5 c 128,-1,31
 330 962 330 962 357 923 c 128,-1,17
 384 884 384 884 420.5 863.5 c 128,-1,18
876 330.5 m 0,32,33
 876 411 876 411 904.5 482.5 c 128,-1,34
 933 554 933 554 982.5 605.5 c 0,35,36
 1086.79 714 1086.79 714 1240 714 c 0,37,38
 1408.3 714 1408.3 714 1498.5 610 c 0,39,40
 1584 511.424 1584 511.424 1584 351 c 0,41,42
 1584 178.676 1584 178.676 1470.5 69.5 c 0,43,44
 1360.82 -36 1360.82 -36 1198 -36 c 256,45,46
 1046.6 -36 1046.6 -36 958.5 69.5 c 0,47,48
 876 168.296 876 168.296 876 330.5 c 0,32,33
1054 352.5 m 0,49,50
 1054 281 1054 281 1069.5 224.5 c 128,-1,51
 1085 168 1085 168 1112.5 129 c 0,52,53
 1168.91 49 1168.91 49 1255 49 c 0,54,55
 1357.99 49 1357.99 49 1391.5 184.5 c 0,56,57
 1403 231 1403 231 1403 294 c 0,58,59
 1403 454 1403 454 1348 538 c 128,-1,60
 1293 622 1293 622 1202 622 c 0,61,62
 1054 622 1054 622 1054 352.5 c 0,49,50
1304 1636 m 1,63,64
 1324 1633 1324 1633 1348 1618 c 128,-1,65
 1372 1603 1372 1603 1384 1585 c 1,66,-1
 428 -125 l 1,67,68
 380.5 -115.5 380.5 -115.5 343 -78 c 1,69,-1
 1304 1636 l 1,63,64
EndSplineSet
EndChar

StartChar: sterling
Encoding: 163 163 169
Width: 1365
Flags: HW
LayerCount: 2
Fore
SplineSet
1198 254 m 1,0,1
 1255.45 234.016 1255.45 234.016 1259 195 c 1,2,3
 1195.71 58.2166 1195.71 58.2166 1080.5 -6 c 0,4,5
 1014.12 -43 1014.12 -43 952.059 -43 c 128,-1,6
 890 -43 890 -43 839.5 -36.5 c 128,-1,7
 789 -30 789 -30 736.5 -21.5 c 0,8,9
 603.706 2.16548e-06 603.706 2.16548e-06 545.353 1.08274e-06 c 128,-1,10
 487 0 487 0 437.5 -4.5 c 128,-1,11
 388 -9 388 -9 336.5 -15 c 2,12,-1
 233 -27 l 2,13,14
 181 -33 181 -33 133 -36 c 1,15,16
 93.4355 -14.899 93.4355 -14.899 108 47 c 1,17,18
 297.371 75.4056 297.371 75.4056 370 241 c 0,19,20
 395 298 395 298 404 373 c 2,21,-1
 439 688 l 1,22,-1
 281 688 l 1,23,-1
 279 719 l 1,24,25
 283 737 283 737 299 761 c 1,26,-1
 452 803 l 1,27,-1
 474 1030 l 1,28,29
 513.499 1359.16 513.499 1359.16 751 1469 c 0,30,31
 831 1506 831 1506 903.5 1506 c 0,32,33
 1031.44 1506 1031.44 1506 1117 1471 c 1,34,35
 1102.86 1372.05 1102.86 1372.05 1030 1320 c 1,36,37
 957.368 1389 957.368 1389 833 1389 c 0,38,39
 743.882 1389 743.882 1389 692 1217.5 c 0,40,41
 674 1158 674 1158 665 1075 c 2,42,-1
 637 796 l 1,43,44
 774 796 774 796 951 805 c 1,45,46
 954.923 785.385 954.923 785.385 953 770 c 1,47,48
 953 724.667 953 724.667 920 688 c 1,49,-1
 625 688 l 1,50,-1
 595 416 l 1,51,52
 571.8 232.509 571.8 232.509 434 117 c 1,53,-1
 439 103 l 1,54,-1
 476 120 l 1,55,56
 560 160 560 160 610 160 c 128,-1,57
 660 160 660 160 704.5 152.5 c 128,-1,58
 749 145 749 145 794 136.5 c 0,59,60
 918.412 113 918.412 113 971.706 113 c 0,61,62
 1099.3 113 1099.3 113 1198 254 c 1,0,1
EndSplineSet
EndChar

StartChar: at
Encoding: 64 64 170
Width: 2048
Flags: HW
LayerCount: 2
Fore
SplineSet
1365 -344 m 1,0,1
 1170.94 -459 1170.94 -459 924 -459 c 0,2,3
 595.024 -459 595.024 -459 382.5 -239 c 0,4,5
 173 -22.1307 173 -22.1307 173 308 c 0,6,7
 173 605.978 173 605.978 317.5 866.5 c 0,8,9
 457.019 1118.04 457.019 1118.04 695.5 1268.5 c 0,10,11
 940.388 1423 940.388 1423 1223 1423 c 0,12,13
 1518.66 1423 1518.66 1423 1698 1231 c 0,14,15
 1875 1041.51 1875 1041.51 1875 737 c 0,16,17
 1875 426.757 1875 426.757 1699.5 197.5 c 0,18,19
 1586.41 49.7721 1586.41 49.7721 1427 -12 c 0,20,21
 1347 -43 1347 -43 1259 -45 c 1,22,-1
 1230 -29 l 1,23,-1
 1164 177 l 1,24,-1
 978 -36 l 1,25,26
 803.657 -36 803.657 -36 700.5 71.5 c 0,27,28
 603 173.105 603 173.105 603 325 c 0,29,30
 603 519.012 603 519.012 694.5 696.5 c 0,31,32
 775.19 853.02 775.19 853.02 902 952.5 c 0,33,34
 1023.74 1048 1023.74 1048 1112.87 1048 c 0,35,36
 1302.11 1048 1302.11 1048 1403 977 c 1,37,-1
 1301 236 l 1,38,-1
 1365 78 l 1,39,40
 1421 78 1421 78 1483 124.5 c 128,-1,41
 1545 171 1545 171 1588 220.5 c 128,-1,42
 1631 270 1631 270 1665.5 338 c 0,43,44
 1744 492.725 1744 492.725 1744 667.362 c 128,-1,45
 1744 842 1744 842 1704 958 c 128,-1,46
 1664 1074 1664 1074 1586.5 1152 c 0,47,48
 1429.51 1310 1429.51 1310 1133 1310 c 0,49,50
 907.222 1310 907.222 1310 713 1177 c 0,51,52
 525.655 1048.71 525.655 1048.71 416.5 835.5 c 0,53,54
 304 615.757 304 615.757 304 373 c 0,55,56
 304 40.2059 304 40.2059 472 -152.5 c 0,57,58
 652.897 -360 652.897 -360 994 -360 c 0,59,60
 1112.35 -360 1112.35 -360 1234 -316 c 0,61,62
 1289 -297 1289 -297 1334 -271 c 1,63,64
 1365 -313.625 1365 -313.625 1365 -344 c 1,0,1
1225 862 m 1,65,66
 1161.25 930 1161.25 930 1066 930 c 1,67,68
 848.458 799.475 848.458 799.475 795 501 c 0,69,70
 783 434 783 434 783 340.5 c 128,-1,71
 783 247 783 247 833 186 c 128,-1,72
 883 125 883 125 980 125 c 1,73,-1
 1155 297 l 1,74,-1
 1225 862 l 1,65,66
EndSplineSet
EndChar

StartChar: less
Encoding: 60 60 171
Width: 1193
Flags: HW
LayerCount: 2
Fore
SplineSet
143 542 m 1,0,1
 137.929 582.571 137.929 582.571 160 612 c 1,2,-1
 983 1189 l 1,3,4
 1039.9 1167.66 1039.9 1167.66 1050 1102 c 1,5,-1
 261 575 l 1,6,-1
 1043 47 l 1,7,8
 1031.04 -16.7891 1031.04 -16.7891 981 -43 c 1,9,-1
 143 542 l 1,0,1
EndSplineSet
EndChar

StartChar: greater
Encoding: 62 62 172
Width: 1193
Flags: HW
LayerCount: 2
Fore
SplineSet
928 573 m 1,0,-1
 146 1099 l 1,1,2
 153.278 1160.86 153.278 1160.86 207 1189 c 1,3,-1
 1046 605 l 1,4,5
 1050.4 567.634 1050.4 567.634 1030 535 c 1,6,-1
 219 -43 l 1,7,8
 162.922 -21.9706 162.922 -21.9706 153 45 c 1,9,-1
 928 573 l 1,0,-1
EndSplineSet
EndChar

StartChar: perthousand
Encoding: 8240 8240 173
Width: 2388
Flags: HW
LayerCount: 2
Fore
SplineSet
396 758 m 256,0,1
 244.186 758 244.186 758 155 863.5 c 0,2,3
 72 961.683 72 961.683 72 1119 c 0,4,5
 72 1289.84 72 1289.84 180 1400 c 0,6,7
 285.882 1508 285.882 1508 438 1508 c 0,8,9
 606.296 1508 606.296 1508 696.5 1404 c 0,10,11
 782 1305.42 782 1305.42 782 1144 c 0,12,13
 782 974.257 782 974.257 668.5 864 c 0,14,15
 559.382 758 559.382 758 396 758 c 256,0,1
447 843 m 0,16,17
 483 843 483 843 510 857.5 c 128,-1,18
 537 872 537 872 557 902 c 0,19,20
 600 966.5 600 966.5 600 1106.75 c 128,-1,21
 600 1247 600 1247 545.5 1331.5 c 128,-1,22
 491 1416 491 1416 411.5 1416 c 0,23,24
 252 1416 252 1416 252 1147 c 0,25,26
 252 1008.22 252 1008.22 311 923 c 0,27,28
 366.385 843 366.385 843 447 843 c 0,16,17
1654 330.5 m 0,29,30
 1654 411 1654 411 1682.5 482.5 c 128,-1,31
 1711 554 1711 554 1760.5 605.5 c 0,32,33
 1864.79 714 1864.79 714 2018 714 c 0,34,35
 2186.3 714 2186.3 714 2276.5 610 c 0,36,37
 2362 511.424 2362 511.424 2362 351 c 0,38,39
 2362 178.676 2362 178.676 2248.5 69.5 c 0,40,41
 2138.82 -36 2138.82 -36 1976 -36 c 256,42,43
 1824.6 -36 1824.6 -36 1736.5 69.5 c 0,44,45
 1654 168.296 1654 168.296 1654 330.5 c 0,29,30
829 330.5 m 0,46,47
 829 411 829 411 858 482.5 c 128,-1,48
 887 554 887 554 936.5 605.5 c 0,49,50
 1040.79 714 1040.79 714 1194 714 c 0,51,52
 1362.3 714 1362.3 714 1452.5 610 c 0,53,54
 1538 511.424 1538 511.424 1538 351 c 0,55,56
 1538 178.676 1538 178.676 1424.5 69.5 c 0,57,58
 1314.82 -36 1314.82 -36 1151 -36 c 0,59,60
 999.598 -36 999.598 -36 911.5 69.5 c 0,61,62
 829 168.296 829 168.296 829 330.5 c 0,46,47
1832 352.5 m 0,63,64
 1832 281 1832 281 1848 224.5 c 128,-1,65
 1864 168 1864 168 1891.5 129 c 0,66,67
 1947.91 49 1947.91 49 2032 49 c 0,68,69
 2096.18 49 2096.18 49 2136.5 108 c 0,70,71
 2180 171.659 2180 171.659 2180 312.829 c 128,-1,72
 2180 454 2180 454 2125.5 538 c 128,-1,73
 2071 622 2071 622 1980 622 c 0,74,75
 1832 622 1832 622 1832 352.5 c 0,63,64
1157 622 m 0,76,77
 1009 622 1009 622 1009 353 c 0,78,79
 1009 212.778 1009 212.778 1067 129 c 0,80,81
 1122.38 49 1122.38 49 1209 49 c 0,82,83
 1273.18 49 1273.18 49 1313.5 108 c 0,84,85
 1357 171.659 1357 171.659 1357 272.329 c 128,-1,86
 1357 373 1357 373 1342.5 434.5 c 128,-1,87
 1328 496 1328 496 1301.5 537.5 c 0,88,89
 1247.54 622 1247.54 622 1157 622 c 0,76,77
1255 1636 m 1,90,91
 1275 1633 1275 1633 1299 1618 c 128,-1,92
 1323 1603 1323 1603 1335 1585 c 1,93,-1
 379 -125 l 1,94,95
 331.5 -115.5 331.5 -115.5 294 -78 c 1,96,-1
 1255 1636 l 1,90,91
EndSplineSet
EndChar

StartChar: bullet
Encoding: 8226 8226 174
Width: 512
Flags: HW
LayerCount: 2
Fore
SplineSet
256 436 m 256,0,1
 176 436 176 436 119.5 492.5 c 128,-1,2
 63 549 63 549 63 629 c 256,3,4
 63 709.566 63 709.566 119.5 765 c 0,5,6
 177.596 822 177.596 822 256 822 c 256,7,8
 335 822 335 822 392 765 c 0,9,10
 448 709 448 709 448 629 c 256,11,12
 448 549.577 448 549.577 392 492.5 c 0,13,14
 336.566 436 336.566 436 256 436 c 256,0,1
EndSplineSet
EndChar

StartChar: exclam
Encoding: 33 33 175
Width: 512
Flags: HW
LayerCount: 2
Fore
SplineSet
156 1498 m 1,0,1
 208 1508 208 1508 246.5 1508 c 128,-1,2
 285 1508 285 1508 345 1498 c 1,3,4
 339.702 1227.8 339.702 1227.8 328.351 1014.4 c 128,-1,5
 317 801 317 801 309.5 662.5 c 128,-1,6
 302 524 302 524 291 344 c 1,7,8
 271.75 337 271.75 337 251.375 337 c 0,9,10
 227.5 337 227.5 337 210 344 c 1,11,12
 165.556 1010.67 165.556 1010.67 156 1498 c 1,0,1
144 50 m 128,-1,14
 133 71 133 71 133 93 c 128,-1,15
 133 115 133 115 142 137 c 128,-1,16
 151 159 151 159 167 176.5 c 0,17,18
 203.114 216 203.114 216 237.057 216 c 128,-1,19
 271 216 271 216 294 207 c 128,-1,20
 317 198 317 198 335.5 182.5 c 0,21,22
 378 146.892 378 146.892 378 114.446 c 128,-1,23
 378 82 378 82 368 60 c 128,-1,24
 358 38 358 38 341 20 c 0,25,26
 302.278 -21 302.278 -21 253 -21 c 0,27,28
 211.452 -21 211.452 -21 183.226 4 c 128,-1,13
 155 29 155 29 144 50 c 128,-1,14
EndSplineSet
EndChar

StartChar: quotesingle
Encoding: 39 39 177
Width: 512
Flags: HW
LayerCount: 2
Fore
SplineSet
312 1052 m 1,0,1
 287 1038 287 1038 268 1038 c 0,2,3
 230.357 1038 230.357 1038 200 1063 c 1,4,5
 196.5 1126 196.5 1126 192.75 1176 c 128,-1,6
 189 1226 189 1226 186.5 1270.5 c 2,7,-1
 181.5 1357 l 2,8,9
 177 1432.6 177 1432.6 177 1493 c 1,10,11
 216 1508 216 1508 256.5 1508 c 128,-1,12
 297 1508 297 1508 346 1479 c 1,13,14
 346 1273 346 1273 312 1052 c 1,0,1
EndSplineSet
EndChar

StartChar: bracketleft
Encoding: 91 91 180
Width: 684
Flags: HW
LayerCount: 2
Fore
SplineSet
185 1472 m 1,0,-1
 486 1472 l 1,1,-1
 493 1458 l 1,2,-1
 472 1375 l 1,3,-1
 345 1355 l 1,4,-1
 345 -182 l 1,5,-1
 488 -205 l 1,6,-1
 498 -224 l 1,7,-1
 472 -299 l 1,8,-1
 185 -299 l 1,9,-1
 185 1472 l 1,0,-1
EndSplineSet
EndChar

StartChar: bracketright
Encoding: 93 93 181
Width: 684
Flags: HW
LayerCount: 2
Fore
SplineSet
338 -182 m 1,0,-1
 338 1355 l 1,1,-1
 194 1378 l 1,2,-1
 185 1396 l 1,3,-1
 210 1472 l 1,4,-1
 498 1472 l 1,5,-1
 498 -299 l 1,6,-1
 196 -299 l 1,7,-1
 189 -285 l 1,8,-1
 210 -202 l 1,9,-1
 338 -182 l 1,0,-1
EndSplineSet
EndChar

StartChar: underscore
Encoding: 95 95 182
Width: 1022
Flags: HW
LayerCount: 2
Fore
SplineSet
1040 -267 m 128,-1,1
 1040 -284 1040 -284 1032 -314 c 1,2,-1
 -10 -314 l 1,3,4
 -27 -267 -27 -267 -10 -220 c 1,5,-1
 1032 -220 l 1,6,0
 1040 -250 1040 -250 1040 -267 c 128,-1,1
EndSplineSet
EndChar

StartChar: guilsinglleft
Encoding: 8249 8249 183
Width: 682
Flags: HW
LayerCount: 2
Fore
SplineSet
66 553 m 1,0,1
 60.8214 594.429 60.8214 594.429 83 624 c 1,2,-1
 513 991 l 1,3,4
 575.598 973.612 575.598 973.612 586 906 c 1,5,-1
 254 586 l 1,6,-1
 593 254 l 1,7,8
 586.286 227.143 586.286 227.143 566.643 203.571 c 128,-1,9
 547 180 547 180 526 169 c 1,10,-1
 66 553 l 1,0,1
EndSplineSet
EndChar

StartChar: Euro
Encoding: 8364 8364 187
Width: 1366
Flags: HW
LayerCount: 2
Fore
SplineSet
996 667 m 0,0,1
 996 619.765 996 619.765 964 584 c 1,2,-1
 455 584 l 1,3,4
 490.969 353.041 490.969 353.041 621 217.5 c 0,5,6
 739.48 94 739.48 94 893 94 c 0,7,8
 987.55 94 987.55 94 1075 147 c 0,9,10
 1114 170 1114 170 1143 200 c 1,11,12
 1156.51 245.941 1156.51 245.941 1160 375 c 1,13,14
 1175 380 1175 380 1190 382.5 c 2,15,-1
 1217 387 l 2,16,17
 1231 389 1231 389 1244 389 c 1,18,-1
 1299 76 l 1,19,20
 1100.29 -36 1100.29 -36 811 -36 c 0,21,22
 572.429 -36 572.429 -36 416 144 c 0,23,24
 265.645 317.011 265.645 317.011 241 584 c 1,25,-1
 68 584 l 1,26,-1
 66 615 l 1,27,28
 70.5333 637.667 70.5333 637.667 86 657 c 1,29,-1
 236 695 l 1,30,31
 236 746.5 236 746.5 241 784 c 1,32,-1
 68 784 l 1,33,-1
 66 815 l 1,34,35
 70.5333 837.667 70.5333 837.667 86 857 c 1,36,-1
 255 897 l 1,37,38
 310.42 1167.94 310.42 1167.94 478 1334.5 c 0,39,40
 652.564 1508 652.564 1508 893 1508 c 0,41,42
 1034.62 1508 1034.62 1508 1169 1465 c 0,43,44
 1227 1447 1227 1447 1272 1423 c 1,45,-1
 1200 1105 l 1,46,47
 1157.05 1102.32 1157.05 1102.32 1113 1117 c 1,48,-1
 1111 1182 l 1,49,50
 1109 1209 1109 1209 1107.5 1238.5 c 128,-1,51
 1106 1268 1106 1268 1101 1288 c 1,52,53
 999.956 1371 999.956 1371 776 1371 c 0,54,55
 653.935 1371 653.935 1371 563.5 1245 c 0,56,57
 469.601 1114.17 469.601 1114.17 446 888 c 1,58,59
 566.5 888 566.5 888 1011 902 c 1,60,61
 1018 881 1018 881 1018 867 c 0,62,63
 1018 820.667 1018 820.667 985 784 c 1,64,-1
 441 784 l 1,65,-1
 441 724.5 l 2,66,67
 441 705 441 705 443 688 c 1,68,69
 500.5 688 500.5 688 565.75 689.5 c 2,70,-1
 769 694 l 2,71,72
 874 697 874 697 990 701 c 1,73,74
 996 677 996 677 996 667 c 0,0,1
EndSplineSet
EndChar

StartChar: breve
Encoding: 728 728 188
Width: 744
Flags: HW
LayerCount: 2
Fore
SplineSet
370.5 1211 m 0,0,1
 307 1211 307 1211 257 1234 c 128,-1,2
 207 1257 207 1257 171 1295.5 c 0,3,4
 105.047 1366.03 105.047 1366.03 78 1490 c 1,5,6
 111.629 1518.46 111.629 1518.46 160 1515 c 1,7,8
 195.848 1387.9 195.848 1387.9 298 1348.5 c 0,9,10
 333 1335 333 1335 375 1335 c 0,11,12
 541.571 1335 541.571 1335 593 1515 c 1,13,14
 641.503 1517.43 641.503 1517.43 669 1486 c 1,15,16
 649.635 1382.72 649.635 1382.72 572 1301 c 0,17,18
 486.5 1211 486.5 1211 370.5 1211 c 0,0,1
EndSplineSet
EndChar

StartChar: mu
Encoding: 181 181 189
AltUni2: 0003bc.ffffffff.0
Width: 1196
Flags: HW
LayerCount: 2
Fore
SplineSet
521 -36 m 0,0,1
 379.091 -36 379.091 -36 276 72 c 1,2,-1
 266 68 l 1,3,4
 292.685 -305.596 292.685 -305.596 353 -479 c 1,5,6
 303.076 -535.581 303.076 -535.581 202 -528 c 1,7,8
 193.302 -330.849 193.302 -330.849 191.151 -182.424 c 128,-1,9
 189 -34 189 -34 187.5 68 c 128,-1,10
 186 170 186 170 186 308 c 2,11,-1
 186 825 l 1,12,-1
 87 874 l 1,13,-1
 78 885 l 1,14,-1
 87 940 l 1,15,-1
 330 1029 l 1,16,-1
 346 1020 l 1,17,-1
 346 353 l 2,18,19
 346 180.379 346 180.379 460.5 133 c 0,20,21
 504 115 504 115 584.857 115 c 128,-1,22
 665.714 115 665.714 115 820 205 c 1,23,-1
 820 798 l 1,24,-1
 678 860 l 1,25,-1
 672 872 l 1,26,-1
 678 926 l 1,27,-1
 961 1029 l 1,28,-1
 980 1022 l 1,29,-1
 980 200 l 2,30,31
 980 179 980 179 987.5 167 c 128,-1,32
 995 155 995 155 1011 155 c 128,-1,33
 1027 155 1027 155 1048.5 157 c 2,34,-1
 1092 161 l 2,35,36
 1118 164 1118 164 1147 167 c 1,37,-1
 1159 153 l 1,38,-1
 1135 70 l 1,39,-1
 862 -23 l 1,40,-1
 848 -9 l 1,41,-1
 836 115 l 1,42,-1
 827 117 l 1,43,-1
 779 82.5 l 2,44,45
 699.696 24.7215 699.696 24.7215 629.348 -5.63923 c 128,-1,46
 559 -36 559 -36 521 -36 c 0,0,1
EndSplineSet
EndChar

StartChar: cent
Encoding: 162 162 190
Width: 1024
Flags: HW
LayerCount: 2
Fore
SplineSet
584 122 m 1,0,1
 604 120 604 120 643.5 120 c 0,2,3
 724.55 120 724.55 120 812 173 c 0,4,5
 851 197 851 197 879 227 c 1,6,7
 936 202.062 936 202.062 936 153 c 1,8,9
 779.888 10.5823 779.888 10.5823 641 -27.5 c 0,10,11
 610 -36 610 -36 580 -36 c 1,12,-1
 574 -308 l 1,13,14
 514.5 -319.156 514.5 -319.156 466 -304 c 1,15,-1
 478 -28 l 1,16,17
 296.826 3.16972 296.826 3.16972 189.5 144.5 c 0,18,19
 87 279.475 87 279.475 87 474 c 0,20,21
 87 677.348 87 677.348 209.5 835 c 0,22,23
 329.469 989.395 329.469 989.395 516 1034 c 1,24,-1
 523 1326 l 1,25,26
 577.198 1341.18 577.198 1341.18 631 1321 c 1,27,-1
 618 1047 l 1,28,29
 623 1048 623 1048 628.5 1048 c 2,30,-1
 639 1048 l 2,31,32
 808.947 1048 808.947 1048 902 980 c 1,33,34
 896.52 928.857 896.52 928.857 870.76 886.428 c 128,-1,35
 845 844 845 844 815 820 c 1,36,37
 727.867 896.677 727.867 896.677 612 925 c 1,38,-1
 594 558 l 1,39,-1
 584 122 l 1,0,1
507 584 m 1,40,-1
 514 934 l 1,41,42
 406.197 924.018 406.197 924.018 331 808 c 0,43,44
 255 690.743 255 690.743 255 537 c 0,45,46
 255 396.111 255 396.111 324.5 288 c 0,47,48
 384.382 194.851 384.382 194.851 487 149 c 1,49,-1
 507 584 l 1,40,-1
EndSplineSet
EndChar

StartChar: backslash
Encoding: 92 92 191
Width: 856
Flags: HW
LayerCount: 2
Fore
SplineSet
84 1571 m 1,0,1
 125.143 1607 125.143 1607 185 1607 c 1,2,-1
 772 -128 l 1,3,4
 710.8 -162 710.8 -162 673 -162 c 1,5,-1
 84 1571 l 1,0,1
EndSplineSet
EndChar

StartChar: asciitilde
Encoding: 126 126 192
Width: 1196
Flags: HW
LayerCount: 2
Fore
SplineSet
405 576 m 0,0,1
 317 576 317 576 191 450 c 1,2,3
 154.6 461.2 154.6 461.2 137.5 503 c 0,4,5
 133 514 133 514 132 523 c 1,6,7
 281.17 694 281.17 694 447 694 c 0,8,9
 496 694 496 694 539.5 674.5 c 128,-1,10
 583 655 583 655 624 632 c 128,-1,11
 665 609 665 609 704 589.5 c 128,-1,12
 743 570 743 570 784 570 c 0,13,14
 897.571 570 897.571 570 1003 693 c 1,15,16
 1053.46 674.079 1053.46 674.079 1063 620 c 1,17,18
 936.25 451 936.25 451 753 451 c 0,19,20
 700 451 700 451 656.5 470.5 c 128,-1,21
 613 490 613 490 573 513.5 c 128,-1,22
 533 537 533 537 492.5 556.5 c 128,-1,23
 452 576 452 576 405 576 c 0,0,1
EndSplineSet
EndChar

StartChar: degree
Encoding: 176 176 193
Width: 853
Flags: HW
LayerCount: 2
Fore
SplineSet
424.5 1013 m 0,0,1
 372 1013 372 1013 326 1032.5 c 128,-1,2
 280 1052 280 1052 246 1085.5 c 0,3,4
 172 1158.41 172 1158.41 172 1260 c 0,5,6
 172 1360 172 1360 246 1434 c 128,-1,7
 320 1508 320 1508 424 1508 c 0,8,9
 528.824 1508 528.824 1508 605 1434 c 0,10,11
 680 1361.14 680 1361.14 680 1260 c 0,12,13
 680 1157.29 680 1157.29 605 1085.5 c 0,14,15
 529.254 1013 529.254 1013 424.5 1013 c 0,0,1
371 1113 m 128,-1,17
 397 1102 397 1102 427 1102 c 128,-1,18
 457 1102 457 1102 483.5 1114.5 c 128,-1,19
 510 1127 510 1127 529.5 1148.5 c 0,20,21
 572 1195.36 572 1195.36 572 1260 c 256,22,23
 572 1324.83 572 1324.83 527.5 1371.5 c 128,-1,24
 483.163 1418 483.163 1418 422 1418 c 0,25,26
 361.977 1418 361.977 1418 320 1370.5 c 0,27,28
 280 1325.24 280 1325.24 280 1274.62 c 128,-1,29
 280 1224 280 1224 292 1195 c 128,-1,30
 304 1166 304 1166 324.5 1145 c 128,-1,16
 345 1124 345 1124 371 1113 c 128,-1,17
EndSplineSet
EndChar

StartChar: registered
Encoding: 174 174 194
Width: 860
Flags: HW
LayerCount: 2
Fore
SplineSet
430.5 944 m 0,0,1
 369 944 369 944 317 966.5 c 128,-1,2
 265 989 265 989 227.5 1027 c 0,3,4
 148 1107.56 148 1107.56 148 1225 c 0,5,6
 148 1342.88 148 1342.88 227.5 1424.5 c 0,7,8
 308.831 1508 308.831 1508 430 1508 c 128,-1,9
 551.169 1508 551.169 1508 632.5 1424.5 c 0,10,11
 712 1342.88 712 1342.88 712 1225 c 0,12,13
 712 1107.56 712 1107.56 632.5 1027 c 0,14,15
 550.592 944 550.592 944 430.5 944 c 0,0,1
430 980 m 256,16,17
 531.121 980 531.121 980 599 1050 c 128,-1,18
 667 1120.12 667 1120.12 667 1225 c 256,19,20
 667 1329.31 667 1329.31 599 1400.5 c 0,21,22
 530.701 1472 530.701 1472 430 1472 c 256,23,24
 330.866 1472 330.866 1472 261.5 1400.5 c 128,-1,25
 192 1328.86 192 1328.86 192 1225 c 256,26,27
 192 1120.57 192 1120.57 261.5 1050 c 0,28,29
 330.439 980 330.439 980 430 980 c 256,16,17
440 1394 m 2,30,31
 550 1394 550 1394 550 1303 c 0,32,33
 550 1230.14 550 1230.14 470 1213 c 1,34,35
 488 1200 488 1200 499 1181 c 2,36,-1
 520.5 1143.5 l 2,37,38
 547.435 1096.04 547.435 1096.04 579 1086 c 1,39,-1
 583 1083 l 1,40,-1
 579 1067 l 1,41,-1
 527 1063 l 1,42,43
 502.033 1076.22 502.033 1076.22 484.017 1113.11 c 0,44,45
 447.221 1188.45 447.221 1188.45 426 1211 c 1,46,-1
 381 1211 l 1,47,-1
 381 1095 l 1,48,-1
 430 1086 l 1,49,-1
 430 1067 l 1,50,-1
 303 1067 l 1,51,-1
 300 1069 l 1,52,-1
 305 1086 l 1,53,-1
 336 1095 l 1,54,-1
 336 1366 l 1,55,-1
 305 1373 l 1,56,-1
 303 1375 l 1,57,-1
 307 1394 l 1,58,-1
 440 1394 l 2,30,31
478.5 1351 m 128,-1,60
 459 1368 459 1368 432 1368 c 128,-1,61
 405 1368 405 1368 381 1364 c 1,62,-1
 381 1236 l 1,63,-1
 415 1234 l 1,64,65
 453 1234 453 1234 475.5 1248.5 c 128,-1,66
 498 1263 498 1263 498 1298.5 c 128,-1,59
 498 1334 498 1334 478.5 1351 c 128,-1,60
EndSplineSet
EndChar

StartChar: copyright
Encoding: 169 169 195
Width: 1877
Flags: HW
LayerCount: 2
Fore
SplineSet
104.5 531 m 128,-1,1
 78 629 78 629 78 761.5 c 128,-1,2
 78 894 78 894 136.5 1034.5 c 128,-1,3
 195 1175 195 1175 298.5 1280.5 c 128,-1,4
 402 1386 402 1386 544 1447 c 128,-1,5
 686 1508 686 1508 825.5 1508 c 128,-1,6
 965 1508 965 1508 1065.5 1480 c 128,-1,7
 1166 1452 1166 1452 1251.5 1401.5 c 128,-1,8
 1337 1351 1337 1351 1406 1280.5 c 128,-1,9
 1475 1210 1475 1210 1524 1124 c 0,10,11
 1625 946.735 1625 946.735 1625 735 c 0,12,13
 1625 415.261 1625 415.261 1406 191.5 c 0,14,15
 1265.2 47.6373 1265.2 47.6373 1065.5 -8 c 0,16,17
 965 -36 965 -36 853.5 -36 c 128,-1,18
 742 -36 742 -36 641 -8 c 128,-1,19
 540 20 540 20 454 70.5 c 128,-1,20
 368 121 368 121 298.5 191.5 c 128,-1,21
 229 262 229 262 180 347.5 c 128,-1,0
 131 433 131 433 104.5 531 c 128,-1,1
202 735 m 256,22,23
 202 448.712 202 448.712 391.5 256 c 0,24,25
 581.283 63 581.283 63 854 63 c 256,26,27
 991 63 991 63 1110.5 114.5 c 128,-1,28
 1230 166 1230 166 1318.5 256 c 0,29,30
 1508 448.712 1508 448.712 1508 735 c 256,31,32
 1508 1021.72 1508 1021.72 1318.5 1215.5 c 0,33,34
 1230 1306 1230 1306 1110.5 1357.5 c 128,-1,35
 991 1409 991 1409 854 1409 c 256,36,37
 580.724 1409 580.724 1409 391.5 1215.5 c 0,38,39
 202 1021.72 202 1021.72 202 735 c 256,22,23
1178 377 m 1,40,41
 1046.82 299 1046.82 299 852 299 c 0,42,43
 662.664 299 662.664 299 544.5 421.5 c 0,44,45
 431 539.165 431 539.165 431 711 c 0,46,47
 431 910.092 431 910.092 558 1044.5 c 0,48,49
 687.921 1182 687.921 1182 885 1182 c 0,50,51
 1056 1182 1056 1182 1178 1121 c 1,52,-1
 1133 937 l 1,53,54
 1106.67 937 1106.67 937 1088 944 c 1,55,56
 1088 1008 1088 1008 1079 1041 c 1,57,58
 1007.24 1102 1007.24 1102 848 1102 c 0,59,60
 737.057 1102 737.057 1102 659.5 1011 c 0,61,62
 577 914.2 577 914.2 577 756 c 0,63,64
 577 578.733 577 578.733 678 471 c 0,65,66
 768 375 768 375 897 375 c 0,67,68
 973 375 973 375 1020.5 400 c 128,-1,69
 1068 425 1068 425 1092 445 c 1,70,71
 1094 456 1094 456 1095 473.5 c 2,72,-1
 1097 507 l 2,73,74
 1098 525 1098 525 1099 546 c 1,75,76
 1126 555 1126 555 1149 555 c 1,77,-1
 1178 377 l 1,40,41
EndSplineSet
EndChar

StartChar: ordfeminine
Encoding: 170 170 196
Width: 853
Flags: HW
LayerCount: 2
Fore
SplineSet
194 1260 m 1,0,1
 329.667 1326 329.667 1326 431.333 1326 c 0,2,3
 632 1326 632 1326 632 1107 c 2,4,-1
 632 793 l 2,5,6
 632 766 632 766 642.5 766 c 0,7,8
 676.5 766 676.5 766 696.75 768.5 c 128,-1,9
 717 771 717 771 735 773 c 1,10,-1
 744 761 l 1,11,-1
 731 716 l 1,12,-1
 540 650 l 1,13,-1
 528 667 l 1,14,-1
 517 733 l 1,15,-1
 481.5 704.5 l 2,16,17
 417.069 654 417.069 654 363.034 654 c 128,-1,18
 309 654 309 654 268 671.5 c 128,-1,19
 227 689 227 689 200 717.5 c 0,20,21
 146 774.5 146 774.5 146 852 c 0,22,23
 146 920.634 146 920.634 184.5 953.5 c 0,24,25
 222.485 985.926 222.485 985.926 321 1000 c 2,26,-1
 439 1018 l 1,27,28
 496.2 1029 496.2 1029 509 1029 c 1,29,-1
 509 1083 l 2,30,31
 509 1248 509 1248 396 1248 c 0,32,33
 355 1248 355 1248 307.5 1233.5 c 2,34,-1
 229 1209 l 1,35,36
 194 1226.5 194 1226.5 194 1260 c 1,0,1
339.5 754.5 m 128,-1,38
 358 744 358 744 377 744 c 128,-1,39
 396 744 396 744 414 750 c 128,-1,40
 432 756 432 756 450 765 c 0,41,42
 487 783.5 487 783.5 513 803 c 1,43,-1
 509 803 l 1,44,-1
 509 953 l 1,45,46
 328.667 953 328.667 953 297.5 919 c 0,47,48
 281 901 281 901 281 870 c 128,-1,49
 281 839 281 839 288 818.5 c 128,-1,50
 295 798 295 798 308 781.5 c 128,-1,37
 321 765 321 765 339.5 754.5 c 128,-1,38
EndSplineSet
EndChar

StartChar: ordmasculine
Encoding: 186 186 197
Width: 854
Flags: HW
LayerCount: 2
Fore
SplineSet
414 654 m 0,0,1
 343 654 343 654 285 679.5 c 128,-1,2
 227 705 227 705 186 748.5 c 0,3,4
 100 839.744 100 839.744 100 977 c 0,5,6
 100 1122.41 100 1122.41 201.5 1225 c 0,7,8
 301.426 1326 301.426 1326 441 1326 c 0,9,10
 585.943 1326 585.943 1326 671 1233.5 c 0,11,12
 754 1143.24 754 1143.24 754 1003 c 0,13,14
 754 854.587 754 854.587 654 753.5 c 0,15,16
 555.57 654 555.57 654 414 654 c 0,0,1
443 723 m 0,17,18
 619 723 619 723 619 961 c 0,19,20
 619 1089.08 619 1089.08 552.5 1177 c 0,21,22
 491.231 1258 491.231 1258 411.615 1258 c 128,-1,23
 332 1258 332 1258 283 1199.5 c 128,-1,24
 234 1141 234 1141 234 1015 c 0,25,26
 234 892.1 234 892.1 301 805 c 0,27,28
 364.077 723 364.077 723 443 723 c 0,17,18
EndSplineSet
EndChar

StartChar: macron
Encoding: 175 175 198
Width: 681
Flags: HW
LayerCount: 2
Fore
SplineSet
29 1209 m 1,0,1
 8.43479 1270.7 8.43479 1270.7 43 1326 c 1,2,-1
 630 1326 l 1,3,4
 644.872 1263.54 644.872 1263.54 616 1209 c 1,5,-1
 29 1209 l 1,0,1
EndSplineSet
EndChar

StartChar: notequal
Encoding: 8800 8800 200
Width: 1194
Flags: HW
LayerCount: 2
Fore
SplineSet
1033 451 m 1,0,1
 1041 421 1041 421 1041 404 c 128,-1,2
 1041 387 1041 387 1033 357 c 1,3,-1
 542 357 l 1,4,-1
 399 63 l 1,5,6
 347.791 67.0967 347.791 67.0967 314 103 c 1,7,-1
 438 357 l 1,8,-1
 161 357 l 1,9,10
 144 403 144 403 161 451 c 1,11,-1
 484 451 l 1,12,-1
 606 703 l 1,13,-1
 161 703 l 1,14,15
 144 750 144 750 161 797 c 1,16,-1
 652 797 l 1,17,-1
 783 1065 l 1,18,19
 826.511 1056.3 826.511 1056.3 841.255 1045.65 c 128,-1,20
 856 1035 856 1035 867 1025 c 1,21,-1
 756 797 l 1,22,-1
 1033 797 l 1,23,24
 1041 767 1041 767 1041 750 c 128,-1,25
 1041 733 1041 733 1033 703 c 1,26,-1
 710 703 l 1,27,-1
 588 451 l 1,28,-1
 1033 451 l 1,0,1
EndSplineSet
EndChar

StartChar: m
Encoding: 109 109 201
Width: 2044
Flags: HW
LayerCount: 2
Fore
SplineSet
766 897 m 0,0,1
 626.667 897 626.667 897 458 820 c 1,2,-1
 458 128 l 1,3,-1
 618 94 l 1,4,-1
 622 80 l 1,5,-1
 611 0 l 1,6,-1
 163 0 l 1,7,-1
 156 9 l 1,8,-1
 166 85 l 1,9,-1
 298 128 l 1,10,-1
 298 796 l 1,11,-1
 159 857 l 1,12,-1
 149 869 l 1,13,-1
 159 923 l 1,14,-1
 422 1029 l 1,15,-1
 439 1020 l 1,16,-1
 439 897 l 1,17,18
 669.095 1048 669.095 1048 815 1048 c 0,19,20
 1010.31 1048 1010.31 1048 1089 897 c 1,21,22
 1099.48 907.48 1099.48 907.48 1141.24 931.24 c 2,23,-1
 1220 974.5 l 1,24,25
 1359.46 1048 1359.46 1048 1450.73 1048 c 128,-1,26
 1542 1048 1542 1048 1601 1024 c 128,-1,27
 1660 1000 1660 1000 1700 956 c 0,28,29
 1781 866.9 1781 866.9 1781 706 c 2,30,-1
 1781 128 l 1,31,-1
 1955 94 l 1,32,-1
 1963 80 l 1,33,-1
 1950 0 l 1,34,-1
 1473 0 l 1,35,-1
 1469 9 l 1,36,-1
 1478 85 l 1,37,-1
 1621 128 l 1,38,-1
 1621 659 l 2,39,40
 1621 897 1621 897 1419 897 c 0,41,42
 1273 897 1273 897 1117 825 c 1,43,44
 1132 752.5 1132 752.5 1132 706 c 2,45,-1
 1132 128 l 1,46,-1
 1291 94 l 1,47,-1
 1298 80 l 1,48,-1
 1285 0 l 1,49,-1
 822 0 l 1,50,-1
 818 9 l 1,51,-1
 827 85 l 1,52,-1
 971 128 l 1,53,-1
 971 659 l 2,54,55
 971 897 971 897 766 897 c 0,0,1
EndSplineSet
EndChar

StartChar: o
Encoding: 111 111 202
Width: 1195
Flags: HW
LayerCount: 2
Fore
SplineSet
88 490 m 0,0,1
 88 603 88 603 130.5 706 c 128,-1,2
 173 809 173 809 246 885 c 0,3,4
 402.566 1048 402.566 1048 619 1048 c 0,5,6
 842 1048 842 1048 977 898 c 0,7,8
 1107 753.556 1107 753.556 1107 526 c 0,9,10
 1107 288.083 1107 288.083 951 124.5 c 0,11,12
 797.94 -36 797.94 -36 578 -36 c 0,13,14
 361.493 -36 361.493 -36 222.5 117 c 0,15,16
 88 265.054 88 265.054 88 490 c 0,0,1
288 720.5 m 128,-1,18
 266 647 266 647 266 545.5 c 128,-1,19
 266 444 266 444 298 358 c 128,-1,20
 330 272 330 272 381 209 c 0,21,22
 488.667 76 488.667 76 622 76 c 0,23,24
 842.39 76 842.39 76 906.5 284 c 0,25,26
 929 357 929 357 929 462 c 128,-1,27
 929 567 929 567 896.5 655 c 128,-1,28
 864 743 864 743 813.5 805.5 c 128,-1,29
 763 868 763 868 701.5 902.5 c 128,-1,30
 640 937 640 937 574.5 937 c 128,-1,31
 509 937 509 937 450.5 913.5 c 128,-1,32
 392 890 392 890 351 842 c 128,-1,17
 310 794 310 794 288 720.5 c 128,-1,18
EndSplineSet
EndChar

StartChar: approxequal
Encoding: 8776 8776 223
Width: 1194
Flags: HW
LayerCount: 2
Fore
SplineSet
404 732 m 0,0,1
 316 732 316 732 190 606 c 1,2,3
 153.6 617.2 153.6 617.2 136.5 659 c 0,4,5
 132 670 132 670 131 679 c 1,6,7
 280.17 850 280.17 850 446 850 c 0,8,9
 495 850 495 850 538.5 830.5 c 128,-1,10
 582 811 582 811 623 788 c 128,-1,11
 664 765 664 765 703 745.5 c 128,-1,12
 742 726 742 726 783 726 c 0,13,14
 896.571 726 896.571 726 1002 849 c 1,15,16
 1052.46 830.079 1052.46 830.079 1062 776 c 1,17,18
 935.25 607 935.25 607 752 607 c 0,19,20
 699 607 699 607 655.5 626.5 c 128,-1,21
 612 646 612 646 572 669.5 c 128,-1,22
 532 693 532 693 491.5 712.5 c 128,-1,23
 451 732 451 732 404 732 c 0,0,1
404 390 m 0,24,25
 316 390 316 390 190 264 c 1,26,27
 153.6 275.2 153.6 275.2 136.5 317 c 0,28,29
 132 328 132 328 131 337 c 1,30,31
 280.17 508 280.17 508 446 508 c 0,32,33
 495 508 495 508 538.5 488.5 c 128,-1,34
 582 469 582 469 623 446 c 128,-1,35
 664 423 664 423 703 403.5 c 128,-1,36
 742 384 742 384 783 384 c 0,37,38
 896.571 384 896.571 384 1002 507 c 1,39,40
 1052.46 488.079 1052.46 488.079 1062 434 c 1,41,42
 935.25 265 935.25 265 752 265 c 0,43,44
 699 265 699 265 655.5 284.5 c 128,-1,45
 612 304 612 304 572 327.5 c 128,-1,46
 532 351 532 351 491.5 370.5 c 128,-1,47
 451 390 451 390 404 390 c 0,24,25
EndSplineSet
EndChar

StartChar: lozenge
Encoding: 9674 9674 224
Width: 1884
Flags: HW
LayerCount: 2
Fore
SplineSet
342 728 m 2,0,1
 330 745 330 745 336.5 764 c 128,-1,2
 343 783 343 783 353 793 c 1,3,-1
 910 1589 l 2,4,5
 925.285 1610.4 925.285 1610.4 965.5 1585 c 0,6,7
 975 1579 975 1579 980 1573 c 2,8,-1
 1540 773 l 2,9,10
 1558.5 747.779 1558.5 747.779 1526 706 c 1,11,-1
 973 -90 l 2,12,13
 956.878 -111.496 956.878 -111.496 914.5 -82.5 c 0,14,15
 905 -76 905 -76 902 -72 c 2,16,-1
 342 728 l 2,0,1
940 29 m 1,17,-1
 1425 749 l 1,18,-1
 942 1472 l 1,19,-1
 454 751 l 1,20,-1
 940 29 l 1,17,-1
EndSplineSet
EndChar

StartChar: ccedilla
Encoding: 231 231 225
Width: 1024
Flags: HW
LayerCount: 2
Fore
SplineSet
469 -218 m 1,0,1
 443.562 -204.125 443.562 -204.125 423 -163 c 1,2,-1
 481 -26 l 1,3,4
 302.404 9.32671 302.404 9.32671 200.5 148 c 0,5,6
 102 282.041 102 282.041 102 474 c 0,7,8
 102 711.52 102 711.52 264 880 c 0,9,10
 425.538 1048 425.538 1048 653 1048 c 0,11,12
 822.947 1048 822.947 1048 916 980 c 1,13,14
 910.52 928.857 910.52 928.857 884.76 886.428 c 128,-1,15
 859 844 859 844 829 820 c 1,16,17
 691.742 935 691.742 935 547 935 c 0,18,19
 434.037 935 434.037 935 351 817 c 0,20,21
 269 700.474 269 700.474 269 537 c 0,22,23
 269 345.358 269 345.358 390 225.5 c 0,24,25
 496.505 120 496.505 120 635 120 c 256,26,27
 789.567 120 789.567 120 893 227 c 1,28,29
 949 202.5 949 202.5 949 153 c 1,30,31
 774.565 -6.89919 774.565 -6.89919 634 -32 c 1,32,-1
 603 -121 l 1,33,34
 652.333 -103.381 652.333 -103.381 689 -106 c 0,35,36
 762 -111 762 -111 799.5 -160.5 c 128,-1,37
 837 -210 837 -210 833 -276 c 128,-1,38
 829 -342 829 -342 795.5 -385.5 c 128,-1,39
 762 -429 762 -429 710.5 -461.5 c 0,40,41
 601.954 -530 601.954 -530 461 -530 c 1,42,43
 450 -517.167 450 -517.167 449.5 -489.083 c 128,-1,44
 449 -461 449 -461 451 -442 c 1,45,46
 550 -438 550 -438 606.5 -398.5 c 0,47,48
 683.651 -344.562 683.651 -344.562 663.5 -255 c 0,49,50
 647.975 -186 647.975 -186 575.63 -186 c 128,-1,51
 503.286 -186 503.286 -186 469 -218 c 1,0,1
EndSplineSet
EndChar

StartChar: partialdiff
Encoding: 8706 8706 233
Width: 1196
Flags: HW
LayerCount: 2
Fore
SplineSet
635 1379.5 m 128,-1,1
 552 1423 552 1423 410.786 1423 c 128,-1,2
 269.571 1423 269.571 1423 161 1347 c 1,3,4
 102.407 1361.65 102.407 1361.65 100 1417 c 1,5,6
 249.074 1532 249.074 1532 488 1532 c 0,7,8
 851.769 1532 851.769 1532 988.5 1202.5 c 0,9,10
 1074.36 995.596 1074.36 995.596 1063.5 674.5 c 0,11,12
 1046.02 157.657 1046.02 157.657 745 16 c 0,13,14
 660 -24 660 -24 558.5 -24 c 128,-1,15
 457 -24 457 -24 381 4.5 c 128,-1,16
 305 33 305 33 247 84.5 c 0,17,18
 125.015 192.814 125.015 192.814 111 367 c 0,19,20
 102 489 102 489 145.5 590.5 c 128,-1,21
 189 692 189 692 268.5 764.5 c 0,22,23
 436.821 918 436.821 918 683 918 c 0,24,25
 793 918 793 918 898 885 c 1,26,27
 868.546 1129.7 868.546 1129.7 772 1262 c 0,28,0
 718 1336 718 1336 635 1379.5 c 128,-1,1
293 589.5 m 128,-1,30
 266 516 266 516 272.5 433 c 128,-1,31
 279 350 279 350 306 289 c 128,-1,32
 333 228 333 228 376.5 182 c 0,33,34
 470.12 83 470.12 83 605 83 c 0,35,36
 815.8 83 815.8 83 883 347 c 0,37,38
 923.066 504.404 923.066 504.404 910 720 c 1,39,40
 782.568 809 782.568 809 626 809 c 0,41,42
 470.515 809 470.515 809 370 711.5 c 0,43,29
 320 663 320 663 293 589.5 c 128,-1,30
EndSplineSet
EndChar

StartChar: summation
Encoding: 8721 8721 234
Width: 1533
Flags: HW
LayerCount: 2
Fore
SplineSet
769 677 m 1,0,-1
 208 1472 l 1,1,2
 199.75 1488.5 199.75 1488.5 212.875 1511.25 c 0,3,4
 236.962 1553 236.962 1553 254 1553 c 2,5,-1
 1291 1553 l 1,6,-1
 1257 1249 l 1,7,8
 1220.07 1242.48 1220.07 1242.48 1174 1254 c 1,9,-1
 1116 1436 l 1,10,-1
 434 1448 l 1,11,-1
 983 680 l 1,12,-1
 454 -69 l 1,13,-1
 1156 -53 l 1,14,-1
 1241 180 l 1,15,16
 1275.29 190.286 1275.29 190.286 1319 180 c 1,17,-1
 1328 -180 l 1,18,-1
 224 -179 l 1,19,20
 208.205 -167.513 208.205 -167.513 188 -117 c 1,21,-1
 769 677 l 1,0,-1
EndSplineSet
EndChar

StartChar: product
Encoding: 8719 8719 235
Width: 1533
Flags: HW
LayerCount: 2
Fore
SplineSet
38 -85 m 1,0,-1
 181 -42 l 1,1,-1
 170 1364 l 1,2,-1
 31 1398 l 1,3,-1
 24 1411 l 1,4,-1
 38 1492 l 1,5,-1
 1345 1492 l 1,6,-1
 1350 1483 l 1,7,-1
 1341 1407 l 1,8,-1
 1190 1364 l 1,9,-1
 1201 -42 l 1,10,-1
 1347 -76 l 1,11,-1
 1354 -90 l 1,12,-1
 1340 -170 l 1,13,-1
 850 -170 l 1,14,-1
 846 -161 l 1,15,-1
 855 -85 l 1,16,-1
 1016 -37 l 1,17,-1
 1006 1351 l 1,18,-1
 354 1351 l 1,19,-1
 364 -43 l 1,20,-1
 506 -76 l 1,21,-1
 513 -90 l 1,22,-1
 498 -170 l 1,23,-1
 33 -170 l 1,24,-1
 28 -161 l 1,25,-1
 38 -85 l 1,0,-1
EndSplineSet
EndChar

StartChar: pi
Encoding: 960 960 236
Width: 1537
Flags: HW
LayerCount: 2
Fore
SplineSet
1356 209 m 1,0,1
 1274.72 -23.9999 1274.72 -23.9999 1065 -24 c 0,2,3
 936.324 -24 936.324 -24 934.5 173 c 0,4,5
 934 227 934 227 937 280 c 2,6,-1
 980 955 l 1,7,-1
 598 955 l 1,8,-1
 577 430 l 1,9,10
 565.129 259.853 565.129 259.853 545.065 202.426 c 128,-1,11
 525 145 525 145 502 114 c 128,-1,12
 479 83 479 83 447.5 54 c 0,13,14
 390.703 1.71101 390.703 1.71101 305 -24 c 1,15,16
 257.372 -22.0155 257.372 -22.0155 210.5 26 c 0,17,18
 162.965 74.6941 162.965 74.6941 161 114 c 1,19,20
 189.2 118.7 189.2 118.7 239.6 142.85 c 128,-1,21
 290 167 290 167 322.5 189.5 c 128,-1,22
 355 212 355 212 382 244.5 c 128,-1,23
 409 277 409 277 425 314.5 c 0,24,25
 450.211 373.589 450.211 373.589 457 489 c 1,26,-1
 479 955 l 1,27,-1
 418 955 l 2,28,29
 241.739 955 241.739 955 212 879 c 1,30,31
 177 878 177 878 158 890.5 c 128,-1,32
 139 903 139 903 122 935 c 1,33,34
 202.96 1119 202.96 1119 473 1119 c 2,35,-1
 1116 1119 l 2,36,37
 1260.62 1119 1260.62 1119 1315 1226 c 1,38,39
 1348.34 1242.67 1348.34 1242.67 1398 1207.5 c 0,40,41
 1410 1199 1410 1199 1416 1190 c 1,42,43
 1372.48 1010.13 1372.48 1010.13 1217.5 969.5 c 0,44,45
 1166 956 1166 956 1102 955 c 1,46,-1
 1068 261 l 1,47,48
 1068 164 1068 164 1118 164 c 0,49,50
 1192.43 164 1192.43 164 1250.5 237 c 0,51,52
 1268 259 1268 259 1278 286 c 1,53,54
 1319.66 278.065 1319.66 278.065 1337.83 255.533 c 128,-1,55
 1356 233 1356 233 1356 209 c 1,0,1
EndSplineSet
EndChar

StartChar: integral
Encoding: 8747 8747 237
Width: 1024
Flags: HW
LayerCount: 2
Fore
SplineSet
115 -234 m 1,0,1
 125.422 -277.774 125.422 -277.774 162.211 -304.387 c 0,2,3
 228.029 -352 228.029 -352 294.015 -352 c 128,-1,4
 360 -352 360 -352 402.5 -332 c 128,-1,5
 445 -312 445 -312 468 -271 c 0,6,7
 507 -201.478 507 -201.478 507 -59.2391 c 128,-1,8
 507 83 507 83 494.5 184.5 c 128,-1,9
 482 286 482 286 463.5 387.5 c 128,-1,10
 445 489 445 489 423 590.5 c 128,-1,11
 401 692 401 692 382.5 793.5 c 0,12,13
 339 1032.16 339 1032.16 339 1167.58 c 128,-1,14
 339 1303 339 1303 368 1396.5 c 128,-1,15
 397 1490 397 1490 452 1560.5 c 0,16,17
 570.972 1713 570.972 1713 761 1713 c 0,18,19
 892.103 1713 892.103 1713 979 1643 c 0,20,21
 1015 1614 1015 1614 1036 1566 c 1,22,23
 965.367 1443.57 965.367 1443.57 906 1475 c 1,24,25
 895.578 1518.77 895.578 1518.77 858.789 1545.39 c 0,26,27
 792.971 1593 792.971 1593 726.985 1593 c 128,-1,28
 661 1593 661 1593 618.5 1573 c 128,-1,29
 576 1553 576 1553 553 1512 c 0,30,31
 514 1442.48 514 1442.48 514 1300.24 c 128,-1,32
 514 1158 514 1158 526.5 1056.5 c 128,-1,33
 539 955 539 955 557.5 853.5 c 128,-1,34
 576 752 576 752 598 651 c 128,-1,35
 620 550 620 550 638.5 448.5 c 0,36,37
 682 209.838 682 209.838 682 73.9189 c 128,-1,38
 682 -62 682 -62 653 -155.5 c 128,-1,39
 624 -249 624 -249 569 -319.5 c 0,40,41
 450.028 -472 450.028 -472 260 -472 c 0,42,43
 128.897 -472 128.897 -472 42 -402 c 0,44,45
 6 -373 6 -373 -15 -325 c 1,46,47
 33.081 -235.707 33.081 -235.707 115 -234 c 1,0,1
EndSplineSet
EndChar

StartChar: Omega
Encoding: 937 937 238
AltUni2: 002126.ffffffff.0
Width: 2047
Flags: HW
LayerCount: 2
Fore
SplineSet
177 392 m 1,0,1
 218.091 407.409 218.091 407.409 259 404 c 1,2,-1
 348 181 l 1,3,-1
 733 155 l 1,4,5
 581.526 254.835 581.526 254.835 464 437 c 0,6,7
 327.502 648.572 327.502 648.572 333 852 c 1,8,9
 340.365 1316.01 340.365 1316.01 704.5 1483 c 0,10,11
 857.139 1553 857.139 1553 1024.57 1553 c 128,-1,12
 1192 1553 1192 1553 1316 1512 c 128,-1,13
 1440 1471 1440 1471 1529.5 1388 c 0,14,15
 1719.78 1211.54 1719.78 1211.54 1714 888 c 0,16,17
 1711.22 715.479 1711.22 715.479 1580.5 488 c 0,18,19
 1463.65 284.654 1463.65 284.654 1317 158 c 1,20,-1
 1699 182 l 1,21,-1
 1788 404 l 1,22,23
 1826.83 407.236 1826.83 407.236 1870 392 c 1,24,-1
 1822 0 l 1,25,-1
 1152 0 l 1,26,-1
 1152 166 l 1,27,28
 1312.35 261.793 1312.35 261.793 1410.5 450 c 0,29,30
 1514 648.464 1514 648.464 1514 887 c 0,31,32
 1514 1178.27 1514 1178.27 1363 1321.5 c 0,33,34
 1237.02 1441 1237.02 1441 1031 1441 c 0,35,36
 675.214 1441 675.214 1441 568 1125 c 0,37,38
 530 1013 530 1013 530 892 c 128,-1,39
 530 771 530 771 547.5 694.5 c 128,-1,40
 565 618 565 618 594.5 549 c 128,-1,41
 624 480 624 480 663 420 c 128,-1,42
 702 360 702 360 745 311 c 0,43,44
 830.491 213.58 830.491 213.58 917 166 c 1,45,-1
 917 0 l 1,46,-1
 225 0 l 1,47,-1
 177 392 l 1,0,1
EndSplineSet
EndChar

StartChar: radical
Encoding: 8730 8730 239
Width: 1702
Flags: HW
LayerCount: 2
Fore
SplineSet
200 579 m 1,0,-1
 361 708 l 1,1,-1
 530 708 l 1,2,-1
 865 -177 l 1,3,-1
 873 -177 l 1,4,-1
 1506 1920 l 1,5,-1
 1669 1920 l 1,6,-1
 950 -354 l 1,7,-1
 773 -354 l 1,8,-1
 385 555 l 1,9,-1
 259 473 l 1,10,-1
 200 579 l 1,0,-1
EndSplineSet
EndChar

StartChar: Delta
Encoding: 916 916 240
AltUni2: 002206.ffffffff.0
Width: 1877
Flags: HW
LayerCount: 2
Fore
SplineSet
890 1516 m 1,0,-1
 922 1516 l 1,1,-1
 1675 27 l 1,2,-1
 1659 1 l 1,3,-1
 216 1 l 1,4,-1
 202 22 l 1,5,-1
 890 1516 l 1,0,-1
1409 120 m 1,6,-1
 869 1213 l 1,7,-1
 371 120 l 1,8,-1
 1409 120 l 1,6,-1
EndSplineSet
EndChar

StartChar: lessequal
Encoding: 8804 8804 241
Width: 1193
Flags: HW
LayerCount: 2
Fore
SplineSet
143 900 m 1,0,1
 137.929 940.571 137.929 940.571 160 970 c 1,2,-1
 983 1547 l 1,3,4
 1039.9 1525.66 1039.9 1525.66 1050 1460 c 1,5,-1
 261 933 l 1,6,-1
 1043 405 l 1,7,8
 1031.04 341.211 1031.04 341.211 981 315 c 1,9,-1
 143 900 l 1,0,1
1028 47.5 m 128,-1,11
 1028 30 1028 30 1020 0 c 1,12,-1
 168 0 l 1,13,14
 151 47 151 47 168 95 c 1,15,-1
 1020 95 l 1,16,10
 1028 65 1028 65 1028 47.5 c 128,-1,11
EndSplineSet
EndChar

StartChar: infinity
Encoding: 8734 8734 243
Width: 1770
Flags: HW
LayerCount: 2
Fore
SplineSet
608 263.5 m 0,0,1
 559 241 559 241 481.5 239.5 c 128,-1,2
 404 238 404 238 331.5 268.5 c 128,-1,3
 259 299 259 299 211 349.5 c 0,4,5
 115 450.5 115 450.5 115 597 c 0,6,7
 115 763.598 115 763.598 232.5 880 c 0,8,9
 347.575 994 347.575 994 506 994 c 0,10,11
 670.99 994 670.99 994 828 824.5 c 0,12,13
 872 777 872 777 912 728 c 1,14,15
 1010.87 854.061 1010.87 854.061 1069.44 900.531 c 0,16,17
 1185.01 992.237 1185.01 992.237 1285.51 993.619 c 128,-1,18
 1386 995 1386 995 1455.5 965 c 128,-1,19
 1525 935 1525 935 1569 884.5 c 0,20,21
 1655 785.795 1655 785.795 1655 637 c 0,22,23
 1655 470.402 1655 470.402 1537.5 354 c 0,24,25
 1422.42 240 1422.42 240 1264 240 c 0,26,27
 1098.08 240 1098.08 240 942 408.5 c 0,28,29
 898 456 898 456 858 505 c 1,30,-1
 781 406.5 l 1,31,32
 697.231 304.473 697.231 304.473 608 263.5 c 0,0,1
428 380.5 m 128,-1,34
 471 357 471 357 517.5 357 c 128,-1,35
 564 357 564 357 602 376.5 c 128,-1,36
 640 396 640 396 675.5 427.5 c 0,37,38
 731.839 477.491 731.839 477.491 804 582 c 1,39,-1
 736 676 l 1,40,41
 597.647 872 597.647 872 475 872 c 0,42,43
 382.333 872 382.333 872 333 798 c 0,44,45
 291 735 291 735 291 658 c 128,-1,46
 291 581 291 581 307.5 531.5 c 128,-1,47
 324 482 324 482 354.5 443 c 128,-1,33
 385 404 385 404 428 380.5 c 128,-1,34
1315 352 m 0,48,49
 1479 352 1479 352 1479 600 c 0,50,51
 1479 709.5 1479 709.5 1425 784.5 c 0,52,53
 1365.6 867 1365.6 867 1267 867 c 0,54,55
 1135.18 867 1135.18 867 967 650 c 1,56,-1
 1039 552.5 l 2,57,58
 1187.94 352 1187.94 352 1315 352 c 0,48,49
EndSplineSet
EndChar

StartChar: lacute
Encoding: 314 314 269
Width: 684
Flags: HW
LayerCount: 2
Fore
SplineSet
135 85 m 1,0,-1
 265 128 l 1,1,-1
 265 1276 l 1,2,-1
 108 1316 l 1,3,-1
 97 1330 l 1,4,-1
 108 1384 l 1,5,-1
 409 1496 l 1,6,-1
 425 1487 l 1,7,-1
 425 128 l 1,8,-1
 585 94 l 1,9,-1
 593 80 l 1,10,-1
 578 0 l 1,11,-1
 131 0 l 1,12,-1
 126 9 l 1,13,-1
 135 85 l 1,0,-1
344 1608 m 1,14,15
 283.271 1618.12 283.271 1618.12 259 1684 c 1,16,17
 433.306 1840.43 433.306 1840.43 530 2017 c 1,18,19
 619.56 1991.92 619.56 1991.92 660 1907 c 1,20,21
 578.527 1784.79 578.527 1784.79 438.5 1674 c 0,22,23
 393 1638 393 1638 344 1608 c 1,14,15
EndSplineSet
EndChar

StartChar: hcircumflex
Encoding: 293 293 275
Width: 1365
Flags: HW
LayerCount: 2
Fore
SplineSet
743 897 m 0,0,1
 600.667 897 600.667 897 432 820 c 1,2,-1
 432 128 l 1,3,-1
 593 94 l 1,4,-1
 600 80 l 1,5,-1
 585 0 l 1,6,-1
 137 0 l 1,7,-1
 133 9 l 1,8,-1
 142 85 l 1,9,-1
 272 128 l 1,10,-1
 272 1348 l 1,11,-1
 114 1388 l 1,12,-1
 105 1400 l 1,13,-1
 114 1454 l 1,14,-1
 416 1566 l 1,15,-1
 432 1557 l 1,16,-1
 432 910 l 1,17,18
 642.632 1048 642.632 1048 791 1048 c 0,19,20
 940.269 1048 940.269 1048 1025 949.5 c 0,21,22
 1106 855.338 1106 855.338 1106 695 c 2,23,-1
 1106 128 l 1,24,-1
 1280 94 l 1,25,-1
 1287 80 l 1,26,-1
 1275 0 l 1,27,-1
 800 0 l 1,28,-1
 793 9 l 1,29,-1
 802 85 l 1,30,-1
 946 128 l 1,31,-1
 946 647 l 2,32,33
 946 897 946 897 743 897 c 0,0,1
41 1586 m 1,34,35
 11.5907 1596.69 11.5907 1596.69 -2.20465 1617.85 c 128,-1,36
 -16 1639 -16 1639 -26 1657 c 1,37,38
 -12 1669 -12 1669 14.5 1698 c 0,39,40
 91.9094 1786.18 91.9094 1786.18 129.955 1833.59 c 2,41,-1
 244 1978 l 2,42,43
 264 2004 264 2004 269 2012 c 1,44,45
 339 2027 339 2027 410 2012 c 1,46,47
 418 1998 418 1998 440.5 1968 c 0,48,49
 672.957 1672.72 672.957 1672.72 689 1654 c 1,50,51
 672.25 1612.13 672.25 1612.13 643 1597.5 c 0,52,53
 632 1592 632 1592 616 1586 c 1,54,55
 556.984 1628.42 556.984 1628.42 498.992 1692.21 c 1,56,57
 390.906 1814.47 390.906 1814.47 354 1861 c 1,58,-1
 329 1861 l 1,59,60
 305 1833 305 1833 268.5 1794 c 2,61,-1
 192 1715 l 1,62,63
 97.8333 1620.83 97.8333 1620.83 41 1586 c 1,34,35
EndSplineSet
EndChar

StartChar: eth
Encoding: 240 240 284
Width: 1196
Flags: HW
LayerCount: 2
Fore
SplineSet
413 1562 m 1,0,1
 558.709 1488.09 558.709 1488.09 671 1402 c 1,2,-1
 936 1535 l 1,3,4
 969.163 1508.47 969.163 1508.47 977 1451 c 1,5,-1
 748 1333 l 1,6,7
 950.092 1139.16 950.092 1139.16 1043 853 c 0,8,9
 1098 683.6 1098 683.6 1098 532.3 c 128,-1,10
 1098 381 1098 381 1058 282.5 c 128,-1,11
 1018 184 1018 184 947 113 c 0,12,13
 798 -36 798 -36 568 -36 c 0,14,15
 351.493 -36 351.493 -36 212.5 117 c 0,16,17
 78 265.054 78 265.054 78 485 c 0,18,19
 78 742.271 78 742.271 237 882.5 c 0,20,21
 377.031 1006 377.031 1006 593 1006 c 0,22,23
 724 1006 724 1006 800 958 c 1,24,25
 715.4 1181.59 715.4 1181.59 628 1272 c 1,26,27
 364 1137.48 364 1137.48 364 1140 c 1,28,29
 326.919 1170.13 326.919 1170.13 323 1225 c 1,30,-1
 555 1342 l 1,31,32
 446.182 1433.64 446.182 1433.64 354 1488 c 1,33,34
 357.409 1527.21 357.409 1527.21 386 1548 c 1,35,36
 398 1558 398 1558 413 1562 c 1,0,1
258 545.5 m 0,37,38
 258 444 258 444 290 358 c 128,-1,39
 322 272 322 272 373 209 c 0,40,41
 480.667 76 480.667 76 613 76 c 0,42,43
 831.985 76 831.985 76 897.5 274 c 0,44,45
 920 342 920 342 920 443 c 128,-1,46
 920 544 920 544 897 629 c 128,-1,47
 874 714 874 714 833 773 c 0,48,49
 748.22 895 748.22 895 607 895 c 0,50,51
 258 895 258 895 258 545.5 c 0,37,38
EndSplineSet
EndChar

StartChar: Aogonek
Encoding: 260 260 285
Width: 1535
Flags: HW
LayerCount: 2
Fore
SplineSet
1215 -281 m 0,0,1
 1215 -360 1215 -360 1298 -360 c 0,2,3
 1334.53 -360 1334.53 -360 1383.76 -333 c 128,-1,4
 1433 -306 1433 -306 1434 -306 c 256,5,6
 1441 -306 1441 -306 1453 -316.5 c 0,7,8
 1478 -338.375 1478 -338.375 1478 -367 c 1,9,10
 1413.98 -432.901 1413.98 -432.901 1343.99 -460.45 c 128,-1,11
 1274 -488 1274 -488 1228 -488 c 128,-1,12
 1182 -488 1182 -488 1151 -474.5 c 128,-1,13
 1120 -461 1120 -461 1098 -436.5 c 0,14,15
 1053 -386.386 1053 -386.386 1053 -304 c 0,16,17
 1053 -198.2 1053 -198.2 1131 -89 c 0,18,19
 1165 -41 1165 -41 1210 0 c 1,20,-1
 1030 0 l 1,21,-1
 1026 9 l 1,22,-1
 1035 85 l 1,23,-1
 1164 128 l 1,24,-1
 1021 533 l 1,25,-1
 455 533 l 1,26,-1
 319 128 l 1,27,-1
 455 94 l 1,28,-1
 462 80 l 1,29,-1
 448 0 l 1,30,-1
 30 0 l 1,31,-1
 24 9 l 1,32,-1
 34 85 l 1,33,-1
 187 128 l 1,34,-1
 673 1480 l 1,35,36
 723.221 1506.31 723.221 1506.31 857 1528 c 1,37,-1
 1356 128 l 1,38,-1
 1516 94 l 1,39,-1
 1523 80 l 1,40,-1
 1509 0 l 1,41,-1
 1349 0 l 1,42,43
 1276 -67.2327 1276 -67.2327 1235.5 -168 c 0,44,45
 1215 -219 1215 -219 1215 -281 c 0,0,1
979 651 m 1,46,-1
 731 1317 l 1,47,-1
 496 651 l 1,48,-1
 979 651 l 1,46,-1
EndSplineSet
EndChar

StartChar: Eogonek
Encoding: 280 280 286
Width: 1361
Flags: HW
LayerCount: 2
Fore
SplineSet
920 -281 m 0,0,1
 920 -360 920 -360 1003 -360 c 0,2,3
 1039.53 -360 1039.53 -360 1088.76 -333 c 128,-1,4
 1138 -306 1138 -306 1139 -306 c 256,5,6
 1146 -306 1146 -306 1158 -316.5 c 0,7,8
 1183 -338.375 1183 -338.375 1183 -367 c 1,9,10
 1118.98 -432.901 1118.98 -432.901 1048.99 -460.45 c 128,-1,11
 979 -488 979 -488 933 -488 c 128,-1,12
 887 -488 887 -488 856 -474.5 c 128,-1,13
 825 -461 825 -461 803 -436.5 c 0,14,15
 758 -386.386 758 -386.386 758 -304 c 0,16,17
 758 -198.2 758 -198.2 862 -89 c 0,18,19
 908 -41 908 -41 967 0 c 1,20,-1
 92 0 l 1,21,-1
 87 9 l 1,22,-1
 96 85 l 1,23,-1
 240 128 l 1,24,-1
 240 1360 l 1,25,-1
 101 1393 l 1,26,-1
 94 1407 l 1,27,-1
 108 1492 l 1,28,-1
 1144 1492 l 1,29,-1
 1110 1188 l 1,30,31
 1073.07 1181.48 1073.07 1181.48 1027 1193 c 1,32,-1
 969 1375 l 1,33,-1
 429 1375 l 1,34,-1
 429 821 l 1,35,-1
 836 821 l 1,36,-1
 886 963 l 1,37,38
 914 970 914 970 963 963 c 1,39,-1
 963 561 l 1,40,41
 919.688 553.781 919.688 553.781 886 561 c 1,42,-1
 836 702 l 1,43,-1
 429 702 l 1,44,-1
 429 117 l 1,45,-1
 1012 117 l 1,46,-1
 1097 360 l 1,47,48
 1131.29 370.286 1131.29 370.286 1175 360 c 1,49,-1
 1184 0 l 1,50,-1
 1105 0 l 1,51,52
 1066.93 -19.037 1066.93 -19.037 1026.46 -63.0185 c 128,-1,53
 986 -107 986 -107 966 -138 c 0,54,55
 920 -209.3 920 -209.3 920 -281 c 0,0,1
EndSplineSet
EndChar

StartChar: iogonek
Encoding: 303 303 287
Width: 682
Flags: HW
LayerCount: 2
Fore
SplineSet
392 1220 m 128,-1,1
 369 1209 369 1209 346.5 1209 c 128,-1,2
 324 1209 324 1209 302.5 1218.5 c 128,-1,3
 281 1228 281 1228 264 1243.5 c 0,4,5
 225 1279.06 225 1279.06 225 1312.03 c 128,-1,6
 225 1345 225 1345 234.5 1366.5 c 128,-1,7
 244 1388 244 1388 260 1406 c 0,8,9
 295.556 1446 295.556 1446 344 1446 c 0,10,11
 388.031 1446 388.031 1446 417.516 1420.5 c 0,12,13
 470 1375.11 470 1375.11 470 1333 c 256,14,15
 470 1287.57 470 1287.57 442.5 1259.29 c 128,-1,0
 415 1231 415 1231 392 1220 c 128,-1,1
320 -281 m 0,16,17
 320 -360 320 -360 403 -360 c 0,18,19
 439.529 -360 439.529 -360 488.765 -333 c 128,-1,20
 538 -306 538 -306 539 -306 c 256,21,22
 546 -306 546 -306 558 -316.5 c 0,23,24
 583 -338.375 583 -338.375 583 -367 c 1,25,26
 518.982 -432.901 518.982 -432.901 448.991 -460.45 c 128,-1,27
 379 -488 379 -488 333 -488 c 128,-1,28
 287 -488 287 -488 256 -474.5 c 128,-1,29
 225 -461 225 -461 203 -436.5 c 0,30,31
 158 -386.386 158 -386.386 158 -313.693 c 0,32,33
 158 -146.429 158 -146.429 308 0 c 1,34,-1
 137 0 l 1,35,-1
 130 9 l 1,36,-1
 140 85 l 1,37,-1
 272 128 l 1,38,-1
 272 789 l 1,39,-1
 133 848 l 1,40,-1
 122 860 l 1,41,-1
 133 914 l 1,42,-1
 415 1029 l 1,43,-1
 432 1020 l 1,44,-1
 432 128 l 1,45,-1
 592 94 l 1,46,-1
 596 80 l 1,47,-1
 585 0 l 1,48,-1
 447 0 l 1,49,50
 378.137 -66.9506 378.137 -66.9506 349.068 -142.975 c 128,-1,51
 320 -219 320 -219 320 -281 c 0,16,17
EndSplineSet
EndChar

StartChar: eogonek
Encoding: 281 281 288
Width: 1025
Flags: HW
LayerCount: 2
Fore
SplineSet
621 -281 m 0,0,1
 621 -360 621 -360 704 -360 c 0,2,3
 743.706 -360 743.706 -360 791.353 -333 c 128,-1,4
 839 -306 839 -306 840 -306 c 256,5,6
 846.5 -306 846.5 -306 859.25 -316.5 c 0,7,8
 885 -337.706 885 -337.706 885 -367 c 1,9,10
 818.224 -433.776 818.224 -433.776 748.612 -460.888 c 128,-1,11
 679 -488 679 -488 633 -488 c 128,-1,12
 587 -488 587 -488 556.5 -474.5 c 128,-1,13
 526 -461 526 -461 504 -436.5 c 0,14,15
 459 -386.386 459 -386.386 459 -304 c 0,16,17
 459 -179 459 -179 608 -30 c 1,18,19
 579 -36 579 -36 551 -36 c 0,20,21
 341.413 -36 341.413 -36 209.5 112 c 0,22,23
 80 257.293 80 257.293 80 474 c 0,24,25
 80 709.718 80 709.718 235 880 c 0,26,27
 306 958 306 958 399 1003 c 128,-1,28
 492 1048 492 1048 587.5 1048 c 128,-1,29
 683 1048 683 1048 749.5 1014.5 c 128,-1,30
 816 981 816 981 860.5 924 c 0,31,32
 948 811.921 948 811.921 948 638 c 0,33,34
 948 589 948 589 939 553 c 1,35,36
 927.636 528 927.636 528 528 528 c 0,37,38
 395 528 395 528 247 532 c 1,39,40
 248.876 340.615 248.876 340.615 369.5 224.5 c 0,41,42
 478.058 120 478.058 120 613.896 120 c 128,-1,43
 749.733 120 749.733 120 871 227 c 1,44,45
 922.667 206.333 922.667 206.333 928 153 c 1,46,47
 902.333 127.333 902.333 127.333 874.167 105.667 c 2,48,-1
 822 67 l 1,49,-1
 801.5 45.5 l 2,50,51
 679.637 -83.7489 679.637 -83.7489 635 -206.5 c 0,52,53
 621 -245 621 -245 621 -281 c 0,0,1
330 624 m 2,54,55
 629.571 624 629.571 624 768 643 c 1,56,57
 768 749.623 768 749.623 703.5 839.5 c 0,58,59
 633.529 937 633.529 937 537 937 c 256,60,61
 431.487 937 431.487 937 353.5 858 c 0,62,63
 271.328 774.761 271.328 774.761 252 624 c 1,64,-1
 330 624 l 2,54,55
EndSplineSet
EndChar

StartChar: uogonek
Encoding: 371 371 289
Width: 1196
Flags: HW
LayerCount: 2
Fore
SplineSet
643 -313 m 0,0,1
 643 -155.389 643 -155.389 854 -3 c 1,2,-1
 843 115 l 1,3,-1
 834 117 l 1,4,-1
 786 82.5 l 2,5,6
 706.696 24.7215 706.696 24.7215 636.348 -5.63923 c 128,-1,7
 566 -36 566 -36 506.5 -36 c 128,-1,8
 447 -36 447 -36 385 -11.5 c 128,-1,9
 323 13 323 13 280 58 c 0,10,11
 193 149.047 193 149.047 193 308 c 2,12,-1
 193 825 l 1,13,-1
 94 874 l 1,14,-1
 85 885 l 1,15,-1
 94 940 l 1,16,-1
 337 1029 l 1,17,-1
 353 1020 l 1,18,-1
 353 353 l 2,19,20
 353 180.379 353 180.379 467.5 133 c 0,21,22
 511 115 511 115 591.857 115 c 128,-1,23
 672.714 115 672.714 115 827 205 c 1,24,-1
 827 798 l 1,25,-1
 685 860 l 1,26,-1
 679 872 l 1,27,-1
 685 926 l 1,28,-1
 968 1029 l 1,29,-1
 987 1022 l 1,30,-1
 987 200 l 2,31,32
 987 179 987 179 994.5 167 c 128,-1,33
 1002 155 1002 155 1018 155 c 128,-1,34
 1034 155 1034 155 1055.5 157 c 2,35,-1
 1099 161 l 2,36,37
 1125 164 1125 164 1154 167 c 1,38,-1
 1166 153 l 1,39,-1
 1142 70 l 1,40,-1
 1119 62 l 1,41,42
 970.157 4.7528 970.157 4.7528 884.5 -95 c 0,43,44
 805 -187.582 805 -187.582 805 -273.791 c 128,-1,45
 805 -360 805 -360 888 -360 c 0,46,47
 925.529 -360 925.529 -360 974.765 -333 c 128,-1,48
 1024 -306 1024 -306 1025 -306 c 256,49,50
 1032 -306 1032 -306 1044 -316.5 c 0,51,52
 1070 -339.25 1070 -339.25 1070 -367 c 1,53,54
 1003.22 -433.776 1003.22 -433.776 933.612 -460.888 c 128,-1,55
 864 -488 864 -488 818 -488 c 128,-1,56
 772 -488 772 -488 741 -474.5 c 128,-1,57
 710 -461 710 -461 688 -437.5 c 0,58,59
 643 -389.432 643 -389.432 643 -313 c 0,0,1
EndSplineSet
EndChar

StartChar: aogonek
Encoding: 261 261 290
Width: 1025
Flags: HW
LayerCount: 2
Fore
SplineSet
675 128 m 1,0,1
 518.455 -36 518.455 -36 410 -36 c 0,2,3
 250.185 -36 250.185 -36 159.5 67 c 0,4,5
 79 158.432 79 158.432 79 285 c 0,6,7
 79 396 79 396 137.5 448 c 0,8,9
 194.401 498.579 194.401 498.579 340.7 521.289 c 128,-1,10
 487 544 487 544 571.5 555 c 128,-1,11
 656 566 656 566 666 568 c 1,12,-1
 666 654 l 2,13,14
 666 923 666 923 462 923 c 0,15,16
 360.765 923 360.765 923 194 860 c 1,17,18
 154 889.091 154 889.091 154 946 c 1,19,20
 361.643 1048 361.643 1048 516.821 1048 c 0,21,22
 826 1048 826 1048 826 692 c 2,23,-1
 826 189 l 2,24,25
 826 144 826 144 863 144 c 0,26,27
 885 144 885 144 995 155 c 1,28,-1
 1006 141 l 1,29,-1
 983 59 l 1,30,-1
 944 45 l 1,31,32
 750.046 -27.4093 750.046 -27.4093 725 -192 c 0,33,34
 718 -238 718 -238 718 -281 c 0,35,36
 718 -360 718 -360 801 -360 c 0,37,38
 838.529 -360 838.529 -360 887.765 -333 c 128,-1,39
 937 -306 937 -306 938 -306 c 256,40,41
 945 -306 945 -306 957 -316.5 c 0,42,43
 983 -339.25 983 -339.25 983 -367 c 1,44,45
 916.224 -433.776 916.224 -433.776 846.612 -460.888 c 128,-1,46
 777 -488 777 -488 731 -488 c 128,-1,47
 685 -488 685 -488 654 -474.5 c 128,-1,48
 623 -461 623 -461 601 -437.5 c 0,49,50
 556 -389.432 556 -389.432 556 -313 c 0,51,52
 556 -164 556 -164 696 -24 c 1,53,-1
 693 -21 l 1,54,-1
 675 128 l 1,0,1
666 216 m 1,55,-1
 666 447 l 1,56,57
 491 447 491 447 404 431.5 c 128,-1,58
 317 416 317 416 287 387 c 128,-1,59
 257 358 257 358 257 309.5 c 128,-1,60
 257 261 257 261 270 228 c 128,-1,61
 283 195 283 195 307 168.5 c 0,62,63
 361.792 108 361.792 108 441.896 108 c 128,-1,64
 522 108 522 108 666 216 c 1,55,-1
EndSplineSet
EndChar

StartChar: Iogonek
Encoding: 302 302 291
Width: 683
Flags: HW
LayerCount: 2
Fore
SplineSet
320 -281 m 0,0,1
 320 -360 320 -360 403 -360 c 0,2,3
 439.529 -360 439.529 -360 488.765 -333 c 128,-1,4
 538 -306 538 -306 539 -306 c 256,5,6
 546 -306 546 -306 558 -316.5 c 0,7,8
 583 -338.375 583 -338.375 583 -367 c 1,9,10
 518.982 -432.901 518.982 -432.901 448.991 -460.45 c 128,-1,11
 379 -488 379 -488 333 -488 c 128,-1,12
 287 -488 287 -488 256 -474.5 c 128,-1,13
 225 -461 225 -461 203 -436.5 c 0,14,15
 158 -386.386 158 -386.386 158 -313.693 c 0,16,17
 158 -146.429 158 -146.429 308 0 c 1,18,-1
 104 0 l 1,19,-1
 99 9 l 1,20,-1
 109 85 l 1,21,-1
 248 128 l 1,22,-1
 248 1364 l 1,23,-1
 102 1398 l 1,24,-1
 95 1411 l 1,25,-1
 109 1492 l 1,26,-1
 585 1492 l 1,27,-1
 589 1483 l 1,28,-1
 579 1407 l 1,29,-1
 435 1364 l 1,30,-1
 435 128 l 1,31,-1
 587 94 l 1,32,-1
 594 80 l 1,33,-1
 579 0 l 1,34,-1
 447 0 l 1,35,36
 378.137 -66.9506 378.137 -66.9506 349.068 -142.975 c 128,-1,37
 320 -219 320 -219 320 -281 c 0,0,1
EndSplineSet
EndChar

StartChar: Uogonek
Encoding: 370 370 292
Width: 1531
Flags: HW
LayerCount: 2
Fore
SplineSet
820 -360 m 0,0,1
 859.706 -360 859.706 -360 907.353 -333 c 128,-1,2
 955 -306 955 -306 956 -306 c 256,3,4
 962.5 -306 962.5 -306 975.25 -316.5 c 0,5,6
 1001 -337.706 1001 -337.706 1001 -367 c 1,7,8
 934.526 -433.474 934.526 -433.474 865.263 -460.737 c 128,-1,9
 796 -488 796 -488 750 -488 c 128,-1,10
 704 -488 704 -488 673 -474.5 c 128,-1,11
 642 -461 642 -461 620.5 -436.5 c 0,12,13
 575 -384.651 575 -384.651 575 -322.326 c 128,-1,14
 575 -260 575 -260 591.5 -219.5 c 128,-1,15
 608 -179 608 -179 633 -144.5 c 0,16,17
 677.068 -83.6856 677.068 -83.6856 738 -36 c 1,18,-1
 721 -36 l 2,19,20
 462.149 -36 462.149 -36 319 103 c 0,21,22
 179 238.942 179 238.942 179 476 c 2,23,-1
 179 1344 l 1,24,-1
 57 1378 l 1,25,-1
 50 1391 l 1,26,-1
 64 1472 l 1,27,-1
 540 1472 l 1,28,-1
 545 1463 l 1,29,-1
 534 1387 l 1,30,-1
 368 1344 l 1,31,-1
 368 560 l 2,32,33
 368 322 368 322 464.5 208 c 128,-1,34
 561 94 561 94 759 94 c 0,35,36
 947.456 94 947.456 94 1070.5 200.5 c 0,37,38
 1199 311.723 1199 311.723 1199 499 c 2,39,-1
 1199 1344 l 1,40,-1
 1053 1378 l 1,41,-1
 1046 1391 l 1,42,-1
 1060 1472 l 1,43,-1
 1475 1472 l 1,44,-1
 1480 1463 l 1,45,-1
 1470 1387 l 1,46,-1
 1327 1344 l 1,47,-1
 1327 492 l 2,48,49
 1327 203.783 1327 203.783 1085 67 c 0,50,51
 1016 28 1016 28 960 4 c 128,-1,52
 904 -20 904 -20 867 -48.5 c 128,-1,53
 830 -77 830 -77 801.5 -113.5 c 0,54,55
 738 -194.825 738 -194.825 738 -277.412 c 128,-1,56
 738 -360 738 -360 820 -360 c 0,0,1
EndSplineSet
EndChar

StartChar: thorn
Encoding: 254 254 293
Width: 1194
Flags: HW
LayerCount: 2
Fore
SplineSet
767 10.5 m 128,-1,1
 671 -36 671 -36 564.571 -36 c 128,-1,2
 458.143 -36 458.143 -36 327 0 c 1,3,-1
 327 -389 l 1,4,-1
 528 -424 l 1,5,-1
 532 -438 l 1,6,-1
 521 -519 l 1,7,-1
 33 -519 l 1,8,-1
 26 -506 l 1,9,-1
 35 -434 l 1,10,-1
 168 -389 l 1,11,-1
 168 1380 l 1,12,-1
 8 1420 l 1,13,-1
 1 1434 l 1,14,-1
 8 1488 l 1,15,-1
 311 1602 l 1,16,-1
 327 1592 l 1,17,-1
 327 923 l 1,18,19
 497.455 1048 497.455 1048 614.227 1048 c 128,-1,20
 731 1048 731 1048 813.5 1010.5 c 128,-1,21
 896 973 896 973 954.5 906 c 0,22,23
 1076 766.846 1076 766.846 1076 549 c 0,24,25
 1076 305.759 1076 305.759 931.5 137 c 0,26,0
 863 57 863 57 767 10.5 c 128,-1,1
540.55 895 m 0,27,28
 439.1 895 439.1 895 327 836 c 1,29,-1
 327 207 l 1,30,31
 389.256 130.909 389.256 130.909 497.5 92.5 c 0,32,33
 544 76 544 76 605.5 76 c 128,-1,34
 667 76 667 76 723.5 106 c 128,-1,35
 780 136 780 136 821 190 c 0,36,37
 909 305.902 909 305.902 909 485 c 0,38,39
 909 679.857 909 679.857 813.5 789 c 0,40,41
 720.75 895 720.75 895 540.55 895 c 0,27,28
EndSplineSet
EndChar

StartChar: Thorn
Encoding: 222 222 294
Width: 1196
Flags: HW
LayerCount: 2
Fore
SplineSet
570.5 335 m 0,0,1
 454 335 454 335 400 344 c 1,2,-1
 400 128 l 1,3,-1
 616 94 l 1,4,-1
 623 80 l 1,5,-1
 609 0 l 1,6,-1
 65 0 l 1,7,-1
 58 11 l 1,8,-1
 70 85 l 1,9,-1
 211 128 l 1,10,-1
 211 1364 l 1,11,-1
 65 1398 l 1,12,-1
 58 1411 l 1,13,-1
 72 1492 l 1,14,-1
 548 1492 l 1,15,-1
 553 1483 l 1,16,-1
 542 1407 l 1,17,-1
 400 1364 l 1,18,-1
 400 1180 l 1,19,-1
 634 1180 l 2,20,21
 1113 1180 1113 1180 1113 768 c 0,22,23
 1113 546.551 1113 546.551 952.5 433 c 0,24,25
 813.981 335 813.981 335 570.5 335 c 0,0,1
569 1063 m 0,26,27
 480 1063 480 1063 400 1043 c 1,28,-1
 400 459 l 1,29,30
 438 452 438 452 527.5 452 c 128,-1,31
 617 452 617 452 687 469 c 128,-1,32
 757 486 757 486 807 524 c 0,33,34
 913 604.56 913 604.56 913 768 c 0,35,36
 913 888.553 913 888.553 826.5 972 c 0,37,38
 732.171 1063 732.171 1063 569 1063 c 0,26,27
EndSplineSet
EndChar

StartChar: Eth
Encoding: 208 208 295
Width: 1532
Flags: HW
LayerCount: 2
Fore
SplineSet
18 85 m 1,0,-1
 166 128 l 1,1,-1
 166 688 l 1,2,-1
 14 688 l 1,3,4
 -6.56523 749.696 -6.56523 749.696 28 805 c 1,5,-1
 166 805 l 1,6,-1
 166 1353 l 1,7,-1
 22 1391 l 1,8,-1
 15 1405 l 1,9,-1
 29 1492 l 1,10,-1
 694 1492 l 2,11,12
 1012.23 1492 1012.23 1492 1201 1287.5 c 0,13,14
 1388 1084.92 1388 1084.92 1388 750 c 0,15,16
 1388 426.565 1388 426.565 1166 211 c 0,17,18
 948.701 -1.51315e-05 948.701 -1.51315e-05 634 0 c 2,19,-1
 13 0 l 1,20,-1
 8 9 l 1,21,-1
 18 85 l 1,0,-1
610.333 1375 m 0,22,23
 485.667 1375 485.667 1375 350 1353 c 1,24,-1
 350 805 l 1,25,-1
 756 805 l 1,26,27
 767.831 742.89 767.831 742.89 742 688 c 1,28,-1
 350 688 l 1,29,-1
 350 153 l 1,30,31
 488 130 488 130 637.5 130 c 128,-1,32
 787 130 787 130 881.5 164.5 c 128,-1,33
 976 199 976 199 1043.5 269 c 0,34,35
 1186 416.778 1186 416.778 1186 694 c 0,36,37
 1186 1020.29 1186 1020.29 1018.5 1204 c 0,38,39
 862.588 1375 862.588 1375 610.333 1375 c 0,22,23
EndSplineSet
EndChar

StartChar: dotlessj
Encoding: 567 567 296
Width: 684
Flags: HW
LayerCount: 2
Fore
SplineSet
290 789 m 1,0,-1
 153 848 l 1,1,-1
 144 860 l 1,2,-1
 153 914 l 1,3,-1
 434 1029 l 1,4,-1
 450 1020 l 1,5,-1
 450 -14 l 2,6,7
 450 -226.59 450 -226.59 333 -370.5 c 0,8,9
 256.288 -464.856 256.288 -464.856 116 -535 c 1,10,11
 86.4667 -505.467 86.4667 -505.467 83 -450 c 1,12,13
 161.937 -417.11 161.937 -417.11 222 -313 c 0,14,15
 290 -195.133 290 -195.133 290 -45 c 2,16,-1
 290 789 l 1,0,-1
EndSplineSet
EndChar

StartChar: multiply
Encoding: 215 215 297
Width: 1194
Flags: HW
LayerCount: 2
Fore
SplineSet
523 574 m 1,0,-1
 253 845 l 1,1,2
 272.927 895.925 272.927 895.925 326 919 c 1,3,-1
 597 648 l 1,4,-1
 868 919 l 1,5,6
 908.617 895.79 908.617 895.79 918.809 880.895 c 128,-1,7
 929 866 929 866 937 852 c 1,8,-1
 664 580 l 1,9,-1
 941 304 l 1,10,11
 927 275 927 275 912 260 c 128,-1,12
 897 245 897 245 868 231 c 1,13,-1
 591 507 l 1,14,-1
 319 236 l 1,15,16
 272 257 272 257 253 304 c 1,17,-1
 523 574 l 1,0,-1
EndSplineSet
EndChar

StartChar: minus
Encoding: 8722 8722 298
Width: 1060
Flags: HW
LayerCount: 2
Fore
SplineSet
974 579.5 m 128,-1,1
 974 562 974 562 966 532 c 1,2,-1
 94 532 l 1,3,4
 77 579 77 579 94 627 c 1,5,-1
 966 627 l 1,6,0
 974 597 974 597 974 579.5 c 128,-1,1
EndSplineSet
EndChar

StartChar: brokenbar
Encoding: 166 166 299
Width: 511
Flags: HW
LayerCount: 2
Fore
SplineSet
197 1766 m 1,0,-1
 314 1766 l 1,1,-1
 314 746 l 1,2,-1
 197 746 l 1,3,-1
 197 1766 l 1,0,-1
197 596 m 1,4,-1
 314 596 l 1,5,-1
 314 -471 l 1,6,-1
 197 -471 l 1,7,-1
 197 596 l 1,4,-1
EndSplineSet
EndChar

StartChar: currency
Encoding: 164 164 300
Width: 1362
Flags: HW
LayerCount: 2
Fore
SplineSet
961 158 m 1,0,1
 838.373 52 838.373 52 676.426 52 c 128,-1,2
 514.48 52 514.48 52 400 158 c 1,3,4
 348.118 92.7765 348.118 92.7765 321.059 61.3882 c 2,5,-1
 266 -1.5 l 2,6,7
 238 -33 238 -33 210 -61 c 1,8,-1
 182 -40 l 2,9,10
 140.833 -8.33333 140.833 -8.33333 115 33 c 1,11,12
 145 63 145 63 177.5 92 c 0,13,14
 261.402 165.248 261.402 165.248 292.201 190.124 c 2,15,-1
 340 228 l 1,16,17
 264 340.973 264 340.973 264 493.677 c 128,-1,18
 264 646.381 264 646.381 352 770 c 1,19,20
 338 780 338 780 312 801 c 2,21,-1
 184 910 l 1,22,23
 148 942 148 942 115 975 c 1,24,-1
 136 1002.5 l 2,25,26
 163.931 1040.21 163.931 1040.21 210 1069 c 1,27,28
 241 1038 241 1038 271.5 1003.5 c 0,29,30
 351.541 911.627 351.541 911.627 374.77 882.313 c 2,31,-1
 410 838 l 1,32,33
 539.474 961 539.474 961 703.919 961 c 128,-1,34
 868.364 961 868.364 961 975 869 c 1,35,36
 1096.13 1013.13 1096.13 1013.13 1152 1069 c 1,37,-1
 1179.5 1048.5 l 2,38,39
 1206.8 1027.27 1206.8 1027.27 1223.9 1004.63 c 2,40,-1
 1246 975 l 1,41,42
 1175.82 908.067 1175.82 908.067 1142.91 880.034 c 0,43,44
 1064.8 813.997 1064.8 813.997 1042 796 c 1,45,46
 1123 679.692 1123 679.692 1123 515.538 c 128,-1,47
 1123 351.383 1123 351.383 1024 225 c 1,48,49
 1181.89 97.1052 1181.89 97.1052 1246 33 c 1,50,-1
 1224.5 5.5 l 2,51,52
 1201.87 -23.6 1201.87 -23.6 1180.43 -39.8 c 2,53,-1
 1152 -61 l 1,54,55
 1123 -33 1123 -33 1095 -1.5 c 2,56,-1
 1041.5 59 l 2,57,58
 1016 88 1016 88 995.5 114 c 2,59,-1
 961 158 l 1,0,1
445.5 677.5 m 0,60,61
 428 619 428 619 428 538 c 128,-1,62
 428 457 428 457 453.5 388 c 128,-1,63
 479 319 479 319 520 268.5 c 0,64,65
 606.465 162 606.465 162 713 162 c 0,66,67
 888.769 162 888.769 162 940 328.5 c 0,68,69
 958 387 958 387 958 471 c 128,-1,70
 958 555 958 555 932 625.5 c 128,-1,71
 906 696 906 696 865.5 746 c 0,72,73
 781.26 850 781.26 850 680 850 c 0,74,75
 497.103 850 497.103 850 445.5 677.5 c 0,60,61
EndSplineSet
EndChar

StartChar: Lslash
Encoding: 321 321 301
Width: 1194
Flags: HW
LayerCount: 2
Fore
SplineSet
87 85 m 1,0,-1
 231 128 l 1,1,-1
 231 681 l 1,2,-1
 -3 598 l 1,3,4
 -37 636.533 -37 636.533 -37 699 c 1,5,-1
 231 796 l 1,6,-1
 231 1364 l 1,7,-1
 90 1398 l 1,8,-1
 83 1411 l 1,9,-1
 97 1492 l 1,10,-1
 598 1492 l 1,11,-1
 603 1483 l 1,12,-1
 593 1407 l 1,13,-1
 420 1364 l 1,14,-1
 420 875 l 1,15,-1
 789 1008 l 1,16,17
 814.578 961.639 814.578 961.639 820 902 c 1,18,-1
 420 759 l 1,19,-1
 420 117 l 1,20,-1
 923 117 l 1,21,-1
 1015 371 l 1,22,23
 1043.52 376.704 1043.52 376.704 1092 371 c 1,24,-1
 1101 0 l 1,25,-1
 83 0 l 1,26,-1
 78 9 l 1,27,-1
 87 85 l 1,0,-1
EndSplineSet
EndChar

StartChar: lslash
Encoding: 322 322 302
Width: 684
Flags: HW
LayerCount: 2
Fore
SplineSet
135 85 m 1,0,-1
 265 128 l 1,1,-1
 265 783 l 1,2,-1
 140 733 l 1,3,4
 100.71 779.224 100.71 779.224 105 835 c 1,5,-1
 265 886 l 1,6,-1
 265 1416 l 1,7,-1
 108 1456 l 1,8,-1
 97 1470 l 1,9,-1
 108 1524 l 1,10,-1
 409 1636 l 1,11,-1
 425 1627 l 1,12,-1
 425 945 l 1,13,-1
 564 1001 l 1,14,15
 595 948.118 595 948.118 595 898 c 1,16,-1
 425 841 l 1,17,-1
 425 128 l 1,18,-1
 585 94 l 1,19,-1
 593 80 l 1,20,-1
 578 0 l 1,21,-1
 131 0 l 1,22,-1
 126 9 l 1,23,-1
 135 85 l 1,0,-1
EndSplineSet
EndChar

StartChar: uni00AD
Encoding: 173 173 306
Width: 650
Flags: HW
LayerCount: 2
Fore
SplineSet
94 506 m 1,0,1
 73.2174 568.348 73.2174 568.348 108 624 c 1,2,-1
 555 624 l 1,3,4
 568.76 566.209 568.76 566.209 542 506 c 1,5,-1
 94 506 l 1,0,1
EndSplineSet
EndChar

StartChar: Dcroat
Encoding: 272 272 320
Width: 1532
Flags: HW
LayerCount: 2
Fore
SplineSet
48 85 m 1,0,-1
 196 128 l 1,1,-1
 196 688 l 1,2,-1
 10 688 l 1,3,4
 -10.5652 749.696 -10.5652 749.696 24 805 c 1,5,-1
 196 805 l 1,6,-1
 196 1353 l 1,7,-1
 52 1391 l 1,8,-1
 45 1405 l 1,9,-1
 59 1492 l 1,10,-1
 704 1492 l 2,11,12
 1022.23 1492 1022.23 1492 1211 1287.5 c 0,13,14
 1398 1084.92 1398 1084.92 1398 750 c 0,15,16
 1398 426.565 1398 426.565 1176 211 c 0,17,18
 958.701 -1.51315e-05 958.701 -1.51315e-05 644 0 c 2,19,-1
 43 0 l 1,20,-1
 38 9 l 1,21,-1
 48 85 l 1,0,-1
628.5 1375 m 0,22,23
 512 1375 512 1375 380 1353 c 1,24,-1
 380 805 l 1,25,-1
 751 805 l 1,26,27
 764.159 743.589 764.159 743.589 738 688 c 1,28,-1
 380 688 l 1,29,-1
 380 153 l 1,30,31
 518 130 518 130 657.5 130 c 128,-1,32
 797 130 797 130 891.5 164.5 c 128,-1,33
 986 199 986 199 1053.5 269 c 0,34,35
 1196 416.778 1196 416.778 1196 694 c 0,36,37
 1196 1020.29 1196 1020.29 1028.5 1204 c 0,38,39
 872.588 1375 872.588 1375 628.5 1375 c 0,22,23
EndSplineSet
EndChar

StartChar: dcroat
Encoding: 273 273 321
Width: 1195
Flags: HW
LayerCount: 2
Fore
SplineSet
634.382 1048 m 0,0,1
 754.765 1048 754.765 1048 861 1005 c 1,2,-1
 861 1168 l 1,3,-1
 593 1168 l 1,4,5
 572.217 1230.35 572.217 1230.35 607 1286 c 1,6,-1
 861 1286 l 1,7,-1
 861 1416 l 1,8,-1
 694 1456 l 1,9,-1
 683 1470 l 1,10,-1
 694 1524 l 1,11,-1
 1004 1636 l 1,12,-1
 1020 1627 l 1,13,-1
 1020 1286 l 1,14,-1
 1126 1286 l 1,15,16
 1138.6 1218.25 1138.6 1218.25 1112 1168 c 1,17,-1
 1020 1168 l 1,18,-1
 1020 200 l 2,19,20
 1020 179 1020 179 1027.5 167 c 128,-1,21
 1035 155 1035 155 1051 155 c 128,-1,22
 1067 155 1067 155 1088 157 c 128,-1,23
 1109 159 1109 159 1132 161.5 c 2,24,-1
 1184 167 l 1,25,-1
 1196 153 l 1,26,-1
 1172 70 l 1,27,-1
 904 -23 l 1,28,-1
 889 -9 l 1,29,-1
 873 103 l 1,30,31
 764.003 12.7956 764.003 12.7956 663.5 -23 c 0,32,33
 627 -36 627 -36 595 -36 c 0,34,35
 369.13 -36 369.13 -36 234 112 c 0,36,37
 105 253.286 105 253.286 105 474 c 0,38,39
 105 716.705 105 716.705 250.5 880 c 0,40,41
 400.192 1048 400.192 1048 634.382 1048 c 0,0,1
861 191 m 1,42,-1
 861 815 l 1,43,44
 799.694 885.063 799.694 885.063 697.5 921 c 0,45,46
 652 937 652 937 588.5 937 c 128,-1,47
 525 937 525 937 465.5 908.5 c 128,-1,48
 406 880 406 880 363 828 c 0,49,50
 273 719.163 273 719.163 273 537 c 0,51,52
 273 345.358 273 345.358 394 225.5 c 0,53,54
 500.505 120 500.505 120 627.502 120 c 128,-1,55
 754.5 120 754.5 120 861 191 c 1,42,-1
EndSplineSet
EndChar

StartChar: Scedilla
Encoding: 350 350 323
Width: 1196
Flags: HW
LayerCount: 2
Fore
SplineSet
479 -218 m 1,0,1
 453.562 -204.125 453.562 -204.125 433 -163 c 1,2,-1
 488 -33 l 1,3,4
 251.566 -12.8779 251.566 -12.8779 134 94 c 1,5,-1
 204 407 l 1,6,7
 247.871 412.161 247.871 412.161 283 393 c 1,8,9
 283 268 283 268 294 224 c 1,10,11
 377.639 148.141 377.639 148.141 504.5 106.5 c 0,12,13
 570 85 570 85 637.5 85 c 128,-1,14
 705 85 705 85 752.5 98.5 c 128,-1,15
 800 112 800 112 835 142 c 0,16,17
 911 207.143 911 207.143 911 337 c 0,18,19
 911 439.286 911 439.286 794.5 522.5 c 0,20,21
 742 560 742 560 675 593.5 c 2,22,-1
 538.5 662 l 2,23,24
 362.314 750.727 362.314 750.727 296.157 814.364 c 128,-1,25
 230 878 230 878 198 942 c 128,-1,26
 166 1006 166 1006 166 1093.5 c 128,-1,27
 166 1181 166 1181 202 1258 c 128,-1,28
 238 1335 238 1335 302 1390.5 c 0,29,30
 437.495 1508 437.495 1508 641 1508 c 0,31,32
 854.906 1508 854.906 1508 1056 1391 c 1,33,-1
 985 1079 l 1,34,35
 950.653 1072.94 950.653 1072.94 908 1090 c 1,36,37
 908 1123 908 1123 906 1153 c 128,-1,38
 904 1183 904 1183 902 1213 c 128,-1,39
 900 1243 900 1243 895 1263 c 1,40,41
 750.323 1378 750.323 1378 545 1378 c 0,42,43
 442.119 1378 442.119 1378 384 1314.5 c 0,44,45
 331 1256.59 331 1256.59 331 1174.8 c 128,-1,46
 331 1093 331 1093 363.5 1046 c 128,-1,47
 396 999 396 999 448.5 960 c 128,-1,48
 501 921 501 921 568.5 887 c 2,49,-1
 706.5 817 l 2,50,51
 886.349 725.162 886.349 725.162 951.675 661.081 c 128,-1,52
 1017 597 1017 597 1049.5 530.5 c 128,-1,53
 1082 464 1082 464 1082 376.5 c 128,-1,54
 1082 289 1082 289 1050.5 217.5 c 128,-1,55
 1019 146 1019 146 961 93.5 c 0,56,57
 842.376 -13.8749 842.376 -13.8749 643 -32 c 1,58,-1
 613 -121 l 1,59,60
 662.333 -103.381 662.333 -103.381 699 -106 c 0,61,62
 772 -111 772 -111 809.5 -160.5 c 128,-1,63
 847 -210 847 -210 843 -276 c 128,-1,64
 839 -342 839 -342 805.5 -385.5 c 128,-1,65
 772 -429 772 -429 720.5 -461.5 c 0,66,67
 611.954 -530 611.954 -530 471 -530 c 1,68,69
 460 -517.167 460 -517.167 459.5 -489.083 c 128,-1,70
 459 -461 459 -461 461 -442 c 1,71,72
 560 -438 560 -438 616.5 -398.5 c 0,73,74
 693.651 -344.562 693.651 -344.562 673.5 -255 c 0,75,76
 657.975 -186 657.975 -186 585.63 -186 c 128,-1,77
 513.286 -186 513.286 -186 479 -218 c 1,0,1
EndSplineSet
EndChar

StartChar: hbar
Encoding: 295 295 325
Width: 1326
Flags: HW
LayerCount: 2
Fore
SplineSet
743 897 m 0,0,1
 600.667 897 600.667 897 432 820 c 1,2,-1
 432 128 l 1,3,-1
 593 94 l 1,4,-1
 600 80 l 1,5,-1
 585 0 l 1,6,-1
 137 0 l 1,7,-1
 133 9 l 1,8,-1
 142 85 l 1,9,-1
 272 128 l 1,10,-1
 272 1168 l 1,11,-1
 92 1168 l 1,12,13
 71.2174 1230.35 71.2174 1230.35 106 1286 c 1,14,-1
 272 1286 l 1,15,-1
 272 1418 l 1,16,-1
 114 1458 l 1,17,-1
 105 1470 l 1,18,-1
 114 1524 l 1,19,-1
 416 1636 l 1,20,-1
 432 1627 l 1,21,-1
 432 1286 l 1,22,-1
 624 1286 l 1,23,24
 638.28 1217.78 638.28 1217.78 609 1168 c 1,25,-1
 432 1168 l 1,26,-1
 432 910 l 1,27,28
 642.632 1048 642.632 1048 791 1048 c 0,29,30
 940.269 1048 940.269 1048 1025 949.5 c 0,31,32
 1106 855.338 1106 855.338 1106 695 c 2,33,-1
 1106 128 l 1,34,-1
 1280 94 l 1,35,-1
 1287 80 l 1,36,-1
 1275 0 l 1,37,-1
 800 0 l 1,38,-1
 793 9 l 1,39,-1
 802 85 l 1,40,-1
 946 128 l 1,41,-1
 946 647 l 2,42,43
 946 897 946 897 743 897 c 0,0,1
EndSplineSet
EndChar

StartChar: scedilla
Encoding: 351 351 326
Width: 854
Flags: HW
LayerCount: 2
Fore
SplineSet
314 -31 m 1,0,1
 163.594 -15.7044 163.594 -15.7044 87 40 c 1,2,3
 94.0736 131.957 94.0736 131.957 160 193 c 1,4,5
 258.131 108.888 258.131 108.888 371 78.5 c 0,6,7
 410 68 410 68 446.5 68 c 128,-1,8
 483 68 483 68 515.5 76 c 128,-1,9
 548 84 548 84 572.5 101.5 c 0,10,11
 627 140.429 627 140.429 627 200.714 c 128,-1,12
 627 261 627 261 605.5 295 c 128,-1,13
 584 329 584 329 548.5 355 c 128,-1,14
 513 381 513 381 467.5 402 c 2,15,-1
 374.5 444.5 l 2,16,17
 253.473 499.28 253.473 499.28 209.237 544.14 c 0,18,19
 122 632.606 122 632.606 122 753 c 0,20,21
 122 878.917 122 878.917 226 964.5 c 0,22,23
 327.468 1048 327.468 1048 478 1048 c 0,24,25
 620.25 1048 620.25 1048 744 1003 c 1,26,27
 737.194 957.061 737.194 957.061 713.097 913.53 c 128,-1,28
 689 870 689 870 663 845 c 1,29,30
 535.024 944 535.024 944 402 944 c 0,31,32
 313.353 944 313.353 944 281.5 858.5 c 0,33,34
 272 833 272 833 272 795 c 128,-1,35
 272 757 272 757 293.5 722.5 c 128,-1,36
 315 688 315 688 350.5 661 c 128,-1,37
 386 634 386 634 431.5 612 c 2,38,-1
 524.5 567 l 2,39,40
 648.021 507.19 648.021 507.19 691.011 463.595 c 0,41,42
 777 376.394 777 376.394 777 259 c 0,43,44
 777 142.988 777 142.988 689 62.5 c 0,45,46
 604.766 -14.5435 604.766 -14.5435 469 -31 c 1,47,-1
 438 -121 l 1,48,49
 487.333 -103.381 487.333 -103.381 524 -106 c 0,50,51
 597 -111 597 -111 634.5 -160.5 c 128,-1,52
 672 -210 672 -210 668 -276 c 128,-1,53
 664 -342 664 -342 630.5 -385.5 c 128,-1,54
 597 -429 597 -429 545.5 -461.5 c 0,55,56
 436.954 -530 436.954 -530 296 -530 c 1,57,58
 285 -517.167 285 -517.167 284.5 -489.083 c 128,-1,59
 284 -461 284 -461 286 -442 c 1,60,61
 385 -438 385 -438 441.5 -398.5 c 0,62,63
 518.651 -344.562 518.651 -344.562 498.5 -255 c 0,64,65
 482.975 -186 482.975 -186 410.63 -186 c 128,-1,66
 338.286 -186 338.286 -186 304 -218 c 1,67,68
 278.562 -204.125 278.562 -204.125 258 -163 c 1,69,-1
 314 -31 l 1,0,1
EndSplineSet
EndChar

StartChar: Hbar
Encoding: 294 294 329
Width: 1703
Flags: HW
LayerCount: 2
Fore
SplineSet
147 85 m 1,0,-1
 290 128 l 1,1,-1
 290 1020 l 1,2,-1
 77 1020 l 1,3,4
 56.4348 1081.7 56.4348 1081.7 91 1137 c 1,5,-1
 290 1137 l 1,6,-1
 290 1364 l 1,7,-1
 151 1398 l 1,8,-1
 144 1411 l 1,9,-1
 158 1492 l 1,10,-1
 634 1492 l 1,11,-1
 639 1483 l 1,12,-1
 630 1407 l 1,13,-1
 479 1364 l 1,14,-1
 479 1137 l 1,15,-1
 1235 1137 l 1,16,-1
 1235 1364 l 1,17,-1
 1095 1398 l 1,18,-1
 1088 1411 l 1,19,-1
 1103 1492 l 1,20,-1
 1578 1492 l 1,21,-1
 1583 1483 l 1,22,-1
 1574 1407 l 1,23,-1
 1423 1364 l 1,24,-1
 1423 1137 l 1,25,-1
 1627 1137 l 1,26,27
 1641.37 1069.93 1641.37 1069.93 1612 1020 c 1,28,-1
 1423 1020 l 1,29,-1
 1423 128 l 1,30,-1
 1569 94 l 1,31,-1
 1576 80 l 1,32,-1
 1562 0 l 1,33,-1
 1086 0 l 1,34,-1
 1082 9 l 1,35,-1
 1091 85 l 1,36,-1
 1235 128 l 1,37,-1
 1235 698 l 1,38,-1
 479 698 l 1,39,-1
 479 128 l 1,40,-1
 625 94 l 1,41,-1
 632 80 l 1,42,-1
 617 0 l 1,43,-1
 142 0 l 1,44,-1
 137 9 l 1,45,-1
 147 85 l 1,0,-1
1235 815 m 1,46,-1
 1235 1020 l 1,47,-1
 479 1020 l 1,48,-1
 479 815 l 1,49,-1
 1235 815 l 1,46,-1
EndSplineSet
EndChar

StartChar: twosuperior
Encoding: 178 178 331
Width: 854
Flags: HW
LayerCount: 2
Fore
SplineSet
666 923 m 1,0,1
 666 930 666 930 685 930 c 0,2,3
 715 930 715 930 731 926 c 1,4,-1
 749 711 l 1,5,-1
 145 711 l 1,6,7
 115 724.333 115 724.333 115 744.167 c 0,8,9
 115 766.5 115 766.5 122 777 c 1,10,11
 456.701 1008.92 456.701 1008.92 513 1165.5 c 0,12,13
 529 1210 529 1210 529 1260.5 c 128,-1,14
 529 1311 529 1311 491.5 1353.5 c 128,-1,15
 454 1396 454 1396 383.196 1396 c 128,-1,16
 312.391 1396 312.391 1396 209 1314 c 1,17,18
 160.484 1338.26 160.484 1338.26 158 1378 c 1,19,20
 230.516 1446.7 230.516 1446.7 309.758 1477.35 c 128,-1,21
 389 1508 389 1508 449 1508 c 128,-1,22
 509 1508 509 1508 554 1492.5 c 128,-1,23
 599 1477 599 1477 631 1448.5 c 0,24,25
 697 1389.72 697 1389.72 697 1304.36 c 128,-1,26
 697 1219 697 1219 670 1158.5 c 128,-1,27
 643 1098 643 1098 590 1039.5 c 0,28,29
 498.871 938.914 498.871 938.914 280 793 c 1,30,31
 624.25 793 624.25 793 637 827 c 1,32,-1
 666 923 l 1,0,1
EndSplineSet
EndChar

StartChar: threesuperior
Encoding: 179 179 332
Width: 684
Flags: HW
LayerCount: 2
Fore
SplineSet
558 1328 m 0,0,1
 558 1226.5 558 1226.5 393 1144 c 1,2,3
 564.785 1131.18 564.785 1131.18 587 1009 c 0,4,5
 593 976 593 976 593 932.5 c 128,-1,6
 593 889 593 889 568 840.5 c 128,-1,7
 543 792 543 792 500.5 756 c 0,8,9
 408.417 678 408.417 678 278 678 c 0,10,11
 153.273 678 153.273 678 66 758 c 1,12,13
 81.5 804.5 81.5 804.5 148 850 c 1,14,15
 225.786 751 225.786 751 321 751 c 0,16,17
 362.653 751 362.653 751 395.5 806.5 c 0,18,19
 427 859.724 427 859.724 427 910.362 c 128,-1,20
 427 961 427 961 416.5 992 c 128,-1,21
 406 1023 406 1023 389.5 1044 c 0,22,23
 356.5 1086 356.5 1086 314.107 1086 c 128,-1,24
 271.714 1086 271.714 1086 222 1074 c 1,25,26
 195 1095.6 195 1095.6 195 1135 c 1,27,28
 321.415 1175.45 321.415 1175.45 362.5 1235.5 c 0,29,30
 382 1264 382 1264 382 1295.5 c 128,-1,31
 382 1327 382 1327 375.5 1348 c 128,-1,32
 369 1369 369 1369 355.5 1385 c 0,33,34
 325.969 1420 325.969 1420 271 1420 c 256,35,36
 200.176 1420 200.176 1420 132 1359 c 1,37,38
 99.5188 1373.44 99.5188 1373.44 87 1416 c 1,39,40
 175.462 1508 175.462 1508 317 1508 c 0,41,42
 423.714 1508 423.714 1508 492.5 1454.5 c 0,43,44
 558 1403.56 558 1403.56 558 1328 c 0,0,1
EndSplineSet
EndChar

StartChar: onesuperior
Encoding: 185 185 333
Width: 682
Flags: HW
LayerCount: 2
Fore
SplineSet
117 721 m 1,0,-1
 126 784 l 1,1,-1
 283 811 l 1,2,-1
 283 1364 l 1,3,-1
 119 1352 l 1,4,-1
 114 1359 l 1,5,-1
 121 1413 l 1,6,-1
 447 1508 l 1,7,-1
 456 1501 l 1,8,-1
 440 1394 l 1,9,-1
 440 811 l 1,10,-1
 590 791 l 1,11,-1
 595 782 l 1,12,-1
 588 711 l 1,13,-1
 121 711 l 1,14,-1
 117 721 l 1,0,-1
EndSplineSet
EndChar

StartChar: commaaccent
Encoding: 65539 -1 348
Width: 553
Flags: HW
LayerCount: 2
Fore
SplineSet
219 -181 m 256,0,1
 219 -144.118 219 -144.118 247 -121.059 c 0,2,3
 316.999 -63.4126 316.999 -63.4126 385 -91.5 c 0,4,5
 432.571 -111.149 432.571 -111.149 453.5 -155 c 0,6,7
 464 -177 464 -177 464 -213 c 128,-1,8
 464 -249 464 -249 455.5 -289 c 128,-1,9
 447 -329 447 -329 433.5 -361.5 c 0,10,11
 383.714 -481.355 383.714 -481.355 270 -534 c 1,12,13
 239.577 -525.549 239.577 -525.549 232.789 -509.775 c 128,-1,14
 226 -494 226 -494 225 -482 c 1,15,16
 233.756 -482 233.756 -482 253.878 -449 c 0,17,18
 294 -383.2 294 -383.2 294 -347.1 c 128,-1,19
 294 -311 294 -311 288.5 -293 c 128,-1,20
 283 -275 283 -275 274.5 -263.5 c 128,-1,21
 266 -252 266 -252 256.5 -245 c 128,-1,22
 247 -238 247 -238 238.5 -230 c 0,23,24
 219 -211.647 219 -211.647 219 -181 c 256,0,1
EndSplineSet
EndChar

StartChar: commaaccent.cap
Encoding: 65540 -1 360
Width: 553
Flags: HW
LayerCount: 2
Fore
SplineSet
221.5 -213.5 m 128,-1,1
 208 -200 208 -200 208 -176 c 128,-1,2
 208 -152 208 -152 219 -134 c 128,-1,3
 230 -116 230 -116 247 -102 c 0,4,5
 283.429 -72 283.429 -72 317.214 -72 c 128,-1,6
 351 -72 351 -72 374 -81.5 c 128,-1,7
 397 -91 397 -91 414.5 -107 c 0,8,9
 453 -142.2 453 -142.2 453 -190.6 c 128,-1,10
 453 -239 453 -239 445 -279.5 c 128,-1,11
 437 -320 437 -320 424 -353 c 0,12,13
 375.944 -474.99 375.944 -474.99 270 -529 c 1,14,15
 239.577 -520.549 239.577 -520.549 232.789 -504.775 c 128,-1,16
 226 -489 226 -489 225 -477 c 1,17,18
 233.615 -477 233.615 -477 253.808 -445.5 c 0,19,20
 294 -382.8 294 -382.8 294 -339.4 c 128,-1,21
 294 -296 294 -296 280.5 -275 c 128,-1,22
 267 -254 267 -254 251 -240.5 c 128,-1,0
 235 -227 235 -227 221.5 -213.5 c 128,-1,1
EndSplineSet
EndChar

StartChar: Eng
Encoding: 330 330 396
Width: 1705
Flags: HW
LayerCount: 2
Fore
SplineSet
110 85 m 1,0,-1
 263 128 l 1,1,-1
 263 1347 l 1,2,-1
 96 1378 l 1,3,-1
 89 1391 l 1,4,-1
 103 1472 l 1,5,-1
 433 1472 l 1,6,-1
 1366 351 l 1,7,-1
 1366 1342 l 1,8,-1
 1195 1378 l 1,9,-1
 1189 1391 l 1,10,-1
 1202 1472 l 1,11,-1
 1613 1472 l 1,12,-1
 1618 1463 l 1,13,-1
 1608 1387 l 1,14,-1
 1483 1344 l 1,15,-1
 1483 40 l 2,16,17
 1483 -225.8 1483 -225.8 1274 -393 c 0,18,19
 1207.94 -445.846 1207.94 -445.846 1121 -488 c 1,20,21
 1090.89 -460.402 1090.89 -460.402 1087 -402 c 1,22,23
 1166.7 -368.793 1166.7 -368.793 1226 -266 c 0,24,25
 1294 -148.133 1294 -148.133 1294 2 c 2,26,-1
 1294 122 l 1,27,-1
 381 1232 l 1,28,-1
 381 128 l 1,29,-1
 517 94 l 1,30,-1
 524 80 l 1,31,-1
 510 0 l 1,32,-1
 105 0 l 1,33,-1
 101 9 l 1,34,-1
 110 85 l 1,0,-1
EndSplineSet
EndChar

StartChar: eng
Encoding: 331 331 397
Width: 1365
Flags: HW
LayerCount: 2
Fore
SplineSet
739 897 m 0,0,1
 599.667 897 599.667 897 431 820 c 1,2,-1
 431 128 l 1,3,-1
 591 94 l 1,4,-1
 595 80 l 1,5,-1
 584 0 l 1,6,-1
 136 0 l 1,7,-1
 129 9 l 1,8,-1
 139 85 l 1,9,-1
 271 128 l 1,10,-1
 271 796 l 1,11,-1
 132 857 l 1,12,-1
 122 869 l 1,13,-1
 132 923 l 1,14,-1
 395 1029 l 1,15,-1
 412 1020 l 1,16,-1
 412 897 l 1,17,18
 642.095 1048 642.095 1048 788 1048 c 0,19,20
 937.818 1048 937.818 1048 1022.5 956 c 0,21,22
 1105 866.37 1105 866.37 1105 706 c 2,23,-1
 1105 -14 l 2,24,25
 1105 -372.576 1105 -372.576 770 -535 c 1,26,27
 740.63 -508.077 740.63 -508.077 737 -450 c 1,28,29
 816.657 -415.861 816.657 -415.861 876 -313 c 0,30,31
 944 -195.133 944 -195.133 944 -45 c 2,32,-1
 944 659 l 2,33,34
 944 897 944 897 739 897 c 0,0,1
EndSplineSet
EndChar

StartChar: Tbar
Encoding: 358 358 398
Width: 1362
Flags: HW
LayerCount: 2
Fore
SplineSet
372 85 m 1,0,-1
 586 128 l 1,1,-1
 586 749 l 1,2,-1
 309 749 l 1,3,4
 293 789 293 789 313 845 c 0,5,6
 318 859 318 859 323 867 c 1,7,-1
 586 867 l 1,8,-1
 586 1370 l 1,9,-1
 400 1370 l 2,10,11
 290.067 1370 290.067 1370 249 1331.5 c 0,12,13
 212.879 1297.64 212.879 1297.64 167 1160 c 1,14,15
 107.714 1160 107.714 1160 81 1177 c 1,16,-1
 119 1492 l 1,17,-1
 1239 1492 l 1,18,-1
 1280 1177 l 1,19,20
 1248.43 1160 1248.43 1160 1194 1160 c 1,21,22
 1147.67 1299 1147.67 1299 1118.33 1326.5 c 128,-1,23
 1089 1354 1089 1354 1054 1362 c 128,-1,24
 1019 1370 1019 1370 962 1370 c 2,25,-1
 775 1370 l 1,26,-1
 775 867 l 1,27,-1
 1051 867 l 1,28,29
 1062.53 806.45 1062.53 806.45 1037 749 c 1,30,-1
 775 749 l 1,31,-1
 775 128 l 1,32,-1
 992 85 l 1,33,-1
 999 72 l 1,34,-1
 984 0 l 1,35,-1
 368 0 l 1,36,-1
 363 9 l 1,37,-1
 372 85 l 1,0,-1
EndSplineSet
EndChar

StartChar: tbar
Encoding: 359 359 399
Width: 853
Flags: HW
LayerCount: 2
Fore
SplineSet
500 117 m 0,0,1
 609.692 117 609.692 117 729 164 c 1,2,3
 765.29 142.226 765.29 142.226 769 94 c 1,4,5
 593.324 -36 593.324 -36 477 -36 c 0,6,7
 340.59 -36 340.59 -36 270.5 53.5 c 0,8,9
 208 133.308 208 133.308 208 268 c 2,10,-1
 208 609 l 1,11,-1
 78 607 l 1,12,13
 62.7586 645.103 62.7586 645.103 88 704 c 0,14,15
 94 718 94 718 99 726 c 1,16,-1
 208 727 l 1,17,-1
 208 897 l 1,18,-1
 77 897 l 1,19,20
 69 914 69 914 69 931 c 0,21,22
 69 952.25 69 952.25 84 971 c 1,23,-1
 230 1022 l 1,24,-1
 303 1292 l 1,25,-1
 371 1292 l 1,26,-1
 371 1005 l 1,27,28
 482.333 1005 482.333 1005 719 1015 c 1,29,30
 719 1010 719 1010 720 1005 c 2,31,-1
 721 980 l 1,32,33
 721 925.235 721 925.235 697 897 c 1,34,-1
 371 897 l 1,35,-1
 371 729 l 1,36,-1
 620 733 l 1,37,38
 633.764 659.017 633.764 659.017 598 615 c 1,39,-1
 371 611 l 1,40,-1
 371 276 l 2,41,42
 371 209.294 371 209.294 397 175.647 c 0,43,44
 442.318 117 442.318 117 500 117 c 0,0,1
EndSplineSet
EndChar

StartChar: kgreenlandic
Encoding: 312 312 402
Width: 1196
Flags: HW
LayerCount: 2
Fore
SplineSet
125 85 m 1,0,-1
 255 128 l 1,1,-1
 255 815 l 1,2,-1
 118 874 l 1,3,-1
 109 888 l 1,4,-1
 118 942 l 1,5,-1
 399 1048 l 1,6,-1
 415 1038 l 1,7,-1
 415 544 l 1,8,-1
 803 892 l 1,9,-1
 662 921 l 1,10,-1
 655 933 l 1,11,-1
 667 1013 l 1,12,-1
 1117 1013 l 1,13,-1
 1122 1003 l 1,14,-1
 1112 930 l 1,15,-1
 969 883 l 1,16,-1
 632 605 l 1,17,-1
 1055 128 l 1,18,-1
 1194 94 l 1,19,-1
 1199 80 l 1,20,-1
 1188 0 l 1,21,-1
 740 0 l 1,22,-1
 733 9 l 1,23,-1
 743 85 l 1,24,-1
 848 128 l 1,25,-1
 516 511 l 1,26,-1
 415 427 l 1,27,-1
 415 128 l 1,28,-1
 576 94 l 1,29,-1
 583 80 l 1,30,-1
 568 0 l 1,31,-1
 120 0 l 1,32,-1
 116 9 l 1,33,-1
 125 85 l 1,0,-1
EndSplineSet
EndChar

StartChar: cedilla.cap
Encoding: 65541 -1 404
Width: 562
Flags: HW
LayerCount: 2
Fore
SplineSet
165 -218 m 1,0,1
 139.562 -204.125 139.562 -204.125 119 -163 c 1,2,-1
 196 17 l 1,3,-1
 342 3 l 1,4,-1
 299 -121 l 1,5,6
 348.333 -103.381 348.333 -103.381 385 -106 c 0,7,8
 458 -111 458 -111 495.5 -160.5 c 128,-1,9
 533 -210 533 -210 529 -276 c 128,-1,10
 525 -342 525 -342 491.5 -385.5 c 128,-1,11
 458 -429 458 -429 406.5 -461.5 c 0,12,13
 297.954 -530 297.954 -530 157 -530 c 1,14,15
 146 -517.167 146 -517.167 145.5 -489.083 c 128,-1,16
 145 -461 145 -461 147 -442 c 1,17,18
 246 -438 246 -438 302.5 -398.5 c 0,19,20
 379.651 -344.562 379.651 -344.562 359.5 -255 c 0,21,22
 343.975 -186 343.975 -186 271.63 -186 c 128,-1,23
 199.286 -186 199.286 -186 165 -218 c 1,0,1
EndSplineSet
EndChar

StartChar: hungarumlaut.cap
Encoding: 65542 -1 405
Width: 553
Flags: HW
LayerCount: 2
Fore
SplineSet
48 1637 m 1,0,1
 189.212 1834.7 189.212 1834.7 245 2018 c 1,2,3
 339.695 2012.43 339.695 2012.43 394 1936 c 1,4,5
 340.811 1801.46 340.811 1801.46 223 1663.5 c 0,6,7
 185 1619 185 1619 143 1580 c 1,8,9
 106 1573.83 106 1573.83 82 1595.92 c 128,-1,10
 58 1618 58 1618 48 1637 c 1,0,1
372 1659 m 1,11,12
 530.896 1831.52 530.896 1831.52 612 2014 c 1,13,14
 706.006 1997.08 706.006 1997.08 749 1915 c 1,15,16
 658.631 1738.57 658.631 1738.57 462 1590 c 1,17,18
 401.613 1584.97 401.613 1584.97 372 1659 c 1,11,12
EndSplineSet
EndChar

StartChar: breve.cap
Encoding: 65543 -1 406
Width: 553
Flags: HW
LayerCount: 2
Fore
SplineSet
274 1670 m 0,0,1
 211 1670 211 1670 161 1693 c 128,-1,2
 111 1716 111 1716 75 1755 c 0,3,4
 8.92857 1826.58 8.92857 1826.58 -18 1950 c 1,5,6
 16.9556 1979.58 16.9556 1979.58 63 1973 c 1,7,8
 97.9712 1849.01 97.9712 1849.01 201.5 1808.5 c 0,9,10
 236 1795 236 1795 278 1795 c 0,11,12
 443.6 1795 443.6 1795 497 1973 c 1,13,14
 549.941 1975.65 549.941 1975.65 573 1946 c 1,15,16
 553.276 1840.81 553.276 1840.81 475.5 1760 c 0,17,18
 388.875 1670 388.875 1670 274 1670 c 0,0,1
EndSplineSet
EndChar

StartChar: macron.cap
Encoding: 65544 -1 407
Width: 553
Flags: HW
LayerCount: 2
Fore
SplineSet
47 1667 m 1,0,1
 26.2174 1729.35 26.2174 1729.35 61 1785 c 1,2,-1
 508 1785 l 1,3,4
 522.794 1721.39 522.794 1721.39 494 1667 c 1,5,-1
 47 1667 l 1,0,1
EndSplineSet
EndChar

StartChar: grave.cap
Encoding: 65545 -1 408
Width: 553
Flags: HW
LayerCount: 2
Fore
SplineSet
205 2019 m 1,0,1
 298.398 1844.39 298.398 1844.39 476 1685 c 1,2,3
 462 1647 462 1647 441.5 1631 c 128,-1,4
 421 1615 421 1615 391 1609 c 1,5,6
 249.573 1695.59 249.573 1695.59 135.5 1829.5 c 0,7,8
 101 1870 101 1870 76 1909 c 1,9,10
 114.269 1993.6 114.269 1993.6 205 2019 c 1,0,1
EndSplineSet
EndChar

StartChar: acute.cap
Encoding: 65546 -1 409
Width: 553
Flags: HW
LayerCount: 2
Fore
SplineSet
160 1609 m 1,0,1
 130 1615 130 1615 110 1631 c 128,-1,2
 90 1647 90 1647 76 1685 c 1,3,4
 195.827 1792.54 195.827 1792.54 292.5 1932 c 0,5,6
 323 1976 323 1976 346 2019 c 1,7,8
 435.56 1993.92 435.56 1993.92 476 1909 c 1,9,10
 393.116 1784.67 393.116 1784.67 254.5 1675 c 0,11,12
 209 1639 209 1639 160 1609 c 1,0,1
EndSplineSet
EndChar

StartChar: circumflex.cap
Encoding: 65547 -1 410
Width: 553
Flags: HW
LayerCount: 2
Fore
SplineSet
-14 1577 m 1,0,1
 -44.0883 1587.94 -44.0883 1587.94 -57.5441 1609.47 c 128,-1,2
 -71 1631 -71 1631 -81 1649 c 1,3,4
 -67 1661 -67 1661 -40.5 1690 c 0,5,6
 36.9094 1778.18 36.9094 1778.18 74.9547 1825.59 c 2,7,-1
 189 1970 l 2,8,9
 209 1996 209 1996 214 2004 c 1,10,11
 284 2017 284 2017 355 2004 c 1,12,13
 363 1990 363 1990 385.5 1960 c 2,14,-1
 607 1677.5 l 2,15,16
 628 1652 628 1652 634 1646 c 1,17,18
 617.451 1604.63 617.451 1604.63 587.5 1589 c 0,19,20
 576 1583 576 1583 560 1577 c 1,21,22
 478.774 1635.38 478.774 1635.38 354 1785.5 c 1,23,-1
 299 1853 l 1,24,-1
 274 1853 l 1,25,26
 250 1824 250 1824 213.5 1785 c 1,27,-1
 136.5 1706 l 1,28,29
 38.4134 1609.12 38.4134 1609.12 -14 1577 c 1,0,1
EndSplineSet
EndChar

StartChar: dieresis.cap
Encoding: 65548 -1 411
Width: 553
Flags: HW
LayerCount: 2
Fore
SplineSet
512 1711.5 m 128,-1,1
 489 1700 489 1700 466 1700 c 128,-1,2
 443 1700 443 1700 421.5 1709.5 c 128,-1,3
 400 1719 400 1719 383 1735.5 c 0,4,5
 344 1773.35 344 1773.35 344 1805.68 c 128,-1,6
 344 1838 344 1838 353 1859.5 c 128,-1,7
 362 1881 362 1881 378 1899 c 0,8,9
 413.556 1939 413.556 1939 448.278 1939 c 128,-1,10
 483 1939 483 1939 505.5 1930 c 128,-1,11
 528 1921 528 1921 546.5 1905.5 c 0,12,13
 589 1869.89 589 1869.89 589 1837.45 c 128,-1,14
 589 1805 589 1805 579 1782.5 c 128,-1,15
 569 1760 569 1760 552 1741.5 c 128,-1,0
 535 1723 535 1723 512 1711.5 c 128,-1,1
133 1711.5 m 128,-1,17
 110 1700 110 1700 87.5 1700 c 128,-1,18
 65 1700 65 1700 43.5 1709.5 c 128,-1,19
 22 1719 22 1719 4.5 1735.5 c 0,20,21
 -36 1773.69 -36 1773.69 -36 1805.84 c 128,-1,22
 -36 1838 -36 1838 -27 1859.5 c 128,-1,23
 -18 1881 -18 1881 -2 1899 c 0,24,25
 33.5556 1939 33.5556 1939 83 1939 c 0,26,27
 128.097 1939 128.097 1939 156.548 1914.5 c 0,28,29
 209 1869.33 209 1869.33 209 1826 c 0,30,31
 209 1782.42 209 1782.42 182.5 1752.71 c 128,-1,16
 156 1723 156 1723 133 1711.5 c 128,-1,17
EndSplineSet
EndChar

StartChar: caron.cap
Encoding: 65549 -1 412
Width: 553
Flags: HW
LayerCount: 2
Fore
SplineSet
-59 1945 m 1,0,1
 -27.1481 2000.74 -27.1481 2000.74 11 2016 c 1,2,3
 87.9312 1966.37 87.9312 1966.37 207 1821.5 c 1,4,-1
 261 1757 l 1,5,-1
 287 1757 l 1,6,-1
 340 1820 l 2,7,8
 454.221 1957.07 454.221 1957.07 539 2018 c 1,9,10
 571 2006 571 2006 585.5 1993 c 128,-1,11
 600 1980 600 1980 612 1951 c 1,12,13
 362.66 1639.65 362.66 1639.65 344 1607 c 1,14,15
 320 1601 320 1601 286.5 1601 c 0,16,17
 222.4 1601 222.4 1601 202 1607 c 1,18,19
 194 1620 194 1620 176.5 1645 c 0,20,21
 116.543 1729.69 116.543 1729.69 88.7713 1765.84 c 2,22,-1
 -16 1897 l 2,23,24
 -40 1926 -40 1926 -59 1945 c 1,0,1
EndSplineSet
EndChar

StartChar: ring.cap
Encoding: 65550 -1 413
Width: 553
Flags: HW
LayerCount: 2
Fore
SplineSet
270 1597 m 0,0,1
 227 1597 227 1597 188.5 1613 c 128,-1,2
 150 1629 150 1629 121.5 1657 c 0,3,4
 61 1716.44 61 1716.44 61 1806 c 256,5,6
 61 1894.41 61 1894.41 130.5 1959.5 c 0,7,8
 197.237 2022 197.237 2022 287 2022 c 0,9,10
 374.868 2022 374.868 2022 433.5 1965.5 c 128,-1,11
 492 1909.13 492 1909.13 492 1822 c 0,12,13
 492 1724.21 492 1724.21 424 1659.5 c 0,14,15
 358.322 1597 358.322 1597 270 1597 c 0,0,1
274 1932 m 0,16,17
 179 1932 179 1932 179 1824 c 0,18,19
 179 1764.06 179 1764.06 204 1735.03 c 0,20,21
 245.361 1687 245.361 1687 285 1687 c 0,22,23
 373 1687 373 1687 373 1795 c 0,24,25
 373 1855.07 373 1855.07 349 1884.03 c 0,26,27
 309.257 1932 309.257 1932 274 1932 c 0,16,17
EndSplineSet
EndChar

StartChar: tilde.cap
Encoding: 65551 -1 414
Width: 553
Flags: HW
LayerCount: 2
Fore
SplineSet
393 1874 m 256,0,1
 462.562 1874 462.562 1874 573 1988 c 1,2,3
 611.536 1966.98 611.536 1966.98 625.768 1943.99 c 128,-1,4
 640 1921 640 1921 641 1912 c 1,5,6
 481.769 1728 481.769 1728 384 1728 c 0,7,8
 337.059 1728 337.059 1728 287.029 1759.5 c 128,-1,9
 237 1791 237 1791 211.5 1805.5 c 128,-1,10
 186 1820 186 1820 158 1820 c 0,11,12
 112.5 1820 112.5 1820 61.25 1780 c 128,-1,13
 10 1740 10 1740 -18 1710 c 1,14,15
 -54.2535 1726.11 -54.2535 1726.11 -79 1765 c 0,16,17
 -86 1776 -86 1776 -87 1785 c 1,18,19
 72.28 1966 72.28 1966 169 1966 c 0,20,21
 215.647 1966 215.647 1966 263.824 1934.5 c 128,-1,22
 312 1903 312 1903 338 1888.5 c 128,-1,23
 364 1874 364 1874 393 1874 c 256,0,1
EndSplineSet
EndChar

StartChar: dotaccent.cap
Encoding: 65552 -1 415
Width: 553
Flags: HW
LayerCount: 2
Fore
SplineSet
322 1649.5 m 128,-1,1
 299 1638 299 1638 276 1638 c 128,-1,2
 253 1638 253 1638 231.5 1647.5 c 128,-1,3
 210 1657 210 1657 192.5 1672.5 c 0,4,5
 153 1707.49 153 1707.49 153 1740.74 c 128,-1,6
 153 1774 153 1774 162 1795.5 c 128,-1,7
 171 1817 171 1817 187 1835 c 0,8,9
 222.556 1875 222.556 1875 271 1875 c 0,10,11
 315.516 1875 315.516 1875 344.758 1850.5 c 0,12,13
 398 1805.89 398 1805.89 398 1762 c 0,14,15
 398 1718.82 398 1718.82 371.5 1689.91 c 128,-1,0
 345 1661 345 1661 322 1649.5 c 128,-1,1
EndSplineSet
EndChar

StartChar: onequarter
Encoding: 188 188 416
Width: 2047
Flags: HW
LayerCount: 2
Fore
SplineSet
1009 2 m 1,0,1
 978.714 32.2857 978.714 32.2857 973 78 c 1,2,3
 1142.84 254.015 1142.84 254.015 1323 546 c 0,4,5
 1381 640 1381 640 1432 739 c 1,6,7
 1479.34 721.642 1479.34 721.642 1512.67 697.321 c 128,-1,8
 1546 673 1546 673 1562 659 c 1,9,10
 1538 620 1538 620 1501.5 569.5 c 1,11,12
 1335.5 349.5 l 1,13,14
 1110 70 l 1,15,-1
 1477 80 l 1,16,-1
 1477 360 l 1,17,18
 1517.7 383.939 1517.7 383.939 1623 405 c 1,19,-1
 1623 85 l 1,20,21
 1673.28 87.7931 1673.28 87.7931 1800 103 c 1,22,23
 1803.35 39.3621 1803.35 39.3621 1782 2 c 1,24,-1
 1623 2 l 1,25,-1
 1623 -160 l 1,26,27
 1558.35 -195.916 1558.35 -195.916 1477 -201 c 1,28,-1
 1477 2 l 1,29,-1
 1009 2 l 1,0,1
1359 1636 m 1,30,31
 1379 1633 1379 1633 1403 1618 c 128,-1,32
 1427 1603 1427 1603 1439 1585 c 1,33,-1
 483 -125 l 1,34,35
 435.5 -115.5 435.5 -115.5 398 -78 c 1,36,-1
 1359 1636 l 1,30,31
117 721 m 1,37,-1
 126 784 l 1,38,-1
 283 811 l 1,39,-1
 283 1364 l 1,40,-1
 119 1352 l 1,41,-1
 114 1359 l 1,42,-1
 121 1413 l 1,43,-1
 447 1508 l 1,44,-1
 456 1501 l 1,45,-1
 440 1394 l 1,46,-1
 440 811 l 1,47,-1
 590 791 l 1,48,-1
 595 782 l 1,49,-1
 588 711 l 1,50,-1
 121 711 l 1,51,-1
 117 721 l 1,37,-1
EndSplineSet
EndChar

